%TF.GenerationSoftware,KiCad,Pcbnew,5.1.12-84ad8e8a86~92~ubuntu20.04.1*%
%TF.CreationDate,2022-04-17T17:37:32+03:00*%
%TF.ProjectId,rata,72617461-2e6b-4696-9361-645f70636258,rev?*%
%TF.SameCoordinates,Original*%
%TF.FileFunction,Soldermask,Top*%
%TF.FilePolarity,Negative*%
%FSLAX46Y46*%
G04 Gerber Fmt 4.6, Leading zero omitted, Abs format (unit mm)*
G04 Created by KiCad (PCBNEW 5.1.12-84ad8e8a86~92~ubuntu20.04.1) date 2022-04-17 17:37:32*
%MOMM*%
%LPD*%
G01*
G04 APERTURE LIST*
%ADD10R,3.400000X9.500000*%
%ADD11R,1.100000X0.400000*%
%ADD12C,1.800000*%
%ADD13R,1.800000X1.800000*%
%ADD14R,5.400000X2.900000*%
%ADD15C,1.200000*%
%ADD16R,1.400000X0.700000*%
%ADD17R,1.400000X1.600000*%
%ADD18R,2.200000X1.200000*%
%ADD19R,4.500000X2.000000*%
%ADD20R,2.000000X1.500000*%
%ADD21R,2.000000X3.800000*%
%ADD22R,0.350000X0.500000*%
%ADD23R,1.060000X0.650000*%
%ADD24R,0.650000X1.060000*%
%ADD25R,1.500000X2.000000*%
%ADD26R,3.800000X2.000000*%
%ADD27C,2.000000*%
%ADD28C,1.700000*%
%ADD29R,2.000000X2.000000*%
%ADD30R,0.900000X0.800000*%
%ADD31R,0.800000X0.900000*%
%ADD32O,1.700000X1.700000*%
%ADD33R,1.700000X1.700000*%
%ADD34C,2.100000*%
%ADD35C,3.500000*%
%ADD36R,0.900000X1.200000*%
G04 APERTURE END LIST*
D10*
%TO.C,U6*%
X14000000Y-16000000D03*
D11*
X11150000Y-20225000D03*
X11150000Y-19575000D03*
X11150000Y-18925000D03*
X11150000Y-18275000D03*
X11150000Y-17625000D03*
X11150000Y-16975000D03*
X11150000Y-16325000D03*
X11150000Y-15675000D03*
X11150000Y-15025000D03*
X11150000Y-14375000D03*
X11150000Y-13725000D03*
X11150000Y-13075000D03*
X11150000Y-12425000D03*
X11150000Y-11775000D03*
X16850000Y-11775000D03*
X16850000Y-12425000D03*
X16850000Y-13075000D03*
X16850000Y-13725000D03*
X16850000Y-14375000D03*
X16850000Y-15025000D03*
X16850000Y-15675000D03*
X16850000Y-16325000D03*
X16850000Y-16975000D03*
X16850000Y-17625000D03*
X16850000Y-18275000D03*
X16850000Y-18925000D03*
X16850000Y-19575000D03*
X16850000Y-20225000D03*
%TD*%
%TO.C,U2*%
G36*
G01*
X73500000Y-34100000D02*
X74825000Y-34100000D01*
G75*
G02*
X74900000Y-34175000I0J-75000D01*
G01*
X74900000Y-34325000D01*
G75*
G02*
X74825000Y-34400000I-75000J0D01*
G01*
X73500000Y-34400000D01*
G75*
G02*
X73425000Y-34325000I0J75000D01*
G01*
X73425000Y-34175000D01*
G75*
G02*
X73500000Y-34100000I75000J0D01*
G01*
G37*
G36*
G01*
X73500000Y-34600000D02*
X74825000Y-34600000D01*
G75*
G02*
X74900000Y-34675000I0J-75000D01*
G01*
X74900000Y-34825000D01*
G75*
G02*
X74825000Y-34900000I-75000J0D01*
G01*
X73500000Y-34900000D01*
G75*
G02*
X73425000Y-34825000I0J75000D01*
G01*
X73425000Y-34675000D01*
G75*
G02*
X73500000Y-34600000I75000J0D01*
G01*
G37*
G36*
G01*
X73500000Y-35100000D02*
X74825000Y-35100000D01*
G75*
G02*
X74900000Y-35175000I0J-75000D01*
G01*
X74900000Y-35325000D01*
G75*
G02*
X74825000Y-35400000I-75000J0D01*
G01*
X73500000Y-35400000D01*
G75*
G02*
X73425000Y-35325000I0J75000D01*
G01*
X73425000Y-35175000D01*
G75*
G02*
X73500000Y-35100000I75000J0D01*
G01*
G37*
G36*
G01*
X73500000Y-35600000D02*
X74825000Y-35600000D01*
G75*
G02*
X74900000Y-35675000I0J-75000D01*
G01*
X74900000Y-35825000D01*
G75*
G02*
X74825000Y-35900000I-75000J0D01*
G01*
X73500000Y-35900000D01*
G75*
G02*
X73425000Y-35825000I0J75000D01*
G01*
X73425000Y-35675000D01*
G75*
G02*
X73500000Y-35600000I75000J0D01*
G01*
G37*
G36*
G01*
X73500000Y-36100000D02*
X74825000Y-36100000D01*
G75*
G02*
X74900000Y-36175000I0J-75000D01*
G01*
X74900000Y-36325000D01*
G75*
G02*
X74825000Y-36400000I-75000J0D01*
G01*
X73500000Y-36400000D01*
G75*
G02*
X73425000Y-36325000I0J75000D01*
G01*
X73425000Y-36175000D01*
G75*
G02*
X73500000Y-36100000I75000J0D01*
G01*
G37*
G36*
G01*
X73500000Y-36600000D02*
X74825000Y-36600000D01*
G75*
G02*
X74900000Y-36675000I0J-75000D01*
G01*
X74900000Y-36825000D01*
G75*
G02*
X74825000Y-36900000I-75000J0D01*
G01*
X73500000Y-36900000D01*
G75*
G02*
X73425000Y-36825000I0J75000D01*
G01*
X73425000Y-36675000D01*
G75*
G02*
X73500000Y-36600000I75000J0D01*
G01*
G37*
G36*
G01*
X73500000Y-37100000D02*
X74825000Y-37100000D01*
G75*
G02*
X74900000Y-37175000I0J-75000D01*
G01*
X74900000Y-37325000D01*
G75*
G02*
X74825000Y-37400000I-75000J0D01*
G01*
X73500000Y-37400000D01*
G75*
G02*
X73425000Y-37325000I0J75000D01*
G01*
X73425000Y-37175000D01*
G75*
G02*
X73500000Y-37100000I75000J0D01*
G01*
G37*
G36*
G01*
X73500000Y-37600000D02*
X74825000Y-37600000D01*
G75*
G02*
X74900000Y-37675000I0J-75000D01*
G01*
X74900000Y-37825000D01*
G75*
G02*
X74825000Y-37900000I-75000J0D01*
G01*
X73500000Y-37900000D01*
G75*
G02*
X73425000Y-37825000I0J75000D01*
G01*
X73425000Y-37675000D01*
G75*
G02*
X73500000Y-37600000I75000J0D01*
G01*
G37*
G36*
G01*
X73500000Y-38100000D02*
X74825000Y-38100000D01*
G75*
G02*
X74900000Y-38175000I0J-75000D01*
G01*
X74900000Y-38325000D01*
G75*
G02*
X74825000Y-38400000I-75000J0D01*
G01*
X73500000Y-38400000D01*
G75*
G02*
X73425000Y-38325000I0J75000D01*
G01*
X73425000Y-38175000D01*
G75*
G02*
X73500000Y-38100000I75000J0D01*
G01*
G37*
G36*
G01*
X73500000Y-38600000D02*
X74825000Y-38600000D01*
G75*
G02*
X74900000Y-38675000I0J-75000D01*
G01*
X74900000Y-38825000D01*
G75*
G02*
X74825000Y-38900000I-75000J0D01*
G01*
X73500000Y-38900000D01*
G75*
G02*
X73425000Y-38825000I0J75000D01*
G01*
X73425000Y-38675000D01*
G75*
G02*
X73500000Y-38600000I75000J0D01*
G01*
G37*
G36*
G01*
X73500000Y-39100000D02*
X74825000Y-39100000D01*
G75*
G02*
X74900000Y-39175000I0J-75000D01*
G01*
X74900000Y-39325000D01*
G75*
G02*
X74825000Y-39400000I-75000J0D01*
G01*
X73500000Y-39400000D01*
G75*
G02*
X73425000Y-39325000I0J75000D01*
G01*
X73425000Y-39175000D01*
G75*
G02*
X73500000Y-39100000I75000J0D01*
G01*
G37*
G36*
G01*
X73500000Y-39600000D02*
X74825000Y-39600000D01*
G75*
G02*
X74900000Y-39675000I0J-75000D01*
G01*
X74900000Y-39825000D01*
G75*
G02*
X74825000Y-39900000I-75000J0D01*
G01*
X73500000Y-39900000D01*
G75*
G02*
X73425000Y-39825000I0J75000D01*
G01*
X73425000Y-39675000D01*
G75*
G02*
X73500000Y-39600000I75000J0D01*
G01*
G37*
G36*
G01*
X72675000Y-40425000D02*
X72825000Y-40425000D01*
G75*
G02*
X72900000Y-40500000I0J-75000D01*
G01*
X72900000Y-41825000D01*
G75*
G02*
X72825000Y-41900000I-75000J0D01*
G01*
X72675000Y-41900000D01*
G75*
G02*
X72600000Y-41825000I0J75000D01*
G01*
X72600000Y-40500000D01*
G75*
G02*
X72675000Y-40425000I75000J0D01*
G01*
G37*
G36*
G01*
X72175000Y-40425000D02*
X72325000Y-40425000D01*
G75*
G02*
X72400000Y-40500000I0J-75000D01*
G01*
X72400000Y-41825000D01*
G75*
G02*
X72325000Y-41900000I-75000J0D01*
G01*
X72175000Y-41900000D01*
G75*
G02*
X72100000Y-41825000I0J75000D01*
G01*
X72100000Y-40500000D01*
G75*
G02*
X72175000Y-40425000I75000J0D01*
G01*
G37*
G36*
G01*
X71675000Y-40425000D02*
X71825000Y-40425000D01*
G75*
G02*
X71900000Y-40500000I0J-75000D01*
G01*
X71900000Y-41825000D01*
G75*
G02*
X71825000Y-41900000I-75000J0D01*
G01*
X71675000Y-41900000D01*
G75*
G02*
X71600000Y-41825000I0J75000D01*
G01*
X71600000Y-40500000D01*
G75*
G02*
X71675000Y-40425000I75000J0D01*
G01*
G37*
G36*
G01*
X71175000Y-40425000D02*
X71325000Y-40425000D01*
G75*
G02*
X71400000Y-40500000I0J-75000D01*
G01*
X71400000Y-41825000D01*
G75*
G02*
X71325000Y-41900000I-75000J0D01*
G01*
X71175000Y-41900000D01*
G75*
G02*
X71100000Y-41825000I0J75000D01*
G01*
X71100000Y-40500000D01*
G75*
G02*
X71175000Y-40425000I75000J0D01*
G01*
G37*
G36*
G01*
X70675000Y-40425000D02*
X70825000Y-40425000D01*
G75*
G02*
X70900000Y-40500000I0J-75000D01*
G01*
X70900000Y-41825000D01*
G75*
G02*
X70825000Y-41900000I-75000J0D01*
G01*
X70675000Y-41900000D01*
G75*
G02*
X70600000Y-41825000I0J75000D01*
G01*
X70600000Y-40500000D01*
G75*
G02*
X70675000Y-40425000I75000J0D01*
G01*
G37*
G36*
G01*
X70175000Y-40425000D02*
X70325000Y-40425000D01*
G75*
G02*
X70400000Y-40500000I0J-75000D01*
G01*
X70400000Y-41825000D01*
G75*
G02*
X70325000Y-41900000I-75000J0D01*
G01*
X70175000Y-41900000D01*
G75*
G02*
X70100000Y-41825000I0J75000D01*
G01*
X70100000Y-40500000D01*
G75*
G02*
X70175000Y-40425000I75000J0D01*
G01*
G37*
G36*
G01*
X69675000Y-40425000D02*
X69825000Y-40425000D01*
G75*
G02*
X69900000Y-40500000I0J-75000D01*
G01*
X69900000Y-41825000D01*
G75*
G02*
X69825000Y-41900000I-75000J0D01*
G01*
X69675000Y-41900000D01*
G75*
G02*
X69600000Y-41825000I0J75000D01*
G01*
X69600000Y-40500000D01*
G75*
G02*
X69675000Y-40425000I75000J0D01*
G01*
G37*
G36*
G01*
X69175000Y-40425000D02*
X69325000Y-40425000D01*
G75*
G02*
X69400000Y-40500000I0J-75000D01*
G01*
X69400000Y-41825000D01*
G75*
G02*
X69325000Y-41900000I-75000J0D01*
G01*
X69175000Y-41900000D01*
G75*
G02*
X69100000Y-41825000I0J75000D01*
G01*
X69100000Y-40500000D01*
G75*
G02*
X69175000Y-40425000I75000J0D01*
G01*
G37*
G36*
G01*
X68675000Y-40425000D02*
X68825000Y-40425000D01*
G75*
G02*
X68900000Y-40500000I0J-75000D01*
G01*
X68900000Y-41825000D01*
G75*
G02*
X68825000Y-41900000I-75000J0D01*
G01*
X68675000Y-41900000D01*
G75*
G02*
X68600000Y-41825000I0J75000D01*
G01*
X68600000Y-40500000D01*
G75*
G02*
X68675000Y-40425000I75000J0D01*
G01*
G37*
G36*
G01*
X68175000Y-40425000D02*
X68325000Y-40425000D01*
G75*
G02*
X68400000Y-40500000I0J-75000D01*
G01*
X68400000Y-41825000D01*
G75*
G02*
X68325000Y-41900000I-75000J0D01*
G01*
X68175000Y-41900000D01*
G75*
G02*
X68100000Y-41825000I0J75000D01*
G01*
X68100000Y-40500000D01*
G75*
G02*
X68175000Y-40425000I75000J0D01*
G01*
G37*
G36*
G01*
X67675000Y-40425000D02*
X67825000Y-40425000D01*
G75*
G02*
X67900000Y-40500000I0J-75000D01*
G01*
X67900000Y-41825000D01*
G75*
G02*
X67825000Y-41900000I-75000J0D01*
G01*
X67675000Y-41900000D01*
G75*
G02*
X67600000Y-41825000I0J75000D01*
G01*
X67600000Y-40500000D01*
G75*
G02*
X67675000Y-40425000I75000J0D01*
G01*
G37*
G36*
G01*
X67175000Y-40425000D02*
X67325000Y-40425000D01*
G75*
G02*
X67400000Y-40500000I0J-75000D01*
G01*
X67400000Y-41825000D01*
G75*
G02*
X67325000Y-41900000I-75000J0D01*
G01*
X67175000Y-41900000D01*
G75*
G02*
X67100000Y-41825000I0J75000D01*
G01*
X67100000Y-40500000D01*
G75*
G02*
X67175000Y-40425000I75000J0D01*
G01*
G37*
G36*
G01*
X65175000Y-39600000D02*
X66500000Y-39600000D01*
G75*
G02*
X66575000Y-39675000I0J-75000D01*
G01*
X66575000Y-39825000D01*
G75*
G02*
X66500000Y-39900000I-75000J0D01*
G01*
X65175000Y-39900000D01*
G75*
G02*
X65100000Y-39825000I0J75000D01*
G01*
X65100000Y-39675000D01*
G75*
G02*
X65175000Y-39600000I75000J0D01*
G01*
G37*
G36*
G01*
X65175000Y-39100000D02*
X66500000Y-39100000D01*
G75*
G02*
X66575000Y-39175000I0J-75000D01*
G01*
X66575000Y-39325000D01*
G75*
G02*
X66500000Y-39400000I-75000J0D01*
G01*
X65175000Y-39400000D01*
G75*
G02*
X65100000Y-39325000I0J75000D01*
G01*
X65100000Y-39175000D01*
G75*
G02*
X65175000Y-39100000I75000J0D01*
G01*
G37*
G36*
G01*
X65175000Y-38600000D02*
X66500000Y-38600000D01*
G75*
G02*
X66575000Y-38675000I0J-75000D01*
G01*
X66575000Y-38825000D01*
G75*
G02*
X66500000Y-38900000I-75000J0D01*
G01*
X65175000Y-38900000D01*
G75*
G02*
X65100000Y-38825000I0J75000D01*
G01*
X65100000Y-38675000D01*
G75*
G02*
X65175000Y-38600000I75000J0D01*
G01*
G37*
G36*
G01*
X65175000Y-38100000D02*
X66500000Y-38100000D01*
G75*
G02*
X66575000Y-38175000I0J-75000D01*
G01*
X66575000Y-38325000D01*
G75*
G02*
X66500000Y-38400000I-75000J0D01*
G01*
X65175000Y-38400000D01*
G75*
G02*
X65100000Y-38325000I0J75000D01*
G01*
X65100000Y-38175000D01*
G75*
G02*
X65175000Y-38100000I75000J0D01*
G01*
G37*
G36*
G01*
X65175000Y-37600000D02*
X66500000Y-37600000D01*
G75*
G02*
X66575000Y-37675000I0J-75000D01*
G01*
X66575000Y-37825000D01*
G75*
G02*
X66500000Y-37900000I-75000J0D01*
G01*
X65175000Y-37900000D01*
G75*
G02*
X65100000Y-37825000I0J75000D01*
G01*
X65100000Y-37675000D01*
G75*
G02*
X65175000Y-37600000I75000J0D01*
G01*
G37*
G36*
G01*
X65175000Y-37100000D02*
X66500000Y-37100000D01*
G75*
G02*
X66575000Y-37175000I0J-75000D01*
G01*
X66575000Y-37325000D01*
G75*
G02*
X66500000Y-37400000I-75000J0D01*
G01*
X65175000Y-37400000D01*
G75*
G02*
X65100000Y-37325000I0J75000D01*
G01*
X65100000Y-37175000D01*
G75*
G02*
X65175000Y-37100000I75000J0D01*
G01*
G37*
G36*
G01*
X65175000Y-36600000D02*
X66500000Y-36600000D01*
G75*
G02*
X66575000Y-36675000I0J-75000D01*
G01*
X66575000Y-36825000D01*
G75*
G02*
X66500000Y-36900000I-75000J0D01*
G01*
X65175000Y-36900000D01*
G75*
G02*
X65100000Y-36825000I0J75000D01*
G01*
X65100000Y-36675000D01*
G75*
G02*
X65175000Y-36600000I75000J0D01*
G01*
G37*
G36*
G01*
X65175000Y-36100000D02*
X66500000Y-36100000D01*
G75*
G02*
X66575000Y-36175000I0J-75000D01*
G01*
X66575000Y-36325000D01*
G75*
G02*
X66500000Y-36400000I-75000J0D01*
G01*
X65175000Y-36400000D01*
G75*
G02*
X65100000Y-36325000I0J75000D01*
G01*
X65100000Y-36175000D01*
G75*
G02*
X65175000Y-36100000I75000J0D01*
G01*
G37*
G36*
G01*
X65175000Y-35600000D02*
X66500000Y-35600000D01*
G75*
G02*
X66575000Y-35675000I0J-75000D01*
G01*
X66575000Y-35825000D01*
G75*
G02*
X66500000Y-35900000I-75000J0D01*
G01*
X65175000Y-35900000D01*
G75*
G02*
X65100000Y-35825000I0J75000D01*
G01*
X65100000Y-35675000D01*
G75*
G02*
X65175000Y-35600000I75000J0D01*
G01*
G37*
G36*
G01*
X65175000Y-35100000D02*
X66500000Y-35100000D01*
G75*
G02*
X66575000Y-35175000I0J-75000D01*
G01*
X66575000Y-35325000D01*
G75*
G02*
X66500000Y-35400000I-75000J0D01*
G01*
X65175000Y-35400000D01*
G75*
G02*
X65100000Y-35325000I0J75000D01*
G01*
X65100000Y-35175000D01*
G75*
G02*
X65175000Y-35100000I75000J0D01*
G01*
G37*
G36*
G01*
X65175000Y-34600000D02*
X66500000Y-34600000D01*
G75*
G02*
X66575000Y-34675000I0J-75000D01*
G01*
X66575000Y-34825000D01*
G75*
G02*
X66500000Y-34900000I-75000J0D01*
G01*
X65175000Y-34900000D01*
G75*
G02*
X65100000Y-34825000I0J75000D01*
G01*
X65100000Y-34675000D01*
G75*
G02*
X65175000Y-34600000I75000J0D01*
G01*
G37*
G36*
G01*
X65175000Y-34100000D02*
X66500000Y-34100000D01*
G75*
G02*
X66575000Y-34175000I0J-75000D01*
G01*
X66575000Y-34325000D01*
G75*
G02*
X66500000Y-34400000I-75000J0D01*
G01*
X65175000Y-34400000D01*
G75*
G02*
X65100000Y-34325000I0J75000D01*
G01*
X65100000Y-34175000D01*
G75*
G02*
X65175000Y-34100000I75000J0D01*
G01*
G37*
G36*
G01*
X67175000Y-32100000D02*
X67325000Y-32100000D01*
G75*
G02*
X67400000Y-32175000I0J-75000D01*
G01*
X67400000Y-33500000D01*
G75*
G02*
X67325000Y-33575000I-75000J0D01*
G01*
X67175000Y-33575000D01*
G75*
G02*
X67100000Y-33500000I0J75000D01*
G01*
X67100000Y-32175000D01*
G75*
G02*
X67175000Y-32100000I75000J0D01*
G01*
G37*
G36*
G01*
X67675000Y-32100000D02*
X67825000Y-32100000D01*
G75*
G02*
X67900000Y-32175000I0J-75000D01*
G01*
X67900000Y-33500000D01*
G75*
G02*
X67825000Y-33575000I-75000J0D01*
G01*
X67675000Y-33575000D01*
G75*
G02*
X67600000Y-33500000I0J75000D01*
G01*
X67600000Y-32175000D01*
G75*
G02*
X67675000Y-32100000I75000J0D01*
G01*
G37*
G36*
G01*
X68175000Y-32100000D02*
X68325000Y-32100000D01*
G75*
G02*
X68400000Y-32175000I0J-75000D01*
G01*
X68400000Y-33500000D01*
G75*
G02*
X68325000Y-33575000I-75000J0D01*
G01*
X68175000Y-33575000D01*
G75*
G02*
X68100000Y-33500000I0J75000D01*
G01*
X68100000Y-32175000D01*
G75*
G02*
X68175000Y-32100000I75000J0D01*
G01*
G37*
G36*
G01*
X68675000Y-32100000D02*
X68825000Y-32100000D01*
G75*
G02*
X68900000Y-32175000I0J-75000D01*
G01*
X68900000Y-33500000D01*
G75*
G02*
X68825000Y-33575000I-75000J0D01*
G01*
X68675000Y-33575000D01*
G75*
G02*
X68600000Y-33500000I0J75000D01*
G01*
X68600000Y-32175000D01*
G75*
G02*
X68675000Y-32100000I75000J0D01*
G01*
G37*
G36*
G01*
X69175000Y-32100000D02*
X69325000Y-32100000D01*
G75*
G02*
X69400000Y-32175000I0J-75000D01*
G01*
X69400000Y-33500000D01*
G75*
G02*
X69325000Y-33575000I-75000J0D01*
G01*
X69175000Y-33575000D01*
G75*
G02*
X69100000Y-33500000I0J75000D01*
G01*
X69100000Y-32175000D01*
G75*
G02*
X69175000Y-32100000I75000J0D01*
G01*
G37*
G36*
G01*
X69675000Y-32100000D02*
X69825000Y-32100000D01*
G75*
G02*
X69900000Y-32175000I0J-75000D01*
G01*
X69900000Y-33500000D01*
G75*
G02*
X69825000Y-33575000I-75000J0D01*
G01*
X69675000Y-33575000D01*
G75*
G02*
X69600000Y-33500000I0J75000D01*
G01*
X69600000Y-32175000D01*
G75*
G02*
X69675000Y-32100000I75000J0D01*
G01*
G37*
G36*
G01*
X70175000Y-32100000D02*
X70325000Y-32100000D01*
G75*
G02*
X70400000Y-32175000I0J-75000D01*
G01*
X70400000Y-33500000D01*
G75*
G02*
X70325000Y-33575000I-75000J0D01*
G01*
X70175000Y-33575000D01*
G75*
G02*
X70100000Y-33500000I0J75000D01*
G01*
X70100000Y-32175000D01*
G75*
G02*
X70175000Y-32100000I75000J0D01*
G01*
G37*
G36*
G01*
X70675000Y-32100000D02*
X70825000Y-32100000D01*
G75*
G02*
X70900000Y-32175000I0J-75000D01*
G01*
X70900000Y-33500000D01*
G75*
G02*
X70825000Y-33575000I-75000J0D01*
G01*
X70675000Y-33575000D01*
G75*
G02*
X70600000Y-33500000I0J75000D01*
G01*
X70600000Y-32175000D01*
G75*
G02*
X70675000Y-32100000I75000J0D01*
G01*
G37*
G36*
G01*
X71175000Y-32100000D02*
X71325000Y-32100000D01*
G75*
G02*
X71400000Y-32175000I0J-75000D01*
G01*
X71400000Y-33500000D01*
G75*
G02*
X71325000Y-33575000I-75000J0D01*
G01*
X71175000Y-33575000D01*
G75*
G02*
X71100000Y-33500000I0J75000D01*
G01*
X71100000Y-32175000D01*
G75*
G02*
X71175000Y-32100000I75000J0D01*
G01*
G37*
G36*
G01*
X71675000Y-32100000D02*
X71825000Y-32100000D01*
G75*
G02*
X71900000Y-32175000I0J-75000D01*
G01*
X71900000Y-33500000D01*
G75*
G02*
X71825000Y-33575000I-75000J0D01*
G01*
X71675000Y-33575000D01*
G75*
G02*
X71600000Y-33500000I0J75000D01*
G01*
X71600000Y-32175000D01*
G75*
G02*
X71675000Y-32100000I75000J0D01*
G01*
G37*
G36*
G01*
X72175000Y-32100000D02*
X72325000Y-32100000D01*
G75*
G02*
X72400000Y-32175000I0J-75000D01*
G01*
X72400000Y-33500000D01*
G75*
G02*
X72325000Y-33575000I-75000J0D01*
G01*
X72175000Y-33575000D01*
G75*
G02*
X72100000Y-33500000I0J75000D01*
G01*
X72100000Y-32175000D01*
G75*
G02*
X72175000Y-32100000I75000J0D01*
G01*
G37*
G36*
G01*
X72675000Y-32100000D02*
X72825000Y-32100000D01*
G75*
G02*
X72900000Y-32175000I0J-75000D01*
G01*
X72900000Y-33500000D01*
G75*
G02*
X72825000Y-33575000I-75000J0D01*
G01*
X72675000Y-33575000D01*
G75*
G02*
X72600000Y-33500000I0J75000D01*
G01*
X72600000Y-32175000D01*
G75*
G02*
X72675000Y-32100000I75000J0D01*
G01*
G37*
%TD*%
%TO.C,C54*%
G36*
G01*
X16325000Y-2237500D02*
X16325000Y-1762500D01*
G75*
G02*
X16562500Y-1525000I237500J0D01*
G01*
X17162500Y-1525000D01*
G75*
G02*
X17400000Y-1762500I0J-237500D01*
G01*
X17400000Y-2237500D01*
G75*
G02*
X17162500Y-2475000I-237500J0D01*
G01*
X16562500Y-2475000D01*
G75*
G02*
X16325000Y-2237500I0J237500D01*
G01*
G37*
G36*
G01*
X14600000Y-2237500D02*
X14600000Y-1762500D01*
G75*
G02*
X14837500Y-1525000I237500J0D01*
G01*
X15437500Y-1525000D01*
G75*
G02*
X15675000Y-1762500I0J-237500D01*
G01*
X15675000Y-2237500D01*
G75*
G02*
X15437500Y-2475000I-237500J0D01*
G01*
X14837500Y-2475000D01*
G75*
G02*
X14600000Y-2237500I0J237500D01*
G01*
G37*
%TD*%
%TO.C,C60*%
G36*
G01*
X52950000Y-37550000D02*
X52950000Y-36450000D01*
G75*
G02*
X53200000Y-36200000I250000J0D01*
G01*
X56200000Y-36200000D01*
G75*
G02*
X56450000Y-36450000I0J-250000D01*
G01*
X56450000Y-37550000D01*
G75*
G02*
X56200000Y-37800000I-250000J0D01*
G01*
X53200000Y-37800000D01*
G75*
G02*
X52950000Y-37550000I0J250000D01*
G01*
G37*
G36*
G01*
X47550000Y-37550000D02*
X47550000Y-36450000D01*
G75*
G02*
X47800000Y-36200000I250000J0D01*
G01*
X50800000Y-36200000D01*
G75*
G02*
X51050000Y-36450000I0J-250000D01*
G01*
X51050000Y-37550000D01*
G75*
G02*
X50800000Y-37800000I-250000J0D01*
G01*
X47800000Y-37800000D01*
G75*
G02*
X47550000Y-37550000I0J250000D01*
G01*
G37*
%TD*%
%TO.C,C58*%
G36*
G01*
X47450000Y-60950000D02*
X48550000Y-60950000D01*
G75*
G02*
X48800000Y-61200000I0J-250000D01*
G01*
X48800000Y-64200000D01*
G75*
G02*
X48550000Y-64450000I-250000J0D01*
G01*
X47450000Y-64450000D01*
G75*
G02*
X47200000Y-64200000I0J250000D01*
G01*
X47200000Y-61200000D01*
G75*
G02*
X47450000Y-60950000I250000J0D01*
G01*
G37*
G36*
G01*
X47450000Y-55550000D02*
X48550000Y-55550000D01*
G75*
G02*
X48800000Y-55800000I0J-250000D01*
G01*
X48800000Y-58800000D01*
G75*
G02*
X48550000Y-59050000I-250000J0D01*
G01*
X47450000Y-59050000D01*
G75*
G02*
X47200000Y-58800000I0J250000D01*
G01*
X47200000Y-55800000D01*
G75*
G02*
X47450000Y-55550000I250000J0D01*
G01*
G37*
%TD*%
%TO.C,C45*%
G36*
G01*
X10750000Y-108750000D02*
X10750000Y-109850000D01*
G75*
G02*
X10500000Y-110100000I-250000J0D01*
G01*
X7500000Y-110100000D01*
G75*
G02*
X7250000Y-109850000I0J250000D01*
G01*
X7250000Y-108750000D01*
G75*
G02*
X7500000Y-108500000I250000J0D01*
G01*
X10500000Y-108500000D01*
G75*
G02*
X10750000Y-108750000I0J-250000D01*
G01*
G37*
G36*
G01*
X5350000Y-108750000D02*
X5350000Y-109850000D01*
G75*
G02*
X5100000Y-110100000I-250000J0D01*
G01*
X2100000Y-110100000D01*
G75*
G02*
X1850000Y-109850000I0J250000D01*
G01*
X1850000Y-108750000D01*
G75*
G02*
X2100000Y-108500000I250000J0D01*
G01*
X5100000Y-108500000D01*
G75*
G02*
X5350000Y-108750000I0J-250000D01*
G01*
G37*
%TD*%
%TO.C,C33*%
G36*
G01*
X13450000Y-30950000D02*
X14550000Y-30950000D01*
G75*
G02*
X14800000Y-31200000I0J-250000D01*
G01*
X14800000Y-34200000D01*
G75*
G02*
X14550000Y-34450000I-250000J0D01*
G01*
X13450000Y-34450000D01*
G75*
G02*
X13200000Y-34200000I0J250000D01*
G01*
X13200000Y-31200000D01*
G75*
G02*
X13450000Y-30950000I250000J0D01*
G01*
G37*
G36*
G01*
X13450000Y-25550000D02*
X14550000Y-25550000D01*
G75*
G02*
X14800000Y-25800000I0J-250000D01*
G01*
X14800000Y-28800000D01*
G75*
G02*
X14550000Y-29050000I-250000J0D01*
G01*
X13450000Y-29050000D01*
G75*
G02*
X13200000Y-28800000I0J250000D01*
G01*
X13200000Y-25800000D01*
G75*
G02*
X13450000Y-25550000I250000J0D01*
G01*
G37*
%TD*%
%TO.C,C27*%
G36*
G01*
X22950000Y-7550000D02*
X22950000Y-6450000D01*
G75*
G02*
X23200000Y-6200000I250000J0D01*
G01*
X26200000Y-6200000D01*
G75*
G02*
X26450000Y-6450000I0J-250000D01*
G01*
X26450000Y-7550000D01*
G75*
G02*
X26200000Y-7800000I-250000J0D01*
G01*
X23200000Y-7800000D01*
G75*
G02*
X22950000Y-7550000I0J250000D01*
G01*
G37*
G36*
G01*
X17550000Y-7550000D02*
X17550000Y-6450000D01*
G75*
G02*
X17800000Y-6200000I250000J0D01*
G01*
X20800000Y-6200000D01*
G75*
G02*
X21050000Y-6450000I0J-250000D01*
G01*
X21050000Y-7550000D01*
G75*
G02*
X20800000Y-7800000I-250000J0D01*
G01*
X17800000Y-7800000D01*
G75*
G02*
X17550000Y-7550000I0J250000D01*
G01*
G37*
%TD*%
%TO.C,C25*%
G36*
G01*
X119000000Y-100000000D02*
X119000000Y-98000000D01*
G75*
G02*
X119250000Y-97750000I250000J0D01*
G01*
X123150000Y-97750000D01*
G75*
G02*
X123400000Y-98000000I0J-250000D01*
G01*
X123400000Y-100000000D01*
G75*
G02*
X123150000Y-100250000I-250000J0D01*
G01*
X119250000Y-100250000D01*
G75*
G02*
X119000000Y-100000000I0J250000D01*
G01*
G37*
G36*
G01*
X110600000Y-100000000D02*
X110600000Y-98000000D01*
G75*
G02*
X110850000Y-97750000I250000J0D01*
G01*
X114750000Y-97750000D01*
G75*
G02*
X115000000Y-98000000I0J-250000D01*
G01*
X115000000Y-100000000D01*
G75*
G02*
X114750000Y-100250000I-250000J0D01*
G01*
X110850000Y-100250000D01*
G75*
G02*
X110600000Y-100000000I0J250000D01*
G01*
G37*
%TD*%
%TO.C,C22*%
G36*
G01*
X97550000Y-110350000D02*
X96450000Y-110350000D01*
G75*
G02*
X96200000Y-110100000I0J250000D01*
G01*
X96200000Y-107100000D01*
G75*
G02*
X96450000Y-106850000I250000J0D01*
G01*
X97550000Y-106850000D01*
G75*
G02*
X97800000Y-107100000I0J-250000D01*
G01*
X97800000Y-110100000D01*
G75*
G02*
X97550000Y-110350000I-250000J0D01*
G01*
G37*
G36*
G01*
X97550000Y-115750000D02*
X96450000Y-115750000D01*
G75*
G02*
X96200000Y-115500000I0J250000D01*
G01*
X96200000Y-112500000D01*
G75*
G02*
X96450000Y-112250000I250000J0D01*
G01*
X97550000Y-112250000D01*
G75*
G02*
X97800000Y-112500000I0J-250000D01*
G01*
X97800000Y-115500000D01*
G75*
G02*
X97550000Y-115750000I-250000J0D01*
G01*
G37*
%TD*%
%TO.C,C21*%
G36*
G01*
X32200000Y-30000000D02*
X32200000Y-28000000D01*
G75*
G02*
X32450000Y-27750000I250000J0D01*
G01*
X36350000Y-27750000D01*
G75*
G02*
X36600000Y-28000000I0J-250000D01*
G01*
X36600000Y-30000000D01*
G75*
G02*
X36350000Y-30250000I-250000J0D01*
G01*
X32450000Y-30250000D01*
G75*
G02*
X32200000Y-30000000I0J250000D01*
G01*
G37*
G36*
G01*
X23800000Y-30000000D02*
X23800000Y-28000000D01*
G75*
G02*
X24050000Y-27750000I250000J0D01*
G01*
X27950000Y-27750000D01*
G75*
G02*
X28200000Y-28000000I0J-250000D01*
G01*
X28200000Y-30000000D01*
G75*
G02*
X27950000Y-30250000I-250000J0D01*
G01*
X24050000Y-30250000D01*
G75*
G02*
X23800000Y-30000000I0J250000D01*
G01*
G37*
%TD*%
%TO.C,C19*%
G36*
G01*
X35000000Y-45000000D02*
X35000000Y-43000000D01*
G75*
G02*
X35250000Y-42750000I250000J0D01*
G01*
X39150000Y-42750000D01*
G75*
G02*
X39400000Y-43000000I0J-250000D01*
G01*
X39400000Y-45000000D01*
G75*
G02*
X39150000Y-45250000I-250000J0D01*
G01*
X35250000Y-45250000D01*
G75*
G02*
X35000000Y-45000000I0J250000D01*
G01*
G37*
G36*
G01*
X26600000Y-45000000D02*
X26600000Y-43000000D01*
G75*
G02*
X26850000Y-42750000I250000J0D01*
G01*
X30750000Y-42750000D01*
G75*
G02*
X31000000Y-43000000I0J-250000D01*
G01*
X31000000Y-45000000D01*
G75*
G02*
X30750000Y-45250000I-250000J0D01*
G01*
X26850000Y-45250000D01*
G75*
G02*
X26600000Y-45000000I0J250000D01*
G01*
G37*
%TD*%
%TO.C,C16*%
G36*
G01*
X11550000Y-56050000D02*
X10450000Y-56050000D01*
G75*
G02*
X10200000Y-55800000I0J250000D01*
G01*
X10200000Y-52800000D01*
G75*
G02*
X10450000Y-52550000I250000J0D01*
G01*
X11550000Y-52550000D01*
G75*
G02*
X11800000Y-52800000I0J-250000D01*
G01*
X11800000Y-55800000D01*
G75*
G02*
X11550000Y-56050000I-250000J0D01*
G01*
G37*
G36*
G01*
X11550000Y-61450000D02*
X10450000Y-61450000D01*
G75*
G02*
X10200000Y-61200000I0J250000D01*
G01*
X10200000Y-58200000D01*
G75*
G02*
X10450000Y-57950000I250000J0D01*
G01*
X11550000Y-57950000D01*
G75*
G02*
X11800000Y-58200000I0J-250000D01*
G01*
X11800000Y-61200000D01*
G75*
G02*
X11550000Y-61450000I-250000J0D01*
G01*
G37*
%TD*%
%TO.C,C12*%
G36*
G01*
X134950000Y-107550000D02*
X134950000Y-106450000D01*
G75*
G02*
X135200000Y-106200000I250000J0D01*
G01*
X138200000Y-106200000D01*
G75*
G02*
X138450000Y-106450000I0J-250000D01*
G01*
X138450000Y-107550000D01*
G75*
G02*
X138200000Y-107800000I-250000J0D01*
G01*
X135200000Y-107800000D01*
G75*
G02*
X134950000Y-107550000I0J250000D01*
G01*
G37*
G36*
G01*
X129550000Y-107550000D02*
X129550000Y-106450000D01*
G75*
G02*
X129800000Y-106200000I250000J0D01*
G01*
X132800000Y-106200000D01*
G75*
G02*
X133050000Y-106450000I0J-250000D01*
G01*
X133050000Y-107550000D01*
G75*
G02*
X132800000Y-107800000I-250000J0D01*
G01*
X129800000Y-107800000D01*
G75*
G02*
X129550000Y-107550000I0J250000D01*
G01*
G37*
%TD*%
D12*
%TO.C,Q3*%
X10460000Y-2000000D03*
D13*
X13000000Y-2000000D03*
%TD*%
D14*
%TO.C,L4*%
X51000000Y-43050000D03*
X51000000Y-52950000D03*
%TD*%
%TO.C,L3*%
X117000000Y-107050000D03*
X117000000Y-116950000D03*
%TD*%
%TO.C,L2*%
X14000000Y-37050000D03*
X14000000Y-46950000D03*
%TD*%
%TO.C,L1*%
X32000000Y-52050000D03*
X32000000Y-61950000D03*
%TD*%
D15*
%TO.C,J6*%
X120000000Y-32950000D03*
X119900000Y-40950000D03*
D16*
X109300000Y-42600000D03*
X109300000Y-33800000D03*
X109300000Y-34900000D03*
X109300000Y-36000000D03*
X109300000Y-37100000D03*
X109300000Y-38200000D03*
X109300000Y-39300000D03*
X109300000Y-40400000D03*
X109300000Y-41500000D03*
D17*
X110000000Y-44000000D03*
X110000000Y-29150000D03*
D18*
X119600000Y-28250000D03*
X119600000Y-43750000D03*
%TD*%
D19*
%TO.C,Y1*%
X65750000Y-24500000D03*
X74250000Y-24500000D03*
%TD*%
D20*
%TO.C,U13*%
X42850000Y-26700000D03*
X42850000Y-31300000D03*
X42850000Y-29000000D03*
D21*
X49150000Y-29000000D03*
%TD*%
%TO.C,U17*%
G36*
G01*
X80930000Y-69625000D02*
X81230000Y-69625000D01*
G75*
G02*
X81380000Y-69775000I0J-150000D01*
G01*
X81380000Y-71525000D01*
G75*
G02*
X81230000Y-71675000I-150000J0D01*
G01*
X80930000Y-71675000D01*
G75*
G02*
X80780000Y-71525000I0J150000D01*
G01*
X80780000Y-69775000D01*
G75*
G02*
X80930000Y-69625000I150000J0D01*
G01*
G37*
G36*
G01*
X79660000Y-69625000D02*
X79960000Y-69625000D01*
G75*
G02*
X80110000Y-69775000I0J-150000D01*
G01*
X80110000Y-71525000D01*
G75*
G02*
X79960000Y-71675000I-150000J0D01*
G01*
X79660000Y-71675000D01*
G75*
G02*
X79510000Y-71525000I0J150000D01*
G01*
X79510000Y-69775000D01*
G75*
G02*
X79660000Y-69625000I150000J0D01*
G01*
G37*
G36*
G01*
X78390000Y-69625000D02*
X78690000Y-69625000D01*
G75*
G02*
X78840000Y-69775000I0J-150000D01*
G01*
X78840000Y-71525000D01*
G75*
G02*
X78690000Y-71675000I-150000J0D01*
G01*
X78390000Y-71675000D01*
G75*
G02*
X78240000Y-71525000I0J150000D01*
G01*
X78240000Y-69775000D01*
G75*
G02*
X78390000Y-69625000I150000J0D01*
G01*
G37*
G36*
G01*
X77120000Y-69625000D02*
X77420000Y-69625000D01*
G75*
G02*
X77570000Y-69775000I0J-150000D01*
G01*
X77570000Y-71525000D01*
G75*
G02*
X77420000Y-71675000I-150000J0D01*
G01*
X77120000Y-71675000D01*
G75*
G02*
X76970000Y-71525000I0J150000D01*
G01*
X76970000Y-69775000D01*
G75*
G02*
X77120000Y-69625000I150000J0D01*
G01*
G37*
G36*
G01*
X75850000Y-69625000D02*
X76150000Y-69625000D01*
G75*
G02*
X76300000Y-69775000I0J-150000D01*
G01*
X76300000Y-71525000D01*
G75*
G02*
X76150000Y-71675000I-150000J0D01*
G01*
X75850000Y-71675000D01*
G75*
G02*
X75700000Y-71525000I0J150000D01*
G01*
X75700000Y-69775000D01*
G75*
G02*
X75850000Y-69625000I150000J0D01*
G01*
G37*
G36*
G01*
X74580000Y-69625000D02*
X74880000Y-69625000D01*
G75*
G02*
X75030000Y-69775000I0J-150000D01*
G01*
X75030000Y-71525000D01*
G75*
G02*
X74880000Y-71675000I-150000J0D01*
G01*
X74580000Y-71675000D01*
G75*
G02*
X74430000Y-71525000I0J150000D01*
G01*
X74430000Y-69775000D01*
G75*
G02*
X74580000Y-69625000I150000J0D01*
G01*
G37*
G36*
G01*
X73310000Y-69625000D02*
X73610000Y-69625000D01*
G75*
G02*
X73760000Y-69775000I0J-150000D01*
G01*
X73760000Y-71525000D01*
G75*
G02*
X73610000Y-71675000I-150000J0D01*
G01*
X73310000Y-71675000D01*
G75*
G02*
X73160000Y-71525000I0J150000D01*
G01*
X73160000Y-69775000D01*
G75*
G02*
X73310000Y-69625000I150000J0D01*
G01*
G37*
G36*
G01*
X72040000Y-69625000D02*
X72340000Y-69625000D01*
G75*
G02*
X72490000Y-69775000I0J-150000D01*
G01*
X72490000Y-71525000D01*
G75*
G02*
X72340000Y-71675000I-150000J0D01*
G01*
X72040000Y-71675000D01*
G75*
G02*
X71890000Y-71525000I0J150000D01*
G01*
X71890000Y-69775000D01*
G75*
G02*
X72040000Y-69625000I150000J0D01*
G01*
G37*
G36*
G01*
X70770000Y-69625000D02*
X71070000Y-69625000D01*
G75*
G02*
X71220000Y-69775000I0J-150000D01*
G01*
X71220000Y-71525000D01*
G75*
G02*
X71070000Y-71675000I-150000J0D01*
G01*
X70770000Y-71675000D01*
G75*
G02*
X70620000Y-71525000I0J150000D01*
G01*
X70620000Y-69775000D01*
G75*
G02*
X70770000Y-69625000I150000J0D01*
G01*
G37*
G36*
G01*
X70770000Y-60325000D02*
X71070000Y-60325000D01*
G75*
G02*
X71220000Y-60475000I0J-150000D01*
G01*
X71220000Y-62225000D01*
G75*
G02*
X71070000Y-62375000I-150000J0D01*
G01*
X70770000Y-62375000D01*
G75*
G02*
X70620000Y-62225000I0J150000D01*
G01*
X70620000Y-60475000D01*
G75*
G02*
X70770000Y-60325000I150000J0D01*
G01*
G37*
G36*
G01*
X72040000Y-60325000D02*
X72340000Y-60325000D01*
G75*
G02*
X72490000Y-60475000I0J-150000D01*
G01*
X72490000Y-62225000D01*
G75*
G02*
X72340000Y-62375000I-150000J0D01*
G01*
X72040000Y-62375000D01*
G75*
G02*
X71890000Y-62225000I0J150000D01*
G01*
X71890000Y-60475000D01*
G75*
G02*
X72040000Y-60325000I150000J0D01*
G01*
G37*
G36*
G01*
X73310000Y-60325000D02*
X73610000Y-60325000D01*
G75*
G02*
X73760000Y-60475000I0J-150000D01*
G01*
X73760000Y-62225000D01*
G75*
G02*
X73610000Y-62375000I-150000J0D01*
G01*
X73310000Y-62375000D01*
G75*
G02*
X73160000Y-62225000I0J150000D01*
G01*
X73160000Y-60475000D01*
G75*
G02*
X73310000Y-60325000I150000J0D01*
G01*
G37*
G36*
G01*
X74580000Y-60325000D02*
X74880000Y-60325000D01*
G75*
G02*
X75030000Y-60475000I0J-150000D01*
G01*
X75030000Y-62225000D01*
G75*
G02*
X74880000Y-62375000I-150000J0D01*
G01*
X74580000Y-62375000D01*
G75*
G02*
X74430000Y-62225000I0J150000D01*
G01*
X74430000Y-60475000D01*
G75*
G02*
X74580000Y-60325000I150000J0D01*
G01*
G37*
G36*
G01*
X75850000Y-60325000D02*
X76150000Y-60325000D01*
G75*
G02*
X76300000Y-60475000I0J-150000D01*
G01*
X76300000Y-62225000D01*
G75*
G02*
X76150000Y-62375000I-150000J0D01*
G01*
X75850000Y-62375000D01*
G75*
G02*
X75700000Y-62225000I0J150000D01*
G01*
X75700000Y-60475000D01*
G75*
G02*
X75850000Y-60325000I150000J0D01*
G01*
G37*
G36*
G01*
X77120000Y-60325000D02*
X77420000Y-60325000D01*
G75*
G02*
X77570000Y-60475000I0J-150000D01*
G01*
X77570000Y-62225000D01*
G75*
G02*
X77420000Y-62375000I-150000J0D01*
G01*
X77120000Y-62375000D01*
G75*
G02*
X76970000Y-62225000I0J150000D01*
G01*
X76970000Y-60475000D01*
G75*
G02*
X77120000Y-60325000I150000J0D01*
G01*
G37*
G36*
G01*
X78390000Y-60325000D02*
X78690000Y-60325000D01*
G75*
G02*
X78840000Y-60475000I0J-150000D01*
G01*
X78840000Y-62225000D01*
G75*
G02*
X78690000Y-62375000I-150000J0D01*
G01*
X78390000Y-62375000D01*
G75*
G02*
X78240000Y-62225000I0J150000D01*
G01*
X78240000Y-60475000D01*
G75*
G02*
X78390000Y-60325000I150000J0D01*
G01*
G37*
G36*
G01*
X79660000Y-60325000D02*
X79960000Y-60325000D01*
G75*
G02*
X80110000Y-60475000I0J-150000D01*
G01*
X80110000Y-62225000D01*
G75*
G02*
X79960000Y-62375000I-150000J0D01*
G01*
X79660000Y-62375000D01*
G75*
G02*
X79510000Y-62225000I0J150000D01*
G01*
X79510000Y-60475000D01*
G75*
G02*
X79660000Y-60325000I150000J0D01*
G01*
G37*
G36*
G01*
X80930000Y-60325000D02*
X81230000Y-60325000D01*
G75*
G02*
X81380000Y-60475000I0J-150000D01*
G01*
X81380000Y-62225000D01*
G75*
G02*
X81230000Y-62375000I-150000J0D01*
G01*
X80930000Y-62375000D01*
G75*
G02*
X80780000Y-62225000I0J150000D01*
G01*
X80780000Y-60475000D01*
G75*
G02*
X80930000Y-60325000I150000J0D01*
G01*
G37*
%TD*%
%TO.C,U16*%
G36*
G01*
X98930000Y-69625000D02*
X99230000Y-69625000D01*
G75*
G02*
X99380000Y-69775000I0J-150000D01*
G01*
X99380000Y-71525000D01*
G75*
G02*
X99230000Y-71675000I-150000J0D01*
G01*
X98930000Y-71675000D01*
G75*
G02*
X98780000Y-71525000I0J150000D01*
G01*
X98780000Y-69775000D01*
G75*
G02*
X98930000Y-69625000I150000J0D01*
G01*
G37*
G36*
G01*
X97660000Y-69625000D02*
X97960000Y-69625000D01*
G75*
G02*
X98110000Y-69775000I0J-150000D01*
G01*
X98110000Y-71525000D01*
G75*
G02*
X97960000Y-71675000I-150000J0D01*
G01*
X97660000Y-71675000D01*
G75*
G02*
X97510000Y-71525000I0J150000D01*
G01*
X97510000Y-69775000D01*
G75*
G02*
X97660000Y-69625000I150000J0D01*
G01*
G37*
G36*
G01*
X96390000Y-69625000D02*
X96690000Y-69625000D01*
G75*
G02*
X96840000Y-69775000I0J-150000D01*
G01*
X96840000Y-71525000D01*
G75*
G02*
X96690000Y-71675000I-150000J0D01*
G01*
X96390000Y-71675000D01*
G75*
G02*
X96240000Y-71525000I0J150000D01*
G01*
X96240000Y-69775000D01*
G75*
G02*
X96390000Y-69625000I150000J0D01*
G01*
G37*
G36*
G01*
X95120000Y-69625000D02*
X95420000Y-69625000D01*
G75*
G02*
X95570000Y-69775000I0J-150000D01*
G01*
X95570000Y-71525000D01*
G75*
G02*
X95420000Y-71675000I-150000J0D01*
G01*
X95120000Y-71675000D01*
G75*
G02*
X94970000Y-71525000I0J150000D01*
G01*
X94970000Y-69775000D01*
G75*
G02*
X95120000Y-69625000I150000J0D01*
G01*
G37*
G36*
G01*
X93850000Y-69625000D02*
X94150000Y-69625000D01*
G75*
G02*
X94300000Y-69775000I0J-150000D01*
G01*
X94300000Y-71525000D01*
G75*
G02*
X94150000Y-71675000I-150000J0D01*
G01*
X93850000Y-71675000D01*
G75*
G02*
X93700000Y-71525000I0J150000D01*
G01*
X93700000Y-69775000D01*
G75*
G02*
X93850000Y-69625000I150000J0D01*
G01*
G37*
G36*
G01*
X92580000Y-69625000D02*
X92880000Y-69625000D01*
G75*
G02*
X93030000Y-69775000I0J-150000D01*
G01*
X93030000Y-71525000D01*
G75*
G02*
X92880000Y-71675000I-150000J0D01*
G01*
X92580000Y-71675000D01*
G75*
G02*
X92430000Y-71525000I0J150000D01*
G01*
X92430000Y-69775000D01*
G75*
G02*
X92580000Y-69625000I150000J0D01*
G01*
G37*
G36*
G01*
X91310000Y-69625000D02*
X91610000Y-69625000D01*
G75*
G02*
X91760000Y-69775000I0J-150000D01*
G01*
X91760000Y-71525000D01*
G75*
G02*
X91610000Y-71675000I-150000J0D01*
G01*
X91310000Y-71675000D01*
G75*
G02*
X91160000Y-71525000I0J150000D01*
G01*
X91160000Y-69775000D01*
G75*
G02*
X91310000Y-69625000I150000J0D01*
G01*
G37*
G36*
G01*
X90040000Y-69625000D02*
X90340000Y-69625000D01*
G75*
G02*
X90490000Y-69775000I0J-150000D01*
G01*
X90490000Y-71525000D01*
G75*
G02*
X90340000Y-71675000I-150000J0D01*
G01*
X90040000Y-71675000D01*
G75*
G02*
X89890000Y-71525000I0J150000D01*
G01*
X89890000Y-69775000D01*
G75*
G02*
X90040000Y-69625000I150000J0D01*
G01*
G37*
G36*
G01*
X88770000Y-69625000D02*
X89070000Y-69625000D01*
G75*
G02*
X89220000Y-69775000I0J-150000D01*
G01*
X89220000Y-71525000D01*
G75*
G02*
X89070000Y-71675000I-150000J0D01*
G01*
X88770000Y-71675000D01*
G75*
G02*
X88620000Y-71525000I0J150000D01*
G01*
X88620000Y-69775000D01*
G75*
G02*
X88770000Y-69625000I150000J0D01*
G01*
G37*
G36*
G01*
X88770000Y-60325000D02*
X89070000Y-60325000D01*
G75*
G02*
X89220000Y-60475000I0J-150000D01*
G01*
X89220000Y-62225000D01*
G75*
G02*
X89070000Y-62375000I-150000J0D01*
G01*
X88770000Y-62375000D01*
G75*
G02*
X88620000Y-62225000I0J150000D01*
G01*
X88620000Y-60475000D01*
G75*
G02*
X88770000Y-60325000I150000J0D01*
G01*
G37*
G36*
G01*
X90040000Y-60325000D02*
X90340000Y-60325000D01*
G75*
G02*
X90490000Y-60475000I0J-150000D01*
G01*
X90490000Y-62225000D01*
G75*
G02*
X90340000Y-62375000I-150000J0D01*
G01*
X90040000Y-62375000D01*
G75*
G02*
X89890000Y-62225000I0J150000D01*
G01*
X89890000Y-60475000D01*
G75*
G02*
X90040000Y-60325000I150000J0D01*
G01*
G37*
G36*
G01*
X91310000Y-60325000D02*
X91610000Y-60325000D01*
G75*
G02*
X91760000Y-60475000I0J-150000D01*
G01*
X91760000Y-62225000D01*
G75*
G02*
X91610000Y-62375000I-150000J0D01*
G01*
X91310000Y-62375000D01*
G75*
G02*
X91160000Y-62225000I0J150000D01*
G01*
X91160000Y-60475000D01*
G75*
G02*
X91310000Y-60325000I150000J0D01*
G01*
G37*
G36*
G01*
X92580000Y-60325000D02*
X92880000Y-60325000D01*
G75*
G02*
X93030000Y-60475000I0J-150000D01*
G01*
X93030000Y-62225000D01*
G75*
G02*
X92880000Y-62375000I-150000J0D01*
G01*
X92580000Y-62375000D01*
G75*
G02*
X92430000Y-62225000I0J150000D01*
G01*
X92430000Y-60475000D01*
G75*
G02*
X92580000Y-60325000I150000J0D01*
G01*
G37*
G36*
G01*
X93850000Y-60325000D02*
X94150000Y-60325000D01*
G75*
G02*
X94300000Y-60475000I0J-150000D01*
G01*
X94300000Y-62225000D01*
G75*
G02*
X94150000Y-62375000I-150000J0D01*
G01*
X93850000Y-62375000D01*
G75*
G02*
X93700000Y-62225000I0J150000D01*
G01*
X93700000Y-60475000D01*
G75*
G02*
X93850000Y-60325000I150000J0D01*
G01*
G37*
G36*
G01*
X95120000Y-60325000D02*
X95420000Y-60325000D01*
G75*
G02*
X95570000Y-60475000I0J-150000D01*
G01*
X95570000Y-62225000D01*
G75*
G02*
X95420000Y-62375000I-150000J0D01*
G01*
X95120000Y-62375000D01*
G75*
G02*
X94970000Y-62225000I0J150000D01*
G01*
X94970000Y-60475000D01*
G75*
G02*
X95120000Y-60325000I150000J0D01*
G01*
G37*
G36*
G01*
X96390000Y-60325000D02*
X96690000Y-60325000D01*
G75*
G02*
X96840000Y-60475000I0J-150000D01*
G01*
X96840000Y-62225000D01*
G75*
G02*
X96690000Y-62375000I-150000J0D01*
G01*
X96390000Y-62375000D01*
G75*
G02*
X96240000Y-62225000I0J150000D01*
G01*
X96240000Y-60475000D01*
G75*
G02*
X96390000Y-60325000I150000J0D01*
G01*
G37*
G36*
G01*
X97660000Y-60325000D02*
X97960000Y-60325000D01*
G75*
G02*
X98110000Y-60475000I0J-150000D01*
G01*
X98110000Y-62225000D01*
G75*
G02*
X97960000Y-62375000I-150000J0D01*
G01*
X97660000Y-62375000D01*
G75*
G02*
X97510000Y-62225000I0J150000D01*
G01*
X97510000Y-60475000D01*
G75*
G02*
X97660000Y-60325000I150000J0D01*
G01*
G37*
G36*
G01*
X98930000Y-60325000D02*
X99230000Y-60325000D01*
G75*
G02*
X99380000Y-60475000I0J-150000D01*
G01*
X99380000Y-62225000D01*
G75*
G02*
X99230000Y-62375000I-150000J0D01*
G01*
X98930000Y-62375000D01*
G75*
G02*
X98780000Y-62225000I0J150000D01*
G01*
X98780000Y-60475000D01*
G75*
G02*
X98930000Y-60325000I150000J0D01*
G01*
G37*
%TD*%
%TO.C,U15*%
G36*
G01*
X83625000Y-47705000D02*
X83625000Y-47405000D01*
G75*
G02*
X83775000Y-47255000I150000J0D01*
G01*
X85525000Y-47255000D01*
G75*
G02*
X85675000Y-47405000I0J-150000D01*
G01*
X85675000Y-47705000D01*
G75*
G02*
X85525000Y-47855000I-150000J0D01*
G01*
X83775000Y-47855000D01*
G75*
G02*
X83625000Y-47705000I0J150000D01*
G01*
G37*
G36*
G01*
X83625000Y-48975000D02*
X83625000Y-48675000D01*
G75*
G02*
X83775000Y-48525000I150000J0D01*
G01*
X85525000Y-48525000D01*
G75*
G02*
X85675000Y-48675000I0J-150000D01*
G01*
X85675000Y-48975000D01*
G75*
G02*
X85525000Y-49125000I-150000J0D01*
G01*
X83775000Y-49125000D01*
G75*
G02*
X83625000Y-48975000I0J150000D01*
G01*
G37*
G36*
G01*
X83625000Y-50245000D02*
X83625000Y-49945000D01*
G75*
G02*
X83775000Y-49795000I150000J0D01*
G01*
X85525000Y-49795000D01*
G75*
G02*
X85675000Y-49945000I0J-150000D01*
G01*
X85675000Y-50245000D01*
G75*
G02*
X85525000Y-50395000I-150000J0D01*
G01*
X83775000Y-50395000D01*
G75*
G02*
X83625000Y-50245000I0J150000D01*
G01*
G37*
G36*
G01*
X83625000Y-51515000D02*
X83625000Y-51215000D01*
G75*
G02*
X83775000Y-51065000I150000J0D01*
G01*
X85525000Y-51065000D01*
G75*
G02*
X85675000Y-51215000I0J-150000D01*
G01*
X85675000Y-51515000D01*
G75*
G02*
X85525000Y-51665000I-150000J0D01*
G01*
X83775000Y-51665000D01*
G75*
G02*
X83625000Y-51515000I0J150000D01*
G01*
G37*
G36*
G01*
X83625000Y-52785000D02*
X83625000Y-52485000D01*
G75*
G02*
X83775000Y-52335000I150000J0D01*
G01*
X85525000Y-52335000D01*
G75*
G02*
X85675000Y-52485000I0J-150000D01*
G01*
X85675000Y-52785000D01*
G75*
G02*
X85525000Y-52935000I-150000J0D01*
G01*
X83775000Y-52935000D01*
G75*
G02*
X83625000Y-52785000I0J150000D01*
G01*
G37*
G36*
G01*
X83625000Y-54055000D02*
X83625000Y-53755000D01*
G75*
G02*
X83775000Y-53605000I150000J0D01*
G01*
X85525000Y-53605000D01*
G75*
G02*
X85675000Y-53755000I0J-150000D01*
G01*
X85675000Y-54055000D01*
G75*
G02*
X85525000Y-54205000I-150000J0D01*
G01*
X83775000Y-54205000D01*
G75*
G02*
X83625000Y-54055000I0J150000D01*
G01*
G37*
G36*
G01*
X83625000Y-55325000D02*
X83625000Y-55025000D01*
G75*
G02*
X83775000Y-54875000I150000J0D01*
G01*
X85525000Y-54875000D01*
G75*
G02*
X85675000Y-55025000I0J-150000D01*
G01*
X85675000Y-55325000D01*
G75*
G02*
X85525000Y-55475000I-150000J0D01*
G01*
X83775000Y-55475000D01*
G75*
G02*
X83625000Y-55325000I0J150000D01*
G01*
G37*
G36*
G01*
X83625000Y-56595000D02*
X83625000Y-56295000D01*
G75*
G02*
X83775000Y-56145000I150000J0D01*
G01*
X85525000Y-56145000D01*
G75*
G02*
X85675000Y-56295000I0J-150000D01*
G01*
X85675000Y-56595000D01*
G75*
G02*
X85525000Y-56745000I-150000J0D01*
G01*
X83775000Y-56745000D01*
G75*
G02*
X83625000Y-56595000I0J150000D01*
G01*
G37*
G36*
G01*
X74325000Y-56595000D02*
X74325000Y-56295000D01*
G75*
G02*
X74475000Y-56145000I150000J0D01*
G01*
X76225000Y-56145000D01*
G75*
G02*
X76375000Y-56295000I0J-150000D01*
G01*
X76375000Y-56595000D01*
G75*
G02*
X76225000Y-56745000I-150000J0D01*
G01*
X74475000Y-56745000D01*
G75*
G02*
X74325000Y-56595000I0J150000D01*
G01*
G37*
G36*
G01*
X74325000Y-55325000D02*
X74325000Y-55025000D01*
G75*
G02*
X74475000Y-54875000I150000J0D01*
G01*
X76225000Y-54875000D01*
G75*
G02*
X76375000Y-55025000I0J-150000D01*
G01*
X76375000Y-55325000D01*
G75*
G02*
X76225000Y-55475000I-150000J0D01*
G01*
X74475000Y-55475000D01*
G75*
G02*
X74325000Y-55325000I0J150000D01*
G01*
G37*
G36*
G01*
X74325000Y-54055000D02*
X74325000Y-53755000D01*
G75*
G02*
X74475000Y-53605000I150000J0D01*
G01*
X76225000Y-53605000D01*
G75*
G02*
X76375000Y-53755000I0J-150000D01*
G01*
X76375000Y-54055000D01*
G75*
G02*
X76225000Y-54205000I-150000J0D01*
G01*
X74475000Y-54205000D01*
G75*
G02*
X74325000Y-54055000I0J150000D01*
G01*
G37*
G36*
G01*
X74325000Y-52785000D02*
X74325000Y-52485000D01*
G75*
G02*
X74475000Y-52335000I150000J0D01*
G01*
X76225000Y-52335000D01*
G75*
G02*
X76375000Y-52485000I0J-150000D01*
G01*
X76375000Y-52785000D01*
G75*
G02*
X76225000Y-52935000I-150000J0D01*
G01*
X74475000Y-52935000D01*
G75*
G02*
X74325000Y-52785000I0J150000D01*
G01*
G37*
G36*
G01*
X74325000Y-51515000D02*
X74325000Y-51215000D01*
G75*
G02*
X74475000Y-51065000I150000J0D01*
G01*
X76225000Y-51065000D01*
G75*
G02*
X76375000Y-51215000I0J-150000D01*
G01*
X76375000Y-51515000D01*
G75*
G02*
X76225000Y-51665000I-150000J0D01*
G01*
X74475000Y-51665000D01*
G75*
G02*
X74325000Y-51515000I0J150000D01*
G01*
G37*
G36*
G01*
X74325000Y-50245000D02*
X74325000Y-49945000D01*
G75*
G02*
X74475000Y-49795000I150000J0D01*
G01*
X76225000Y-49795000D01*
G75*
G02*
X76375000Y-49945000I0J-150000D01*
G01*
X76375000Y-50245000D01*
G75*
G02*
X76225000Y-50395000I-150000J0D01*
G01*
X74475000Y-50395000D01*
G75*
G02*
X74325000Y-50245000I0J150000D01*
G01*
G37*
G36*
G01*
X74325000Y-48975000D02*
X74325000Y-48675000D01*
G75*
G02*
X74475000Y-48525000I150000J0D01*
G01*
X76225000Y-48525000D01*
G75*
G02*
X76375000Y-48675000I0J-150000D01*
G01*
X76375000Y-48975000D01*
G75*
G02*
X76225000Y-49125000I-150000J0D01*
G01*
X74475000Y-49125000D01*
G75*
G02*
X74325000Y-48975000I0J150000D01*
G01*
G37*
G36*
G01*
X74325000Y-47705000D02*
X74325000Y-47405000D01*
G75*
G02*
X74475000Y-47255000I150000J0D01*
G01*
X76225000Y-47255000D01*
G75*
G02*
X76375000Y-47405000I0J-150000D01*
G01*
X76375000Y-47705000D01*
G75*
G02*
X76225000Y-47855000I-150000J0D01*
G01*
X74475000Y-47855000D01*
G75*
G02*
X74325000Y-47705000I0J150000D01*
G01*
G37*
%TD*%
%TO.C,U14*%
G36*
G01*
X103625000Y-47705000D02*
X103625000Y-47405000D01*
G75*
G02*
X103775000Y-47255000I150000J0D01*
G01*
X105525000Y-47255000D01*
G75*
G02*
X105675000Y-47405000I0J-150000D01*
G01*
X105675000Y-47705000D01*
G75*
G02*
X105525000Y-47855000I-150000J0D01*
G01*
X103775000Y-47855000D01*
G75*
G02*
X103625000Y-47705000I0J150000D01*
G01*
G37*
G36*
G01*
X103625000Y-48975000D02*
X103625000Y-48675000D01*
G75*
G02*
X103775000Y-48525000I150000J0D01*
G01*
X105525000Y-48525000D01*
G75*
G02*
X105675000Y-48675000I0J-150000D01*
G01*
X105675000Y-48975000D01*
G75*
G02*
X105525000Y-49125000I-150000J0D01*
G01*
X103775000Y-49125000D01*
G75*
G02*
X103625000Y-48975000I0J150000D01*
G01*
G37*
G36*
G01*
X103625000Y-50245000D02*
X103625000Y-49945000D01*
G75*
G02*
X103775000Y-49795000I150000J0D01*
G01*
X105525000Y-49795000D01*
G75*
G02*
X105675000Y-49945000I0J-150000D01*
G01*
X105675000Y-50245000D01*
G75*
G02*
X105525000Y-50395000I-150000J0D01*
G01*
X103775000Y-50395000D01*
G75*
G02*
X103625000Y-50245000I0J150000D01*
G01*
G37*
G36*
G01*
X103625000Y-51515000D02*
X103625000Y-51215000D01*
G75*
G02*
X103775000Y-51065000I150000J0D01*
G01*
X105525000Y-51065000D01*
G75*
G02*
X105675000Y-51215000I0J-150000D01*
G01*
X105675000Y-51515000D01*
G75*
G02*
X105525000Y-51665000I-150000J0D01*
G01*
X103775000Y-51665000D01*
G75*
G02*
X103625000Y-51515000I0J150000D01*
G01*
G37*
G36*
G01*
X103625000Y-52785000D02*
X103625000Y-52485000D01*
G75*
G02*
X103775000Y-52335000I150000J0D01*
G01*
X105525000Y-52335000D01*
G75*
G02*
X105675000Y-52485000I0J-150000D01*
G01*
X105675000Y-52785000D01*
G75*
G02*
X105525000Y-52935000I-150000J0D01*
G01*
X103775000Y-52935000D01*
G75*
G02*
X103625000Y-52785000I0J150000D01*
G01*
G37*
G36*
G01*
X103625000Y-54055000D02*
X103625000Y-53755000D01*
G75*
G02*
X103775000Y-53605000I150000J0D01*
G01*
X105525000Y-53605000D01*
G75*
G02*
X105675000Y-53755000I0J-150000D01*
G01*
X105675000Y-54055000D01*
G75*
G02*
X105525000Y-54205000I-150000J0D01*
G01*
X103775000Y-54205000D01*
G75*
G02*
X103625000Y-54055000I0J150000D01*
G01*
G37*
G36*
G01*
X103625000Y-55325000D02*
X103625000Y-55025000D01*
G75*
G02*
X103775000Y-54875000I150000J0D01*
G01*
X105525000Y-54875000D01*
G75*
G02*
X105675000Y-55025000I0J-150000D01*
G01*
X105675000Y-55325000D01*
G75*
G02*
X105525000Y-55475000I-150000J0D01*
G01*
X103775000Y-55475000D01*
G75*
G02*
X103625000Y-55325000I0J150000D01*
G01*
G37*
G36*
G01*
X103625000Y-56595000D02*
X103625000Y-56295000D01*
G75*
G02*
X103775000Y-56145000I150000J0D01*
G01*
X105525000Y-56145000D01*
G75*
G02*
X105675000Y-56295000I0J-150000D01*
G01*
X105675000Y-56595000D01*
G75*
G02*
X105525000Y-56745000I-150000J0D01*
G01*
X103775000Y-56745000D01*
G75*
G02*
X103625000Y-56595000I0J150000D01*
G01*
G37*
G36*
G01*
X94325000Y-56595000D02*
X94325000Y-56295000D01*
G75*
G02*
X94475000Y-56145000I150000J0D01*
G01*
X96225000Y-56145000D01*
G75*
G02*
X96375000Y-56295000I0J-150000D01*
G01*
X96375000Y-56595000D01*
G75*
G02*
X96225000Y-56745000I-150000J0D01*
G01*
X94475000Y-56745000D01*
G75*
G02*
X94325000Y-56595000I0J150000D01*
G01*
G37*
G36*
G01*
X94325000Y-55325000D02*
X94325000Y-55025000D01*
G75*
G02*
X94475000Y-54875000I150000J0D01*
G01*
X96225000Y-54875000D01*
G75*
G02*
X96375000Y-55025000I0J-150000D01*
G01*
X96375000Y-55325000D01*
G75*
G02*
X96225000Y-55475000I-150000J0D01*
G01*
X94475000Y-55475000D01*
G75*
G02*
X94325000Y-55325000I0J150000D01*
G01*
G37*
G36*
G01*
X94325000Y-54055000D02*
X94325000Y-53755000D01*
G75*
G02*
X94475000Y-53605000I150000J0D01*
G01*
X96225000Y-53605000D01*
G75*
G02*
X96375000Y-53755000I0J-150000D01*
G01*
X96375000Y-54055000D01*
G75*
G02*
X96225000Y-54205000I-150000J0D01*
G01*
X94475000Y-54205000D01*
G75*
G02*
X94325000Y-54055000I0J150000D01*
G01*
G37*
G36*
G01*
X94325000Y-52785000D02*
X94325000Y-52485000D01*
G75*
G02*
X94475000Y-52335000I150000J0D01*
G01*
X96225000Y-52335000D01*
G75*
G02*
X96375000Y-52485000I0J-150000D01*
G01*
X96375000Y-52785000D01*
G75*
G02*
X96225000Y-52935000I-150000J0D01*
G01*
X94475000Y-52935000D01*
G75*
G02*
X94325000Y-52785000I0J150000D01*
G01*
G37*
G36*
G01*
X94325000Y-51515000D02*
X94325000Y-51215000D01*
G75*
G02*
X94475000Y-51065000I150000J0D01*
G01*
X96225000Y-51065000D01*
G75*
G02*
X96375000Y-51215000I0J-150000D01*
G01*
X96375000Y-51515000D01*
G75*
G02*
X96225000Y-51665000I-150000J0D01*
G01*
X94475000Y-51665000D01*
G75*
G02*
X94325000Y-51515000I0J150000D01*
G01*
G37*
G36*
G01*
X94325000Y-50245000D02*
X94325000Y-49945000D01*
G75*
G02*
X94475000Y-49795000I150000J0D01*
G01*
X96225000Y-49795000D01*
G75*
G02*
X96375000Y-49945000I0J-150000D01*
G01*
X96375000Y-50245000D01*
G75*
G02*
X96225000Y-50395000I-150000J0D01*
G01*
X94475000Y-50395000D01*
G75*
G02*
X94325000Y-50245000I0J150000D01*
G01*
G37*
G36*
G01*
X94325000Y-48975000D02*
X94325000Y-48675000D01*
G75*
G02*
X94475000Y-48525000I150000J0D01*
G01*
X96225000Y-48525000D01*
G75*
G02*
X96375000Y-48675000I0J-150000D01*
G01*
X96375000Y-48975000D01*
G75*
G02*
X96225000Y-49125000I-150000J0D01*
G01*
X94475000Y-49125000D01*
G75*
G02*
X94325000Y-48975000I0J150000D01*
G01*
G37*
G36*
G01*
X94325000Y-47705000D02*
X94325000Y-47405000D01*
G75*
G02*
X94475000Y-47255000I150000J0D01*
G01*
X96225000Y-47255000D01*
G75*
G02*
X96375000Y-47405000I0J-150000D01*
G01*
X96375000Y-47705000D01*
G75*
G02*
X96225000Y-47855000I-150000J0D01*
G01*
X94475000Y-47855000D01*
G75*
G02*
X94325000Y-47705000I0J150000D01*
G01*
G37*
%TD*%
D22*
%TO.C,U12*%
X57025000Y-8975000D03*
X57675000Y-8975000D03*
X58325000Y-8975000D03*
X58975000Y-8975000D03*
X58975000Y-11025000D03*
X58325000Y-11025000D03*
X57675000Y-11025000D03*
X57025000Y-11025000D03*
%TD*%
%TO.C,U11*%
G36*
G01*
X82500000Y-84245000D02*
X82500000Y-83945000D01*
G75*
G02*
X82650000Y-83795000I150000J0D01*
G01*
X84300000Y-83795000D01*
G75*
G02*
X84450000Y-83945000I0J-150000D01*
G01*
X84450000Y-84245000D01*
G75*
G02*
X84300000Y-84395000I-150000J0D01*
G01*
X82650000Y-84395000D01*
G75*
G02*
X82500000Y-84245000I0J150000D01*
G01*
G37*
G36*
G01*
X82500000Y-85515000D02*
X82500000Y-85215000D01*
G75*
G02*
X82650000Y-85065000I150000J0D01*
G01*
X84300000Y-85065000D01*
G75*
G02*
X84450000Y-85215000I0J-150000D01*
G01*
X84450000Y-85515000D01*
G75*
G02*
X84300000Y-85665000I-150000J0D01*
G01*
X82650000Y-85665000D01*
G75*
G02*
X82500000Y-85515000I0J150000D01*
G01*
G37*
G36*
G01*
X82500000Y-86785000D02*
X82500000Y-86485000D01*
G75*
G02*
X82650000Y-86335000I150000J0D01*
G01*
X84300000Y-86335000D01*
G75*
G02*
X84450000Y-86485000I0J-150000D01*
G01*
X84450000Y-86785000D01*
G75*
G02*
X84300000Y-86935000I-150000J0D01*
G01*
X82650000Y-86935000D01*
G75*
G02*
X82500000Y-86785000I0J150000D01*
G01*
G37*
G36*
G01*
X82500000Y-88055000D02*
X82500000Y-87755000D01*
G75*
G02*
X82650000Y-87605000I150000J0D01*
G01*
X84300000Y-87605000D01*
G75*
G02*
X84450000Y-87755000I0J-150000D01*
G01*
X84450000Y-88055000D01*
G75*
G02*
X84300000Y-88205000I-150000J0D01*
G01*
X82650000Y-88205000D01*
G75*
G02*
X82500000Y-88055000I0J150000D01*
G01*
G37*
G36*
G01*
X77550000Y-88055000D02*
X77550000Y-87755000D01*
G75*
G02*
X77700000Y-87605000I150000J0D01*
G01*
X79350000Y-87605000D01*
G75*
G02*
X79500000Y-87755000I0J-150000D01*
G01*
X79500000Y-88055000D01*
G75*
G02*
X79350000Y-88205000I-150000J0D01*
G01*
X77700000Y-88205000D01*
G75*
G02*
X77550000Y-88055000I0J150000D01*
G01*
G37*
G36*
G01*
X77550000Y-86785000D02*
X77550000Y-86485000D01*
G75*
G02*
X77700000Y-86335000I150000J0D01*
G01*
X79350000Y-86335000D01*
G75*
G02*
X79500000Y-86485000I0J-150000D01*
G01*
X79500000Y-86785000D01*
G75*
G02*
X79350000Y-86935000I-150000J0D01*
G01*
X77700000Y-86935000D01*
G75*
G02*
X77550000Y-86785000I0J150000D01*
G01*
G37*
G36*
G01*
X77550000Y-85515000D02*
X77550000Y-85215000D01*
G75*
G02*
X77700000Y-85065000I150000J0D01*
G01*
X79350000Y-85065000D01*
G75*
G02*
X79500000Y-85215000I0J-150000D01*
G01*
X79500000Y-85515000D01*
G75*
G02*
X79350000Y-85665000I-150000J0D01*
G01*
X77700000Y-85665000D01*
G75*
G02*
X77550000Y-85515000I0J150000D01*
G01*
G37*
G36*
G01*
X77550000Y-84245000D02*
X77550000Y-83945000D01*
G75*
G02*
X77700000Y-83795000I150000J0D01*
G01*
X79350000Y-83795000D01*
G75*
G02*
X79500000Y-83945000I0J-150000D01*
G01*
X79500000Y-84245000D01*
G75*
G02*
X79350000Y-84395000I-150000J0D01*
G01*
X77700000Y-84395000D01*
G75*
G02*
X77550000Y-84245000I0J150000D01*
G01*
G37*
%TD*%
%TO.C,U10*%
G36*
G01*
X85625000Y-8705000D02*
X85625000Y-8405000D01*
G75*
G02*
X85775000Y-8255000I150000J0D01*
G01*
X87525000Y-8255000D01*
G75*
G02*
X87675000Y-8405000I0J-150000D01*
G01*
X87675000Y-8705000D01*
G75*
G02*
X87525000Y-8855000I-150000J0D01*
G01*
X85775000Y-8855000D01*
G75*
G02*
X85625000Y-8705000I0J150000D01*
G01*
G37*
G36*
G01*
X85625000Y-9975000D02*
X85625000Y-9675000D01*
G75*
G02*
X85775000Y-9525000I150000J0D01*
G01*
X87525000Y-9525000D01*
G75*
G02*
X87675000Y-9675000I0J-150000D01*
G01*
X87675000Y-9975000D01*
G75*
G02*
X87525000Y-10125000I-150000J0D01*
G01*
X85775000Y-10125000D01*
G75*
G02*
X85625000Y-9975000I0J150000D01*
G01*
G37*
G36*
G01*
X85625000Y-11245000D02*
X85625000Y-10945000D01*
G75*
G02*
X85775000Y-10795000I150000J0D01*
G01*
X87525000Y-10795000D01*
G75*
G02*
X87675000Y-10945000I0J-150000D01*
G01*
X87675000Y-11245000D01*
G75*
G02*
X87525000Y-11395000I-150000J0D01*
G01*
X85775000Y-11395000D01*
G75*
G02*
X85625000Y-11245000I0J150000D01*
G01*
G37*
G36*
G01*
X85625000Y-12515000D02*
X85625000Y-12215000D01*
G75*
G02*
X85775000Y-12065000I150000J0D01*
G01*
X87525000Y-12065000D01*
G75*
G02*
X87675000Y-12215000I0J-150000D01*
G01*
X87675000Y-12515000D01*
G75*
G02*
X87525000Y-12665000I-150000J0D01*
G01*
X85775000Y-12665000D01*
G75*
G02*
X85625000Y-12515000I0J150000D01*
G01*
G37*
G36*
G01*
X85625000Y-13785000D02*
X85625000Y-13485000D01*
G75*
G02*
X85775000Y-13335000I150000J0D01*
G01*
X87525000Y-13335000D01*
G75*
G02*
X87675000Y-13485000I0J-150000D01*
G01*
X87675000Y-13785000D01*
G75*
G02*
X87525000Y-13935000I-150000J0D01*
G01*
X85775000Y-13935000D01*
G75*
G02*
X85625000Y-13785000I0J150000D01*
G01*
G37*
G36*
G01*
X85625000Y-15055000D02*
X85625000Y-14755000D01*
G75*
G02*
X85775000Y-14605000I150000J0D01*
G01*
X87525000Y-14605000D01*
G75*
G02*
X87675000Y-14755000I0J-150000D01*
G01*
X87675000Y-15055000D01*
G75*
G02*
X87525000Y-15205000I-150000J0D01*
G01*
X85775000Y-15205000D01*
G75*
G02*
X85625000Y-15055000I0J150000D01*
G01*
G37*
G36*
G01*
X85625000Y-16325000D02*
X85625000Y-16025000D01*
G75*
G02*
X85775000Y-15875000I150000J0D01*
G01*
X87525000Y-15875000D01*
G75*
G02*
X87675000Y-16025000I0J-150000D01*
G01*
X87675000Y-16325000D01*
G75*
G02*
X87525000Y-16475000I-150000J0D01*
G01*
X85775000Y-16475000D01*
G75*
G02*
X85625000Y-16325000I0J150000D01*
G01*
G37*
G36*
G01*
X85625000Y-17595000D02*
X85625000Y-17295000D01*
G75*
G02*
X85775000Y-17145000I150000J0D01*
G01*
X87525000Y-17145000D01*
G75*
G02*
X87675000Y-17295000I0J-150000D01*
G01*
X87675000Y-17595000D01*
G75*
G02*
X87525000Y-17745000I-150000J0D01*
G01*
X85775000Y-17745000D01*
G75*
G02*
X85625000Y-17595000I0J150000D01*
G01*
G37*
G36*
G01*
X76325000Y-17595000D02*
X76325000Y-17295000D01*
G75*
G02*
X76475000Y-17145000I150000J0D01*
G01*
X78225000Y-17145000D01*
G75*
G02*
X78375000Y-17295000I0J-150000D01*
G01*
X78375000Y-17595000D01*
G75*
G02*
X78225000Y-17745000I-150000J0D01*
G01*
X76475000Y-17745000D01*
G75*
G02*
X76325000Y-17595000I0J150000D01*
G01*
G37*
G36*
G01*
X76325000Y-16325000D02*
X76325000Y-16025000D01*
G75*
G02*
X76475000Y-15875000I150000J0D01*
G01*
X78225000Y-15875000D01*
G75*
G02*
X78375000Y-16025000I0J-150000D01*
G01*
X78375000Y-16325000D01*
G75*
G02*
X78225000Y-16475000I-150000J0D01*
G01*
X76475000Y-16475000D01*
G75*
G02*
X76325000Y-16325000I0J150000D01*
G01*
G37*
G36*
G01*
X76325000Y-15055000D02*
X76325000Y-14755000D01*
G75*
G02*
X76475000Y-14605000I150000J0D01*
G01*
X78225000Y-14605000D01*
G75*
G02*
X78375000Y-14755000I0J-150000D01*
G01*
X78375000Y-15055000D01*
G75*
G02*
X78225000Y-15205000I-150000J0D01*
G01*
X76475000Y-15205000D01*
G75*
G02*
X76325000Y-15055000I0J150000D01*
G01*
G37*
G36*
G01*
X76325000Y-13785000D02*
X76325000Y-13485000D01*
G75*
G02*
X76475000Y-13335000I150000J0D01*
G01*
X78225000Y-13335000D01*
G75*
G02*
X78375000Y-13485000I0J-150000D01*
G01*
X78375000Y-13785000D01*
G75*
G02*
X78225000Y-13935000I-150000J0D01*
G01*
X76475000Y-13935000D01*
G75*
G02*
X76325000Y-13785000I0J150000D01*
G01*
G37*
G36*
G01*
X76325000Y-12515000D02*
X76325000Y-12215000D01*
G75*
G02*
X76475000Y-12065000I150000J0D01*
G01*
X78225000Y-12065000D01*
G75*
G02*
X78375000Y-12215000I0J-150000D01*
G01*
X78375000Y-12515000D01*
G75*
G02*
X78225000Y-12665000I-150000J0D01*
G01*
X76475000Y-12665000D01*
G75*
G02*
X76325000Y-12515000I0J150000D01*
G01*
G37*
G36*
G01*
X76325000Y-11245000D02*
X76325000Y-10945000D01*
G75*
G02*
X76475000Y-10795000I150000J0D01*
G01*
X78225000Y-10795000D01*
G75*
G02*
X78375000Y-10945000I0J-150000D01*
G01*
X78375000Y-11245000D01*
G75*
G02*
X78225000Y-11395000I-150000J0D01*
G01*
X76475000Y-11395000D01*
G75*
G02*
X76325000Y-11245000I0J150000D01*
G01*
G37*
G36*
G01*
X76325000Y-9975000D02*
X76325000Y-9675000D01*
G75*
G02*
X76475000Y-9525000I150000J0D01*
G01*
X78225000Y-9525000D01*
G75*
G02*
X78375000Y-9675000I0J-150000D01*
G01*
X78375000Y-9975000D01*
G75*
G02*
X78225000Y-10125000I-150000J0D01*
G01*
X76475000Y-10125000D01*
G75*
G02*
X76325000Y-9975000I0J150000D01*
G01*
G37*
G36*
G01*
X76325000Y-8705000D02*
X76325000Y-8405000D01*
G75*
G02*
X76475000Y-8255000I150000J0D01*
G01*
X78225000Y-8255000D01*
G75*
G02*
X78375000Y-8405000I0J-150000D01*
G01*
X78375000Y-8705000D01*
G75*
G02*
X78225000Y-8855000I-150000J0D01*
G01*
X76475000Y-8855000D01*
G75*
G02*
X76325000Y-8705000I0J150000D01*
G01*
G37*
%TD*%
D23*
%TO.C,U9*%
X3800000Y-115300000D03*
X3800000Y-116250000D03*
X3800000Y-117200000D03*
X6000000Y-117200000D03*
X6000000Y-115300000D03*
X6000000Y-116250000D03*
%TD*%
%TO.C,U8*%
G36*
G01*
X33500000Y-11755000D02*
X33500000Y-12055000D01*
G75*
G02*
X33350000Y-12205000I-150000J0D01*
G01*
X31700000Y-12205000D01*
G75*
G02*
X31550000Y-12055000I0J150000D01*
G01*
X31550000Y-11755000D01*
G75*
G02*
X31700000Y-11605000I150000J0D01*
G01*
X33350000Y-11605000D01*
G75*
G02*
X33500000Y-11755000I0J-150000D01*
G01*
G37*
G36*
G01*
X33500000Y-10485000D02*
X33500000Y-10785000D01*
G75*
G02*
X33350000Y-10935000I-150000J0D01*
G01*
X31700000Y-10935000D01*
G75*
G02*
X31550000Y-10785000I0J150000D01*
G01*
X31550000Y-10485000D01*
G75*
G02*
X31700000Y-10335000I150000J0D01*
G01*
X33350000Y-10335000D01*
G75*
G02*
X33500000Y-10485000I0J-150000D01*
G01*
G37*
G36*
G01*
X33500000Y-9215000D02*
X33500000Y-9515000D01*
G75*
G02*
X33350000Y-9665000I-150000J0D01*
G01*
X31700000Y-9665000D01*
G75*
G02*
X31550000Y-9515000I0J150000D01*
G01*
X31550000Y-9215000D01*
G75*
G02*
X31700000Y-9065000I150000J0D01*
G01*
X33350000Y-9065000D01*
G75*
G02*
X33500000Y-9215000I0J-150000D01*
G01*
G37*
G36*
G01*
X33500000Y-7945000D02*
X33500000Y-8245000D01*
G75*
G02*
X33350000Y-8395000I-150000J0D01*
G01*
X31700000Y-8395000D01*
G75*
G02*
X31550000Y-8245000I0J150000D01*
G01*
X31550000Y-7945000D01*
G75*
G02*
X31700000Y-7795000I150000J0D01*
G01*
X33350000Y-7795000D01*
G75*
G02*
X33500000Y-7945000I0J-150000D01*
G01*
G37*
G36*
G01*
X38450000Y-7945000D02*
X38450000Y-8245000D01*
G75*
G02*
X38300000Y-8395000I-150000J0D01*
G01*
X36650000Y-8395000D01*
G75*
G02*
X36500000Y-8245000I0J150000D01*
G01*
X36500000Y-7945000D01*
G75*
G02*
X36650000Y-7795000I150000J0D01*
G01*
X38300000Y-7795000D01*
G75*
G02*
X38450000Y-7945000I0J-150000D01*
G01*
G37*
G36*
G01*
X38450000Y-9215000D02*
X38450000Y-9515000D01*
G75*
G02*
X38300000Y-9665000I-150000J0D01*
G01*
X36650000Y-9665000D01*
G75*
G02*
X36500000Y-9515000I0J150000D01*
G01*
X36500000Y-9215000D01*
G75*
G02*
X36650000Y-9065000I150000J0D01*
G01*
X38300000Y-9065000D01*
G75*
G02*
X38450000Y-9215000I0J-150000D01*
G01*
G37*
G36*
G01*
X38450000Y-10485000D02*
X38450000Y-10785000D01*
G75*
G02*
X38300000Y-10935000I-150000J0D01*
G01*
X36650000Y-10935000D01*
G75*
G02*
X36500000Y-10785000I0J150000D01*
G01*
X36500000Y-10485000D01*
G75*
G02*
X36650000Y-10335000I150000J0D01*
G01*
X38300000Y-10335000D01*
G75*
G02*
X38450000Y-10485000I0J-150000D01*
G01*
G37*
G36*
G01*
X38450000Y-11755000D02*
X38450000Y-12055000D01*
G75*
G02*
X38300000Y-12205000I-150000J0D01*
G01*
X36650000Y-12205000D01*
G75*
G02*
X36500000Y-12055000I0J150000D01*
G01*
X36500000Y-11755000D01*
G75*
G02*
X36650000Y-11605000I150000J0D01*
G01*
X38300000Y-11605000D01*
G75*
G02*
X38450000Y-11755000I0J-150000D01*
G01*
G37*
%TD*%
D24*
%TO.C,U7*%
X45000000Y-9900000D03*
X44050000Y-9900000D03*
X45950000Y-9900000D03*
X45950000Y-12100000D03*
X45000000Y-12100000D03*
X44050000Y-12100000D03*
%TD*%
%TO.C,U5*%
G36*
G01*
X108755000Y-114500000D02*
X109055000Y-114500000D01*
G75*
G02*
X109205000Y-114650000I0J-150000D01*
G01*
X109205000Y-116300000D01*
G75*
G02*
X109055000Y-116450000I-150000J0D01*
G01*
X108755000Y-116450000D01*
G75*
G02*
X108605000Y-116300000I0J150000D01*
G01*
X108605000Y-114650000D01*
G75*
G02*
X108755000Y-114500000I150000J0D01*
G01*
G37*
G36*
G01*
X107485000Y-114500000D02*
X107785000Y-114500000D01*
G75*
G02*
X107935000Y-114650000I0J-150000D01*
G01*
X107935000Y-116300000D01*
G75*
G02*
X107785000Y-116450000I-150000J0D01*
G01*
X107485000Y-116450000D01*
G75*
G02*
X107335000Y-116300000I0J150000D01*
G01*
X107335000Y-114650000D01*
G75*
G02*
X107485000Y-114500000I150000J0D01*
G01*
G37*
G36*
G01*
X106215000Y-114500000D02*
X106515000Y-114500000D01*
G75*
G02*
X106665000Y-114650000I0J-150000D01*
G01*
X106665000Y-116300000D01*
G75*
G02*
X106515000Y-116450000I-150000J0D01*
G01*
X106215000Y-116450000D01*
G75*
G02*
X106065000Y-116300000I0J150000D01*
G01*
X106065000Y-114650000D01*
G75*
G02*
X106215000Y-114500000I150000J0D01*
G01*
G37*
G36*
G01*
X104945000Y-114500000D02*
X105245000Y-114500000D01*
G75*
G02*
X105395000Y-114650000I0J-150000D01*
G01*
X105395000Y-116300000D01*
G75*
G02*
X105245000Y-116450000I-150000J0D01*
G01*
X104945000Y-116450000D01*
G75*
G02*
X104795000Y-116300000I0J150000D01*
G01*
X104795000Y-114650000D01*
G75*
G02*
X104945000Y-114500000I150000J0D01*
G01*
G37*
G36*
G01*
X104945000Y-109550000D02*
X105245000Y-109550000D01*
G75*
G02*
X105395000Y-109700000I0J-150000D01*
G01*
X105395000Y-111350000D01*
G75*
G02*
X105245000Y-111500000I-150000J0D01*
G01*
X104945000Y-111500000D01*
G75*
G02*
X104795000Y-111350000I0J150000D01*
G01*
X104795000Y-109700000D01*
G75*
G02*
X104945000Y-109550000I150000J0D01*
G01*
G37*
G36*
G01*
X106215000Y-109550000D02*
X106515000Y-109550000D01*
G75*
G02*
X106665000Y-109700000I0J-150000D01*
G01*
X106665000Y-111350000D01*
G75*
G02*
X106515000Y-111500000I-150000J0D01*
G01*
X106215000Y-111500000D01*
G75*
G02*
X106065000Y-111350000I0J150000D01*
G01*
X106065000Y-109700000D01*
G75*
G02*
X106215000Y-109550000I150000J0D01*
G01*
G37*
G36*
G01*
X107485000Y-109550000D02*
X107785000Y-109550000D01*
G75*
G02*
X107935000Y-109700000I0J-150000D01*
G01*
X107935000Y-111350000D01*
G75*
G02*
X107785000Y-111500000I-150000J0D01*
G01*
X107485000Y-111500000D01*
G75*
G02*
X107335000Y-111350000I0J150000D01*
G01*
X107335000Y-109700000D01*
G75*
G02*
X107485000Y-109550000I150000J0D01*
G01*
G37*
G36*
G01*
X108755000Y-109550000D02*
X109055000Y-109550000D01*
G75*
G02*
X109205000Y-109700000I0J-150000D01*
G01*
X109205000Y-111350000D01*
G75*
G02*
X109055000Y-111500000I-150000J0D01*
G01*
X108755000Y-111500000D01*
G75*
G02*
X108605000Y-111350000I0J150000D01*
G01*
X108605000Y-109700000D01*
G75*
G02*
X108755000Y-109550000I150000J0D01*
G01*
G37*
%TD*%
%TO.C,U4*%
G36*
G01*
X23755000Y-58500000D02*
X24055000Y-58500000D01*
G75*
G02*
X24205000Y-58650000I0J-150000D01*
G01*
X24205000Y-60300000D01*
G75*
G02*
X24055000Y-60450000I-150000J0D01*
G01*
X23755000Y-60450000D01*
G75*
G02*
X23605000Y-60300000I0J150000D01*
G01*
X23605000Y-58650000D01*
G75*
G02*
X23755000Y-58500000I150000J0D01*
G01*
G37*
G36*
G01*
X22485000Y-58500000D02*
X22785000Y-58500000D01*
G75*
G02*
X22935000Y-58650000I0J-150000D01*
G01*
X22935000Y-60300000D01*
G75*
G02*
X22785000Y-60450000I-150000J0D01*
G01*
X22485000Y-60450000D01*
G75*
G02*
X22335000Y-60300000I0J150000D01*
G01*
X22335000Y-58650000D01*
G75*
G02*
X22485000Y-58500000I150000J0D01*
G01*
G37*
G36*
G01*
X21215000Y-58500000D02*
X21515000Y-58500000D01*
G75*
G02*
X21665000Y-58650000I0J-150000D01*
G01*
X21665000Y-60300000D01*
G75*
G02*
X21515000Y-60450000I-150000J0D01*
G01*
X21215000Y-60450000D01*
G75*
G02*
X21065000Y-60300000I0J150000D01*
G01*
X21065000Y-58650000D01*
G75*
G02*
X21215000Y-58500000I150000J0D01*
G01*
G37*
G36*
G01*
X19945000Y-58500000D02*
X20245000Y-58500000D01*
G75*
G02*
X20395000Y-58650000I0J-150000D01*
G01*
X20395000Y-60300000D01*
G75*
G02*
X20245000Y-60450000I-150000J0D01*
G01*
X19945000Y-60450000D01*
G75*
G02*
X19795000Y-60300000I0J150000D01*
G01*
X19795000Y-58650000D01*
G75*
G02*
X19945000Y-58500000I150000J0D01*
G01*
G37*
G36*
G01*
X19945000Y-53550000D02*
X20245000Y-53550000D01*
G75*
G02*
X20395000Y-53700000I0J-150000D01*
G01*
X20395000Y-55350000D01*
G75*
G02*
X20245000Y-55500000I-150000J0D01*
G01*
X19945000Y-55500000D01*
G75*
G02*
X19795000Y-55350000I0J150000D01*
G01*
X19795000Y-53700000D01*
G75*
G02*
X19945000Y-53550000I150000J0D01*
G01*
G37*
G36*
G01*
X21215000Y-53550000D02*
X21515000Y-53550000D01*
G75*
G02*
X21665000Y-53700000I0J-150000D01*
G01*
X21665000Y-55350000D01*
G75*
G02*
X21515000Y-55500000I-150000J0D01*
G01*
X21215000Y-55500000D01*
G75*
G02*
X21065000Y-55350000I0J150000D01*
G01*
X21065000Y-53700000D01*
G75*
G02*
X21215000Y-53550000I150000J0D01*
G01*
G37*
G36*
G01*
X22485000Y-53550000D02*
X22785000Y-53550000D01*
G75*
G02*
X22935000Y-53700000I0J-150000D01*
G01*
X22935000Y-55350000D01*
G75*
G02*
X22785000Y-55500000I-150000J0D01*
G01*
X22485000Y-55500000D01*
G75*
G02*
X22335000Y-55350000I0J150000D01*
G01*
X22335000Y-53700000D01*
G75*
G02*
X22485000Y-53550000I150000J0D01*
G01*
G37*
G36*
G01*
X23755000Y-53550000D02*
X24055000Y-53550000D01*
G75*
G02*
X24205000Y-53700000I0J-150000D01*
G01*
X24205000Y-55350000D01*
G75*
G02*
X24055000Y-55500000I-150000J0D01*
G01*
X23755000Y-55500000D01*
G75*
G02*
X23605000Y-55350000I0J150000D01*
G01*
X23605000Y-53700000D01*
G75*
G02*
X23755000Y-53550000I150000J0D01*
G01*
G37*
%TD*%
D25*
%TO.C,U3*%
X137300000Y-93400000D03*
X132700000Y-93400000D03*
X135000000Y-93400000D03*
D26*
X135000000Y-99700000D03*
%TD*%
D27*
%TO.C,U1*%
X8000000Y-25500000D03*
X8000000Y-74500000D03*
X132000000Y-25500000D03*
X132000000Y-74500000D03*
%TD*%
D28*
%TO.C,TP32*%
X49000000Y-20000000D03*
%TD*%
%TO.C,TP31*%
X40000000Y-33000000D03*
%TD*%
%TO.C,TP30*%
X53000000Y-31000000D03*
%TD*%
%TO.C,TP29*%
X13000000Y-90000000D03*
%TD*%
%TO.C,TP28*%
X126000000Y-90000000D03*
%TD*%
%TO.C,TP27*%
X42000000Y-91000000D03*
%TD*%
%TO.C,TP26*%
X32000000Y-91000000D03*
%TD*%
%TO.C,TP25*%
X62000000Y-91000000D03*
%TD*%
%TO.C,TP24*%
X52000000Y-91000000D03*
%TD*%
%TO.C,TP23*%
X59000000Y-31000000D03*
%TD*%
%TO.C,TP22*%
X55500000Y-31000000D03*
%TD*%
%TO.C,TP21*%
X78000000Y-79000000D03*
%TD*%
%TO.C,TP20*%
X92000000Y-83000000D03*
%TD*%
%TO.C,TP19*%
X92000000Y-87000000D03*
%TD*%
%TO.C,TP18*%
X11000000Y-113000000D03*
%TD*%
%TO.C,TP17*%
X27000000Y-12000000D03*
%TD*%
%TO.C,TP16*%
X34000000Y-17000000D03*
%TD*%
%TO.C,TP15*%
X40000000Y-17000000D03*
%TD*%
%TO.C,TP14*%
X4000000Y-11500000D03*
%TD*%
%TO.C,TP13*%
X4000000Y-22500000D03*
%TD*%
%TO.C,TP12*%
X17500000Y-10000000D03*
%TD*%
%TO.C,TP11*%
X113000000Y-91000000D03*
%TD*%
%TO.C,TP10*%
X112000000Y-121000000D03*
%TD*%
%TO.C,TP9*%
X100000000Y-119000000D03*
%TD*%
%TO.C,TP8*%
X6000000Y-37000000D03*
%TD*%
%TO.C,TP7*%
X6000000Y-33000000D03*
%TD*%
%TO.C,TP6*%
X23000000Y-50000000D03*
%TD*%
%TO.C,TP5*%
X13500000Y-67500000D03*
%TD*%
%TO.C,TP4*%
X13500000Y-64500000D03*
%TD*%
%TO.C,TP3*%
X129000000Y-100000000D03*
%TD*%
%TO.C,TP2*%
X138000000Y-102000000D03*
%TD*%
%TO.C,TP1*%
X129000000Y-103000000D03*
%TD*%
D27*
%TO.C,SW10*%
X111500000Y-62500000D03*
X115250000Y-62500000D03*
D29*
X119000000Y-62500000D03*
D27*
X111500000Y-67500000D03*
X115250000Y-67500000D03*
X119000000Y-67500000D03*
%TD*%
%TO.C,SW9*%
X25500000Y-100000000D03*
X25500000Y-95500000D03*
X19000000Y-100000000D03*
X19000000Y-95500000D03*
%TD*%
%TO.C,SW8*%
X35500000Y-100000000D03*
X35500000Y-95500000D03*
X29000000Y-100000000D03*
X29000000Y-95500000D03*
%TD*%
%TO.C,SW7*%
X45500000Y-100000000D03*
X45500000Y-95500000D03*
X39000000Y-100000000D03*
X39000000Y-95500000D03*
%TD*%
%TO.C,SW6*%
X55500000Y-100000000D03*
X55500000Y-95500000D03*
X49000000Y-100000000D03*
X49000000Y-95500000D03*
%TD*%
%TO.C,SW5*%
X65500000Y-100000000D03*
X65500000Y-95500000D03*
X59000000Y-100000000D03*
X59000000Y-95500000D03*
%TD*%
%TO.C,SW4*%
X75500000Y-100000000D03*
X75500000Y-95500000D03*
X69000000Y-100000000D03*
X69000000Y-95500000D03*
%TD*%
%TO.C,SW3*%
X85500000Y-100000000D03*
X85500000Y-95500000D03*
X79000000Y-100000000D03*
X79000000Y-95500000D03*
%TD*%
%TO.C,SW2*%
X95500000Y-100000000D03*
X95500000Y-95500000D03*
X89000000Y-100000000D03*
X89000000Y-95500000D03*
%TD*%
%TO.C,SW1*%
X105500000Y-100000000D03*
X105500000Y-95500000D03*
X99000000Y-100000000D03*
X99000000Y-95500000D03*
%TD*%
%TO.C,R74*%
G36*
G01*
X39512500Y-85237500D02*
X39512500Y-84762500D01*
G75*
G02*
X39750000Y-84525000I237500J0D01*
G01*
X40250000Y-84525000D01*
G75*
G02*
X40487500Y-84762500I0J-237500D01*
G01*
X40487500Y-85237500D01*
G75*
G02*
X40250000Y-85475000I-237500J0D01*
G01*
X39750000Y-85475000D01*
G75*
G02*
X39512500Y-85237500I0J237500D01*
G01*
G37*
G36*
G01*
X37687500Y-85237500D02*
X37687500Y-84762500D01*
G75*
G02*
X37925000Y-84525000I237500J0D01*
G01*
X38425000Y-84525000D01*
G75*
G02*
X38662500Y-84762500I0J-237500D01*
G01*
X38662500Y-85237500D01*
G75*
G02*
X38425000Y-85475000I-237500J0D01*
G01*
X37925000Y-85475000D01*
G75*
G02*
X37687500Y-85237500I0J237500D01*
G01*
G37*
%TD*%
%TO.C,R73*%
G36*
G01*
X42575000Y-83762500D02*
X42575000Y-84237500D01*
G75*
G02*
X42337500Y-84475000I-237500J0D01*
G01*
X41837500Y-84475000D01*
G75*
G02*
X41600000Y-84237500I0J237500D01*
G01*
X41600000Y-83762500D01*
G75*
G02*
X41837500Y-83525000I237500J0D01*
G01*
X42337500Y-83525000D01*
G75*
G02*
X42575000Y-83762500I0J-237500D01*
G01*
G37*
G36*
G01*
X44400000Y-83762500D02*
X44400000Y-84237500D01*
G75*
G02*
X44162500Y-84475000I-237500J0D01*
G01*
X43662500Y-84475000D01*
G75*
G02*
X43425000Y-84237500I0J237500D01*
G01*
X43425000Y-83762500D01*
G75*
G02*
X43662500Y-83525000I237500J0D01*
G01*
X44162500Y-83525000D01*
G75*
G02*
X44400000Y-83762500I0J-237500D01*
G01*
G37*
%TD*%
%TO.C,R72*%
G36*
G01*
X38487500Y-78762500D02*
X38487500Y-79237500D01*
G75*
G02*
X38250000Y-79475000I-237500J0D01*
G01*
X37750000Y-79475000D01*
G75*
G02*
X37512500Y-79237500I0J237500D01*
G01*
X37512500Y-78762500D01*
G75*
G02*
X37750000Y-78525000I237500J0D01*
G01*
X38250000Y-78525000D01*
G75*
G02*
X38487500Y-78762500I0J-237500D01*
G01*
G37*
G36*
G01*
X40312500Y-78762500D02*
X40312500Y-79237500D01*
G75*
G02*
X40075000Y-79475000I-237500J0D01*
G01*
X39575000Y-79475000D01*
G75*
G02*
X39337500Y-79237500I0J237500D01*
G01*
X39337500Y-78762500D01*
G75*
G02*
X39575000Y-78525000I237500J0D01*
G01*
X40075000Y-78525000D01*
G75*
G02*
X40312500Y-78762500I0J-237500D01*
G01*
G37*
%TD*%
%TO.C,R71*%
G36*
G01*
X41762500Y-80337500D02*
X42237500Y-80337500D01*
G75*
G02*
X42475000Y-80575000I0J-237500D01*
G01*
X42475000Y-81075000D01*
G75*
G02*
X42237500Y-81312500I-237500J0D01*
G01*
X41762500Y-81312500D01*
G75*
G02*
X41525000Y-81075000I0J237500D01*
G01*
X41525000Y-80575000D01*
G75*
G02*
X41762500Y-80337500I237500J0D01*
G01*
G37*
G36*
G01*
X41762500Y-78512500D02*
X42237500Y-78512500D01*
G75*
G02*
X42475000Y-78750000I0J-237500D01*
G01*
X42475000Y-79250000D01*
G75*
G02*
X42237500Y-79487500I-237500J0D01*
G01*
X41762500Y-79487500D01*
G75*
G02*
X41525000Y-79250000I0J237500D01*
G01*
X41525000Y-78750000D01*
G75*
G02*
X41762500Y-78512500I237500J0D01*
G01*
G37*
%TD*%
%TO.C,R70*%
G36*
G01*
X29512500Y-85237500D02*
X29512500Y-84762500D01*
G75*
G02*
X29750000Y-84525000I237500J0D01*
G01*
X30250000Y-84525000D01*
G75*
G02*
X30487500Y-84762500I0J-237500D01*
G01*
X30487500Y-85237500D01*
G75*
G02*
X30250000Y-85475000I-237500J0D01*
G01*
X29750000Y-85475000D01*
G75*
G02*
X29512500Y-85237500I0J237500D01*
G01*
G37*
G36*
G01*
X27687500Y-85237500D02*
X27687500Y-84762500D01*
G75*
G02*
X27925000Y-84525000I237500J0D01*
G01*
X28425000Y-84525000D01*
G75*
G02*
X28662500Y-84762500I0J-237500D01*
G01*
X28662500Y-85237500D01*
G75*
G02*
X28425000Y-85475000I-237500J0D01*
G01*
X27925000Y-85475000D01*
G75*
G02*
X27687500Y-85237500I0J237500D01*
G01*
G37*
%TD*%
%TO.C,R69*%
G36*
G01*
X32487500Y-83762500D02*
X32487500Y-84237500D01*
G75*
G02*
X32250000Y-84475000I-237500J0D01*
G01*
X31750000Y-84475000D01*
G75*
G02*
X31512500Y-84237500I0J237500D01*
G01*
X31512500Y-83762500D01*
G75*
G02*
X31750000Y-83525000I237500J0D01*
G01*
X32250000Y-83525000D01*
G75*
G02*
X32487500Y-83762500I0J-237500D01*
G01*
G37*
G36*
G01*
X34312500Y-83762500D02*
X34312500Y-84237500D01*
G75*
G02*
X34075000Y-84475000I-237500J0D01*
G01*
X33575000Y-84475000D01*
G75*
G02*
X33337500Y-84237500I0J237500D01*
G01*
X33337500Y-83762500D01*
G75*
G02*
X33575000Y-83525000I237500J0D01*
G01*
X34075000Y-83525000D01*
G75*
G02*
X34312500Y-83762500I0J-237500D01*
G01*
G37*
%TD*%
%TO.C,R68*%
G36*
G01*
X28575000Y-78762500D02*
X28575000Y-79237500D01*
G75*
G02*
X28337500Y-79475000I-237500J0D01*
G01*
X27837500Y-79475000D01*
G75*
G02*
X27600000Y-79237500I0J237500D01*
G01*
X27600000Y-78762500D01*
G75*
G02*
X27837500Y-78525000I237500J0D01*
G01*
X28337500Y-78525000D01*
G75*
G02*
X28575000Y-78762500I0J-237500D01*
G01*
G37*
G36*
G01*
X30400000Y-78762500D02*
X30400000Y-79237500D01*
G75*
G02*
X30162500Y-79475000I-237500J0D01*
G01*
X29662500Y-79475000D01*
G75*
G02*
X29425000Y-79237500I0J237500D01*
G01*
X29425000Y-78762500D01*
G75*
G02*
X29662500Y-78525000I237500J0D01*
G01*
X30162500Y-78525000D01*
G75*
G02*
X30400000Y-78762500I0J-237500D01*
G01*
G37*
%TD*%
%TO.C,R67*%
G36*
G01*
X31762500Y-80512500D02*
X32237500Y-80512500D01*
G75*
G02*
X32475000Y-80750000I0J-237500D01*
G01*
X32475000Y-81250000D01*
G75*
G02*
X32237500Y-81487500I-237500J0D01*
G01*
X31762500Y-81487500D01*
G75*
G02*
X31525000Y-81250000I0J237500D01*
G01*
X31525000Y-80750000D01*
G75*
G02*
X31762500Y-80512500I237500J0D01*
G01*
G37*
G36*
G01*
X31762500Y-78687500D02*
X32237500Y-78687500D01*
G75*
G02*
X32475000Y-78925000I0J-237500D01*
G01*
X32475000Y-79425000D01*
G75*
G02*
X32237500Y-79662500I-237500J0D01*
G01*
X31762500Y-79662500D01*
G75*
G02*
X31525000Y-79425000I0J237500D01*
G01*
X31525000Y-78925000D01*
G75*
G02*
X31762500Y-78687500I237500J0D01*
G01*
G37*
%TD*%
%TO.C,R66*%
G36*
G01*
X59425000Y-85237500D02*
X59425000Y-84762500D01*
G75*
G02*
X59662500Y-84525000I237500J0D01*
G01*
X60162500Y-84525000D01*
G75*
G02*
X60400000Y-84762500I0J-237500D01*
G01*
X60400000Y-85237500D01*
G75*
G02*
X60162500Y-85475000I-237500J0D01*
G01*
X59662500Y-85475000D01*
G75*
G02*
X59425000Y-85237500I0J237500D01*
G01*
G37*
G36*
G01*
X57600000Y-85237500D02*
X57600000Y-84762500D01*
G75*
G02*
X57837500Y-84525000I237500J0D01*
G01*
X58337500Y-84525000D01*
G75*
G02*
X58575000Y-84762500I0J-237500D01*
G01*
X58575000Y-85237500D01*
G75*
G02*
X58337500Y-85475000I-237500J0D01*
G01*
X57837500Y-85475000D01*
G75*
G02*
X57600000Y-85237500I0J237500D01*
G01*
G37*
%TD*%
%TO.C,R65*%
G36*
G01*
X62487500Y-83762500D02*
X62487500Y-84237500D01*
G75*
G02*
X62250000Y-84475000I-237500J0D01*
G01*
X61750000Y-84475000D01*
G75*
G02*
X61512500Y-84237500I0J237500D01*
G01*
X61512500Y-83762500D01*
G75*
G02*
X61750000Y-83525000I237500J0D01*
G01*
X62250000Y-83525000D01*
G75*
G02*
X62487500Y-83762500I0J-237500D01*
G01*
G37*
G36*
G01*
X64312500Y-83762500D02*
X64312500Y-84237500D01*
G75*
G02*
X64075000Y-84475000I-237500J0D01*
G01*
X63575000Y-84475000D01*
G75*
G02*
X63337500Y-84237500I0J237500D01*
G01*
X63337500Y-83762500D01*
G75*
G02*
X63575000Y-83525000I237500J0D01*
G01*
X64075000Y-83525000D01*
G75*
G02*
X64312500Y-83762500I0J-237500D01*
G01*
G37*
%TD*%
%TO.C,R64*%
G36*
G01*
X58487500Y-78762500D02*
X58487500Y-79237500D01*
G75*
G02*
X58250000Y-79475000I-237500J0D01*
G01*
X57750000Y-79475000D01*
G75*
G02*
X57512500Y-79237500I0J237500D01*
G01*
X57512500Y-78762500D01*
G75*
G02*
X57750000Y-78525000I237500J0D01*
G01*
X58250000Y-78525000D01*
G75*
G02*
X58487500Y-78762500I0J-237500D01*
G01*
G37*
G36*
G01*
X60312500Y-78762500D02*
X60312500Y-79237500D01*
G75*
G02*
X60075000Y-79475000I-237500J0D01*
G01*
X59575000Y-79475000D01*
G75*
G02*
X59337500Y-79237500I0J237500D01*
G01*
X59337500Y-78762500D01*
G75*
G02*
X59575000Y-78525000I237500J0D01*
G01*
X60075000Y-78525000D01*
G75*
G02*
X60312500Y-78762500I0J-237500D01*
G01*
G37*
%TD*%
%TO.C,R63*%
G36*
G01*
X61762500Y-80512500D02*
X62237500Y-80512500D01*
G75*
G02*
X62475000Y-80750000I0J-237500D01*
G01*
X62475000Y-81250000D01*
G75*
G02*
X62237500Y-81487500I-237500J0D01*
G01*
X61762500Y-81487500D01*
G75*
G02*
X61525000Y-81250000I0J237500D01*
G01*
X61525000Y-80750000D01*
G75*
G02*
X61762500Y-80512500I237500J0D01*
G01*
G37*
G36*
G01*
X61762500Y-78687500D02*
X62237500Y-78687500D01*
G75*
G02*
X62475000Y-78925000I0J-237500D01*
G01*
X62475000Y-79425000D01*
G75*
G02*
X62237500Y-79662500I-237500J0D01*
G01*
X61762500Y-79662500D01*
G75*
G02*
X61525000Y-79425000I0J237500D01*
G01*
X61525000Y-78925000D01*
G75*
G02*
X61762500Y-78687500I237500J0D01*
G01*
G37*
%TD*%
%TO.C,R62*%
G36*
G01*
X49512500Y-85237500D02*
X49512500Y-84762500D01*
G75*
G02*
X49750000Y-84525000I237500J0D01*
G01*
X50250000Y-84525000D01*
G75*
G02*
X50487500Y-84762500I0J-237500D01*
G01*
X50487500Y-85237500D01*
G75*
G02*
X50250000Y-85475000I-237500J0D01*
G01*
X49750000Y-85475000D01*
G75*
G02*
X49512500Y-85237500I0J237500D01*
G01*
G37*
G36*
G01*
X47687500Y-85237500D02*
X47687500Y-84762500D01*
G75*
G02*
X47925000Y-84525000I237500J0D01*
G01*
X48425000Y-84525000D01*
G75*
G02*
X48662500Y-84762500I0J-237500D01*
G01*
X48662500Y-85237500D01*
G75*
G02*
X48425000Y-85475000I-237500J0D01*
G01*
X47925000Y-85475000D01*
G75*
G02*
X47687500Y-85237500I0J237500D01*
G01*
G37*
%TD*%
%TO.C,R61*%
G36*
G01*
X52662500Y-83762500D02*
X52662500Y-84237500D01*
G75*
G02*
X52425000Y-84475000I-237500J0D01*
G01*
X51925000Y-84475000D01*
G75*
G02*
X51687500Y-84237500I0J237500D01*
G01*
X51687500Y-83762500D01*
G75*
G02*
X51925000Y-83525000I237500J0D01*
G01*
X52425000Y-83525000D01*
G75*
G02*
X52662500Y-83762500I0J-237500D01*
G01*
G37*
G36*
G01*
X54487500Y-83762500D02*
X54487500Y-84237500D01*
G75*
G02*
X54250000Y-84475000I-237500J0D01*
G01*
X53750000Y-84475000D01*
G75*
G02*
X53512500Y-84237500I0J237500D01*
G01*
X53512500Y-83762500D01*
G75*
G02*
X53750000Y-83525000I237500J0D01*
G01*
X54250000Y-83525000D01*
G75*
G02*
X54487500Y-83762500I0J-237500D01*
G01*
G37*
%TD*%
%TO.C,R60*%
G36*
G01*
X48487500Y-78762500D02*
X48487500Y-79237500D01*
G75*
G02*
X48250000Y-79475000I-237500J0D01*
G01*
X47750000Y-79475000D01*
G75*
G02*
X47512500Y-79237500I0J237500D01*
G01*
X47512500Y-78762500D01*
G75*
G02*
X47750000Y-78525000I237500J0D01*
G01*
X48250000Y-78525000D01*
G75*
G02*
X48487500Y-78762500I0J-237500D01*
G01*
G37*
G36*
G01*
X50312500Y-78762500D02*
X50312500Y-79237500D01*
G75*
G02*
X50075000Y-79475000I-237500J0D01*
G01*
X49575000Y-79475000D01*
G75*
G02*
X49337500Y-79237500I0J237500D01*
G01*
X49337500Y-78762500D01*
G75*
G02*
X49575000Y-78525000I237500J0D01*
G01*
X50075000Y-78525000D01*
G75*
G02*
X50312500Y-78762500I0J-237500D01*
G01*
G37*
%TD*%
%TO.C,R59*%
G36*
G01*
X51762500Y-80512500D02*
X52237500Y-80512500D01*
G75*
G02*
X52475000Y-80750000I0J-237500D01*
G01*
X52475000Y-81250000D01*
G75*
G02*
X52237500Y-81487500I-237500J0D01*
G01*
X51762500Y-81487500D01*
G75*
G02*
X51525000Y-81250000I0J237500D01*
G01*
X51525000Y-80750000D01*
G75*
G02*
X51762500Y-80512500I237500J0D01*
G01*
G37*
G36*
G01*
X51762500Y-78687500D02*
X52237500Y-78687500D01*
G75*
G02*
X52475000Y-78925000I0J-237500D01*
G01*
X52475000Y-79425000D01*
G75*
G02*
X52237500Y-79662500I-237500J0D01*
G01*
X51762500Y-79662500D01*
G75*
G02*
X51525000Y-79425000I0J237500D01*
G01*
X51525000Y-78925000D01*
G75*
G02*
X51762500Y-78687500I237500J0D01*
G01*
G37*
%TD*%
%TO.C,R58*%
G36*
G01*
X23662500Y-85762500D02*
X23662500Y-86237500D01*
G75*
G02*
X23425000Y-86475000I-237500J0D01*
G01*
X22925000Y-86475000D01*
G75*
G02*
X22687500Y-86237500I0J237500D01*
G01*
X22687500Y-85762500D01*
G75*
G02*
X22925000Y-85525000I237500J0D01*
G01*
X23425000Y-85525000D01*
G75*
G02*
X23662500Y-85762500I0J-237500D01*
G01*
G37*
G36*
G01*
X25487500Y-85762500D02*
X25487500Y-86237500D01*
G75*
G02*
X25250000Y-86475000I-237500J0D01*
G01*
X24750000Y-86475000D01*
G75*
G02*
X24512500Y-86237500I0J237500D01*
G01*
X24512500Y-85762500D01*
G75*
G02*
X24750000Y-85525000I237500J0D01*
G01*
X25250000Y-85525000D01*
G75*
G02*
X25487500Y-85762500I0J-237500D01*
G01*
G37*
%TD*%
%TO.C,R57*%
G36*
G01*
X24512500Y-80237500D02*
X24512500Y-79762500D01*
G75*
G02*
X24750000Y-79525000I237500J0D01*
G01*
X25250000Y-79525000D01*
G75*
G02*
X25487500Y-79762500I0J-237500D01*
G01*
X25487500Y-80237500D01*
G75*
G02*
X25250000Y-80475000I-237500J0D01*
G01*
X24750000Y-80475000D01*
G75*
G02*
X24512500Y-80237500I0J237500D01*
G01*
G37*
G36*
G01*
X22687500Y-80237500D02*
X22687500Y-79762500D01*
G75*
G02*
X22925000Y-79525000I237500J0D01*
G01*
X23425000Y-79525000D01*
G75*
G02*
X23662500Y-79762500I0J-237500D01*
G01*
X23662500Y-80237500D01*
G75*
G02*
X23425000Y-80475000I-237500J0D01*
G01*
X22925000Y-80475000D01*
G75*
G02*
X22687500Y-80237500I0J237500D01*
G01*
G37*
%TD*%
%TO.C,R56*%
G36*
G01*
X106487500Y-85762500D02*
X106487500Y-86237500D01*
G75*
G02*
X106250000Y-86475000I-237500J0D01*
G01*
X105750000Y-86475000D01*
G75*
G02*
X105512500Y-86237500I0J237500D01*
G01*
X105512500Y-85762500D01*
G75*
G02*
X105750000Y-85525000I237500J0D01*
G01*
X106250000Y-85525000D01*
G75*
G02*
X106487500Y-85762500I0J-237500D01*
G01*
G37*
G36*
G01*
X108312500Y-85762500D02*
X108312500Y-86237500D01*
G75*
G02*
X108075000Y-86475000I-237500J0D01*
G01*
X107575000Y-86475000D01*
G75*
G02*
X107337500Y-86237500I0J237500D01*
G01*
X107337500Y-85762500D01*
G75*
G02*
X107575000Y-85525000I237500J0D01*
G01*
X108075000Y-85525000D01*
G75*
G02*
X108312500Y-85762500I0J-237500D01*
G01*
G37*
%TD*%
%TO.C,R55*%
G36*
G01*
X107512500Y-80237500D02*
X107512500Y-79762500D01*
G75*
G02*
X107750000Y-79525000I237500J0D01*
G01*
X108250000Y-79525000D01*
G75*
G02*
X108487500Y-79762500I0J-237500D01*
G01*
X108487500Y-80237500D01*
G75*
G02*
X108250000Y-80475000I-237500J0D01*
G01*
X107750000Y-80475000D01*
G75*
G02*
X107512500Y-80237500I0J237500D01*
G01*
G37*
G36*
G01*
X105687500Y-80237500D02*
X105687500Y-79762500D01*
G75*
G02*
X105925000Y-79525000I237500J0D01*
G01*
X106425000Y-79525000D01*
G75*
G02*
X106662500Y-79762500I0J-237500D01*
G01*
X106662500Y-80237500D01*
G75*
G02*
X106425000Y-80475000I-237500J0D01*
G01*
X105925000Y-80475000D01*
G75*
G02*
X105687500Y-80237500I0J237500D01*
G01*
G37*
%TD*%
%TO.C,R104*%
G36*
G01*
X23575000Y-75762500D02*
X23575000Y-76237500D01*
G75*
G02*
X23337500Y-76475000I-237500J0D01*
G01*
X22837500Y-76475000D01*
G75*
G02*
X22600000Y-76237500I0J237500D01*
G01*
X22600000Y-75762500D01*
G75*
G02*
X22837500Y-75525000I237500J0D01*
G01*
X23337500Y-75525000D01*
G75*
G02*
X23575000Y-75762500I0J-237500D01*
G01*
G37*
G36*
G01*
X25400000Y-75762500D02*
X25400000Y-76237500D01*
G75*
G02*
X25162500Y-76475000I-237500J0D01*
G01*
X24662500Y-76475000D01*
G75*
G02*
X24425000Y-76237500I0J237500D01*
G01*
X24425000Y-75762500D01*
G75*
G02*
X24662500Y-75525000I237500J0D01*
G01*
X25162500Y-75525000D01*
G75*
G02*
X25400000Y-75762500I0J-237500D01*
G01*
G37*
%TD*%
%TO.C,R103*%
G36*
G01*
X30662500Y-75762500D02*
X30662500Y-76237500D01*
G75*
G02*
X30425000Y-76475000I-237500J0D01*
G01*
X29925000Y-76475000D01*
G75*
G02*
X29687500Y-76237500I0J237500D01*
G01*
X29687500Y-75762500D01*
G75*
G02*
X29925000Y-75525000I237500J0D01*
G01*
X30425000Y-75525000D01*
G75*
G02*
X30662500Y-75762500I0J-237500D01*
G01*
G37*
G36*
G01*
X32487500Y-75762500D02*
X32487500Y-76237500D01*
G75*
G02*
X32250000Y-76475000I-237500J0D01*
G01*
X31750000Y-76475000D01*
G75*
G02*
X31512500Y-76237500I0J237500D01*
G01*
X31512500Y-75762500D01*
G75*
G02*
X31750000Y-75525000I237500J0D01*
G01*
X32250000Y-75525000D01*
G75*
G02*
X32487500Y-75762500I0J-237500D01*
G01*
G37*
%TD*%
%TO.C,R102*%
G36*
G01*
X38662500Y-75762500D02*
X38662500Y-76237500D01*
G75*
G02*
X38425000Y-76475000I-237500J0D01*
G01*
X37925000Y-76475000D01*
G75*
G02*
X37687500Y-76237500I0J237500D01*
G01*
X37687500Y-75762500D01*
G75*
G02*
X37925000Y-75525000I237500J0D01*
G01*
X38425000Y-75525000D01*
G75*
G02*
X38662500Y-75762500I0J-237500D01*
G01*
G37*
G36*
G01*
X40487500Y-75762500D02*
X40487500Y-76237500D01*
G75*
G02*
X40250000Y-76475000I-237500J0D01*
G01*
X39750000Y-76475000D01*
G75*
G02*
X39512500Y-76237500I0J237500D01*
G01*
X39512500Y-75762500D01*
G75*
G02*
X39750000Y-75525000I237500J0D01*
G01*
X40250000Y-75525000D01*
G75*
G02*
X40487500Y-75762500I0J-237500D01*
G01*
G37*
%TD*%
%TO.C,R101*%
G36*
G01*
X45575000Y-75762500D02*
X45575000Y-76237500D01*
G75*
G02*
X45337500Y-76475000I-237500J0D01*
G01*
X44837500Y-76475000D01*
G75*
G02*
X44600000Y-76237500I0J237500D01*
G01*
X44600000Y-75762500D01*
G75*
G02*
X44837500Y-75525000I237500J0D01*
G01*
X45337500Y-75525000D01*
G75*
G02*
X45575000Y-75762500I0J-237500D01*
G01*
G37*
G36*
G01*
X47400000Y-75762500D02*
X47400000Y-76237500D01*
G75*
G02*
X47162500Y-76475000I-237500J0D01*
G01*
X46662500Y-76475000D01*
G75*
G02*
X46425000Y-76237500I0J237500D01*
G01*
X46425000Y-75762500D01*
G75*
G02*
X46662500Y-75525000I237500J0D01*
G01*
X47162500Y-75525000D01*
G75*
G02*
X47400000Y-75762500I0J-237500D01*
G01*
G37*
%TD*%
%TO.C,R100*%
G36*
G01*
X52575000Y-75762500D02*
X52575000Y-76237500D01*
G75*
G02*
X52337500Y-76475000I-237500J0D01*
G01*
X51837500Y-76475000D01*
G75*
G02*
X51600000Y-76237500I0J237500D01*
G01*
X51600000Y-75762500D01*
G75*
G02*
X51837500Y-75525000I237500J0D01*
G01*
X52337500Y-75525000D01*
G75*
G02*
X52575000Y-75762500I0J-237500D01*
G01*
G37*
G36*
G01*
X54400000Y-75762500D02*
X54400000Y-76237500D01*
G75*
G02*
X54162500Y-76475000I-237500J0D01*
G01*
X53662500Y-76475000D01*
G75*
G02*
X53425000Y-76237500I0J237500D01*
G01*
X53425000Y-75762500D01*
G75*
G02*
X53662500Y-75525000I237500J0D01*
G01*
X54162500Y-75525000D01*
G75*
G02*
X54400000Y-75762500I0J-237500D01*
G01*
G37*
%TD*%
%TO.C,R99*%
G36*
G01*
X60575000Y-75762500D02*
X60575000Y-76237500D01*
G75*
G02*
X60337500Y-76475000I-237500J0D01*
G01*
X59837500Y-76475000D01*
G75*
G02*
X59600000Y-76237500I0J237500D01*
G01*
X59600000Y-75762500D01*
G75*
G02*
X59837500Y-75525000I237500J0D01*
G01*
X60337500Y-75525000D01*
G75*
G02*
X60575000Y-75762500I0J-237500D01*
G01*
G37*
G36*
G01*
X62400000Y-75762500D02*
X62400000Y-76237500D01*
G75*
G02*
X62162500Y-76475000I-237500J0D01*
G01*
X61662500Y-76475000D01*
G75*
G02*
X61425000Y-76237500I0J237500D01*
G01*
X61425000Y-75762500D01*
G75*
G02*
X61662500Y-75525000I237500J0D01*
G01*
X62162500Y-75525000D01*
G75*
G02*
X62400000Y-75762500I0J-237500D01*
G01*
G37*
%TD*%
%TO.C,R98*%
G36*
G01*
X68575000Y-75762500D02*
X68575000Y-76237500D01*
G75*
G02*
X68337500Y-76475000I-237500J0D01*
G01*
X67837500Y-76475000D01*
G75*
G02*
X67600000Y-76237500I0J237500D01*
G01*
X67600000Y-75762500D01*
G75*
G02*
X67837500Y-75525000I237500J0D01*
G01*
X68337500Y-75525000D01*
G75*
G02*
X68575000Y-75762500I0J-237500D01*
G01*
G37*
G36*
G01*
X70400000Y-75762500D02*
X70400000Y-76237500D01*
G75*
G02*
X70162500Y-76475000I-237500J0D01*
G01*
X69662500Y-76475000D01*
G75*
G02*
X69425000Y-76237500I0J237500D01*
G01*
X69425000Y-75762500D01*
G75*
G02*
X69662500Y-75525000I237500J0D01*
G01*
X70162500Y-75525000D01*
G75*
G02*
X70400000Y-75762500I0J-237500D01*
G01*
G37*
%TD*%
%TO.C,R97*%
G36*
G01*
X75575000Y-75762500D02*
X75575000Y-76237500D01*
G75*
G02*
X75337500Y-76475000I-237500J0D01*
G01*
X74837500Y-76475000D01*
G75*
G02*
X74600000Y-76237500I0J237500D01*
G01*
X74600000Y-75762500D01*
G75*
G02*
X74837500Y-75525000I237500J0D01*
G01*
X75337500Y-75525000D01*
G75*
G02*
X75575000Y-75762500I0J-237500D01*
G01*
G37*
G36*
G01*
X77400000Y-75762500D02*
X77400000Y-76237500D01*
G75*
G02*
X77162500Y-76475000I-237500J0D01*
G01*
X76662500Y-76475000D01*
G75*
G02*
X76425000Y-76237500I0J237500D01*
G01*
X76425000Y-75762500D01*
G75*
G02*
X76662500Y-75525000I237500J0D01*
G01*
X77162500Y-75525000D01*
G75*
G02*
X77400000Y-75762500I0J-237500D01*
G01*
G37*
%TD*%
%TO.C,R96*%
G36*
G01*
X82575000Y-75762500D02*
X82575000Y-76237500D01*
G75*
G02*
X82337500Y-76475000I-237500J0D01*
G01*
X81837500Y-76475000D01*
G75*
G02*
X81600000Y-76237500I0J237500D01*
G01*
X81600000Y-75762500D01*
G75*
G02*
X81837500Y-75525000I237500J0D01*
G01*
X82337500Y-75525000D01*
G75*
G02*
X82575000Y-75762500I0J-237500D01*
G01*
G37*
G36*
G01*
X84400000Y-75762500D02*
X84400000Y-76237500D01*
G75*
G02*
X84162500Y-76475000I-237500J0D01*
G01*
X83662500Y-76475000D01*
G75*
G02*
X83425000Y-76237500I0J237500D01*
G01*
X83425000Y-75762500D01*
G75*
G02*
X83662500Y-75525000I237500J0D01*
G01*
X84162500Y-75525000D01*
G75*
G02*
X84400000Y-75762500I0J-237500D01*
G01*
G37*
%TD*%
%TO.C,R95*%
G36*
G01*
X90075000Y-75762500D02*
X90075000Y-76237500D01*
G75*
G02*
X89837500Y-76475000I-237500J0D01*
G01*
X89337500Y-76475000D01*
G75*
G02*
X89100000Y-76237500I0J237500D01*
G01*
X89100000Y-75762500D01*
G75*
G02*
X89337500Y-75525000I237500J0D01*
G01*
X89837500Y-75525000D01*
G75*
G02*
X90075000Y-75762500I0J-237500D01*
G01*
G37*
G36*
G01*
X91900000Y-75762500D02*
X91900000Y-76237500D01*
G75*
G02*
X91662500Y-76475000I-237500J0D01*
G01*
X91162500Y-76475000D01*
G75*
G02*
X90925000Y-76237500I0J237500D01*
G01*
X90925000Y-75762500D01*
G75*
G02*
X91162500Y-75525000I237500J0D01*
G01*
X91662500Y-75525000D01*
G75*
G02*
X91900000Y-75762500I0J-237500D01*
G01*
G37*
%TD*%
%TO.C,R94*%
G36*
G01*
X95262500Y-74925000D02*
X95737500Y-74925000D01*
G75*
G02*
X95975000Y-75162500I0J-237500D01*
G01*
X95975000Y-75662500D01*
G75*
G02*
X95737500Y-75900000I-237500J0D01*
G01*
X95262500Y-75900000D01*
G75*
G02*
X95025000Y-75662500I0J237500D01*
G01*
X95025000Y-75162500D01*
G75*
G02*
X95262500Y-74925000I237500J0D01*
G01*
G37*
G36*
G01*
X95262500Y-73100000D02*
X95737500Y-73100000D01*
G75*
G02*
X95975000Y-73337500I0J-237500D01*
G01*
X95975000Y-73837500D01*
G75*
G02*
X95737500Y-74075000I-237500J0D01*
G01*
X95262500Y-74075000D01*
G75*
G02*
X95025000Y-73837500I0J237500D01*
G01*
X95025000Y-73337500D01*
G75*
G02*
X95262500Y-73100000I237500J0D01*
G01*
G37*
%TD*%
%TO.C,R93*%
G36*
G01*
X101425000Y-76237500D02*
X101425000Y-75762500D01*
G75*
G02*
X101662500Y-75525000I237500J0D01*
G01*
X102162500Y-75525000D01*
G75*
G02*
X102400000Y-75762500I0J-237500D01*
G01*
X102400000Y-76237500D01*
G75*
G02*
X102162500Y-76475000I-237500J0D01*
G01*
X101662500Y-76475000D01*
G75*
G02*
X101425000Y-76237500I0J237500D01*
G01*
G37*
G36*
G01*
X99600000Y-76237500D02*
X99600000Y-75762500D01*
G75*
G02*
X99837500Y-75525000I237500J0D01*
G01*
X100337500Y-75525000D01*
G75*
G02*
X100575000Y-75762500I0J-237500D01*
G01*
X100575000Y-76237500D01*
G75*
G02*
X100337500Y-76475000I-237500J0D01*
G01*
X99837500Y-76475000D01*
G75*
G02*
X99600000Y-76237500I0J237500D01*
G01*
G37*
%TD*%
%TO.C,R92*%
G36*
G01*
X108425000Y-76237500D02*
X108425000Y-75762500D01*
G75*
G02*
X108662500Y-75525000I237500J0D01*
G01*
X109162500Y-75525000D01*
G75*
G02*
X109400000Y-75762500I0J-237500D01*
G01*
X109400000Y-76237500D01*
G75*
G02*
X109162500Y-76475000I-237500J0D01*
G01*
X108662500Y-76475000D01*
G75*
G02*
X108425000Y-76237500I0J237500D01*
G01*
G37*
G36*
G01*
X106600000Y-76237500D02*
X106600000Y-75762500D01*
G75*
G02*
X106837500Y-75525000I237500J0D01*
G01*
X107337500Y-75525000D01*
G75*
G02*
X107575000Y-75762500I0J-237500D01*
G01*
X107575000Y-76237500D01*
G75*
G02*
X107337500Y-76475000I-237500J0D01*
G01*
X106837500Y-76475000D01*
G75*
G02*
X106600000Y-76237500I0J237500D01*
G01*
G37*
%TD*%
%TO.C,R91*%
G36*
G01*
X116425000Y-76237500D02*
X116425000Y-75762500D01*
G75*
G02*
X116662500Y-75525000I237500J0D01*
G01*
X117162500Y-75525000D01*
G75*
G02*
X117400000Y-75762500I0J-237500D01*
G01*
X117400000Y-76237500D01*
G75*
G02*
X117162500Y-76475000I-237500J0D01*
G01*
X116662500Y-76475000D01*
G75*
G02*
X116425000Y-76237500I0J237500D01*
G01*
G37*
G36*
G01*
X114600000Y-76237500D02*
X114600000Y-75762500D01*
G75*
G02*
X114837500Y-75525000I237500J0D01*
G01*
X115337500Y-75525000D01*
G75*
G02*
X115575000Y-75762500I0J-237500D01*
G01*
X115575000Y-76237500D01*
G75*
G02*
X115337500Y-76475000I-237500J0D01*
G01*
X114837500Y-76475000D01*
G75*
G02*
X114600000Y-76237500I0J237500D01*
G01*
G37*
%TD*%
%TO.C,R90*%
G36*
G01*
X87487500Y-50762500D02*
X87487500Y-51237500D01*
G75*
G02*
X87250000Y-51475000I-237500J0D01*
G01*
X86750000Y-51475000D01*
G75*
G02*
X86512500Y-51237500I0J237500D01*
G01*
X86512500Y-50762500D01*
G75*
G02*
X86750000Y-50525000I237500J0D01*
G01*
X87250000Y-50525000D01*
G75*
G02*
X87487500Y-50762500I0J-237500D01*
G01*
G37*
G36*
G01*
X89312500Y-50762500D02*
X89312500Y-51237500D01*
G75*
G02*
X89075000Y-51475000I-237500J0D01*
G01*
X88575000Y-51475000D01*
G75*
G02*
X88337500Y-51237500I0J237500D01*
G01*
X88337500Y-50762500D01*
G75*
G02*
X88575000Y-50525000I237500J0D01*
G01*
X89075000Y-50525000D01*
G75*
G02*
X89312500Y-50762500I0J-237500D01*
G01*
G37*
%TD*%
%TO.C,R89*%
G36*
G01*
X87575000Y-52762500D02*
X87575000Y-53237500D01*
G75*
G02*
X87337500Y-53475000I-237500J0D01*
G01*
X86837500Y-53475000D01*
G75*
G02*
X86600000Y-53237500I0J237500D01*
G01*
X86600000Y-52762500D01*
G75*
G02*
X86837500Y-52525000I237500J0D01*
G01*
X87337500Y-52525000D01*
G75*
G02*
X87575000Y-52762500I0J-237500D01*
G01*
G37*
G36*
G01*
X89400000Y-52762500D02*
X89400000Y-53237500D01*
G75*
G02*
X89162500Y-53475000I-237500J0D01*
G01*
X88662500Y-53475000D01*
G75*
G02*
X88425000Y-53237500I0J237500D01*
G01*
X88425000Y-52762500D01*
G75*
G02*
X88662500Y-52525000I237500J0D01*
G01*
X89162500Y-52525000D01*
G75*
G02*
X89400000Y-52762500I0J-237500D01*
G01*
G37*
%TD*%
%TO.C,R88*%
G36*
G01*
X87575000Y-54762500D02*
X87575000Y-55237500D01*
G75*
G02*
X87337500Y-55475000I-237500J0D01*
G01*
X86837500Y-55475000D01*
G75*
G02*
X86600000Y-55237500I0J237500D01*
G01*
X86600000Y-54762500D01*
G75*
G02*
X86837500Y-54525000I237500J0D01*
G01*
X87337500Y-54525000D01*
G75*
G02*
X87575000Y-54762500I0J-237500D01*
G01*
G37*
G36*
G01*
X89400000Y-54762500D02*
X89400000Y-55237500D01*
G75*
G02*
X89162500Y-55475000I-237500J0D01*
G01*
X88662500Y-55475000D01*
G75*
G02*
X88425000Y-55237500I0J237500D01*
G01*
X88425000Y-54762500D01*
G75*
G02*
X88662500Y-54525000I237500J0D01*
G01*
X89162500Y-54525000D01*
G75*
G02*
X89400000Y-54762500I0J-237500D01*
G01*
G37*
%TD*%
%TO.C,R85*%
G36*
G01*
X107575000Y-52762500D02*
X107575000Y-53237500D01*
G75*
G02*
X107337500Y-53475000I-237500J0D01*
G01*
X106837500Y-53475000D01*
G75*
G02*
X106600000Y-53237500I0J237500D01*
G01*
X106600000Y-52762500D01*
G75*
G02*
X106837500Y-52525000I237500J0D01*
G01*
X107337500Y-52525000D01*
G75*
G02*
X107575000Y-52762500I0J-237500D01*
G01*
G37*
G36*
G01*
X109400000Y-52762500D02*
X109400000Y-53237500D01*
G75*
G02*
X109162500Y-53475000I-237500J0D01*
G01*
X108662500Y-53475000D01*
G75*
G02*
X108425000Y-53237500I0J237500D01*
G01*
X108425000Y-52762500D01*
G75*
G02*
X108662500Y-52525000I237500J0D01*
G01*
X109162500Y-52525000D01*
G75*
G02*
X109400000Y-52762500I0J-237500D01*
G01*
G37*
%TD*%
%TO.C,R86*%
G36*
G01*
X87575000Y-56762500D02*
X87575000Y-57237500D01*
G75*
G02*
X87337500Y-57475000I-237500J0D01*
G01*
X86837500Y-57475000D01*
G75*
G02*
X86600000Y-57237500I0J237500D01*
G01*
X86600000Y-56762500D01*
G75*
G02*
X86837500Y-56525000I237500J0D01*
G01*
X87337500Y-56525000D01*
G75*
G02*
X87575000Y-56762500I0J-237500D01*
G01*
G37*
G36*
G01*
X89400000Y-56762500D02*
X89400000Y-57237500D01*
G75*
G02*
X89162500Y-57475000I-237500J0D01*
G01*
X88662500Y-57475000D01*
G75*
G02*
X88425000Y-57237500I0J237500D01*
G01*
X88425000Y-56762500D01*
G75*
G02*
X88662500Y-56525000I237500J0D01*
G01*
X89162500Y-56525000D01*
G75*
G02*
X89400000Y-56762500I0J-237500D01*
G01*
G37*
%TD*%
%TO.C,R83*%
G36*
G01*
X107487500Y-54762500D02*
X107487500Y-55237500D01*
G75*
G02*
X107250000Y-55475000I-237500J0D01*
G01*
X106750000Y-55475000D01*
G75*
G02*
X106512500Y-55237500I0J237500D01*
G01*
X106512500Y-54762500D01*
G75*
G02*
X106750000Y-54525000I237500J0D01*
G01*
X107250000Y-54525000D01*
G75*
G02*
X107487500Y-54762500I0J-237500D01*
G01*
G37*
G36*
G01*
X109312500Y-54762500D02*
X109312500Y-55237500D01*
G75*
G02*
X109075000Y-55475000I-237500J0D01*
G01*
X108575000Y-55475000D01*
G75*
G02*
X108337500Y-55237500I0J237500D01*
G01*
X108337500Y-54762500D01*
G75*
G02*
X108575000Y-54525000I237500J0D01*
G01*
X109075000Y-54525000D01*
G75*
G02*
X109312500Y-54762500I0J-237500D01*
G01*
G37*
%TD*%
%TO.C,R84*%
G36*
G01*
X72425000Y-57237500D02*
X72425000Y-56762500D01*
G75*
G02*
X72662500Y-56525000I237500J0D01*
G01*
X73162500Y-56525000D01*
G75*
G02*
X73400000Y-56762500I0J-237500D01*
G01*
X73400000Y-57237500D01*
G75*
G02*
X73162500Y-57475000I-237500J0D01*
G01*
X72662500Y-57475000D01*
G75*
G02*
X72425000Y-57237500I0J237500D01*
G01*
G37*
G36*
G01*
X70600000Y-57237500D02*
X70600000Y-56762500D01*
G75*
G02*
X70837500Y-56525000I237500J0D01*
G01*
X71337500Y-56525000D01*
G75*
G02*
X71575000Y-56762500I0J-237500D01*
G01*
X71575000Y-57237500D01*
G75*
G02*
X71337500Y-57475000I-237500J0D01*
G01*
X70837500Y-57475000D01*
G75*
G02*
X70600000Y-57237500I0J237500D01*
G01*
G37*
%TD*%
%TO.C,R81*%
G36*
G01*
X107575000Y-56762500D02*
X107575000Y-57237500D01*
G75*
G02*
X107337500Y-57475000I-237500J0D01*
G01*
X106837500Y-57475000D01*
G75*
G02*
X106600000Y-57237500I0J237500D01*
G01*
X106600000Y-56762500D01*
G75*
G02*
X106837500Y-56525000I237500J0D01*
G01*
X107337500Y-56525000D01*
G75*
G02*
X107575000Y-56762500I0J-237500D01*
G01*
G37*
G36*
G01*
X109400000Y-56762500D02*
X109400000Y-57237500D01*
G75*
G02*
X109162500Y-57475000I-237500J0D01*
G01*
X108662500Y-57475000D01*
G75*
G02*
X108425000Y-57237500I0J237500D01*
G01*
X108425000Y-56762500D01*
G75*
G02*
X108662500Y-56525000I237500J0D01*
G01*
X109162500Y-56525000D01*
G75*
G02*
X109400000Y-56762500I0J-237500D01*
G01*
G37*
%TD*%
%TO.C,R82*%
G36*
G01*
X72425000Y-55237500D02*
X72425000Y-54762500D01*
G75*
G02*
X72662500Y-54525000I237500J0D01*
G01*
X73162500Y-54525000D01*
G75*
G02*
X73400000Y-54762500I0J-237500D01*
G01*
X73400000Y-55237500D01*
G75*
G02*
X73162500Y-55475000I-237500J0D01*
G01*
X72662500Y-55475000D01*
G75*
G02*
X72425000Y-55237500I0J237500D01*
G01*
G37*
G36*
G01*
X70600000Y-55237500D02*
X70600000Y-54762500D01*
G75*
G02*
X70837500Y-54525000I237500J0D01*
G01*
X71337500Y-54525000D01*
G75*
G02*
X71575000Y-54762500I0J-237500D01*
G01*
X71575000Y-55237500D01*
G75*
G02*
X71337500Y-55475000I-237500J0D01*
G01*
X70837500Y-55475000D01*
G75*
G02*
X70600000Y-55237500I0J237500D01*
G01*
G37*
%TD*%
%TO.C,R87*%
G36*
G01*
X107575000Y-50762500D02*
X107575000Y-51237500D01*
G75*
G02*
X107337500Y-51475000I-237500J0D01*
G01*
X106837500Y-51475000D01*
G75*
G02*
X106600000Y-51237500I0J237500D01*
G01*
X106600000Y-50762500D01*
G75*
G02*
X106837500Y-50525000I237500J0D01*
G01*
X107337500Y-50525000D01*
G75*
G02*
X107575000Y-50762500I0J-237500D01*
G01*
G37*
G36*
G01*
X109400000Y-50762500D02*
X109400000Y-51237500D01*
G75*
G02*
X109162500Y-51475000I-237500J0D01*
G01*
X108662500Y-51475000D01*
G75*
G02*
X108425000Y-51237500I0J237500D01*
G01*
X108425000Y-50762500D01*
G75*
G02*
X108662500Y-50525000I237500J0D01*
G01*
X109162500Y-50525000D01*
G75*
G02*
X109400000Y-50762500I0J-237500D01*
G01*
G37*
%TD*%
%TO.C,R80*%
G36*
G01*
X72425000Y-53237500D02*
X72425000Y-52762500D01*
G75*
G02*
X72662500Y-52525000I237500J0D01*
G01*
X73162500Y-52525000D01*
G75*
G02*
X73400000Y-52762500I0J-237500D01*
G01*
X73400000Y-53237500D01*
G75*
G02*
X73162500Y-53475000I-237500J0D01*
G01*
X72662500Y-53475000D01*
G75*
G02*
X72425000Y-53237500I0J237500D01*
G01*
G37*
G36*
G01*
X70600000Y-53237500D02*
X70600000Y-52762500D01*
G75*
G02*
X70837500Y-52525000I237500J0D01*
G01*
X71337500Y-52525000D01*
G75*
G02*
X71575000Y-52762500I0J-237500D01*
G01*
X71575000Y-53237500D01*
G75*
G02*
X71337500Y-53475000I-237500J0D01*
G01*
X70837500Y-53475000D01*
G75*
G02*
X70600000Y-53237500I0J237500D01*
G01*
G37*
%TD*%
%TO.C,R79*%
G36*
G01*
X92425000Y-53237500D02*
X92425000Y-52762500D01*
G75*
G02*
X92662500Y-52525000I237500J0D01*
G01*
X93162500Y-52525000D01*
G75*
G02*
X93400000Y-52762500I0J-237500D01*
G01*
X93400000Y-53237500D01*
G75*
G02*
X93162500Y-53475000I-237500J0D01*
G01*
X92662500Y-53475000D01*
G75*
G02*
X92425000Y-53237500I0J237500D01*
G01*
G37*
G36*
G01*
X90600000Y-53237500D02*
X90600000Y-52762500D01*
G75*
G02*
X90837500Y-52525000I237500J0D01*
G01*
X91337500Y-52525000D01*
G75*
G02*
X91575000Y-52762500I0J-237500D01*
G01*
X91575000Y-53237500D01*
G75*
G02*
X91337500Y-53475000I-237500J0D01*
G01*
X90837500Y-53475000D01*
G75*
G02*
X90600000Y-53237500I0J237500D01*
G01*
G37*
%TD*%
%TO.C,R78*%
G36*
G01*
X72425000Y-51237500D02*
X72425000Y-50762500D01*
G75*
G02*
X72662500Y-50525000I237500J0D01*
G01*
X73162500Y-50525000D01*
G75*
G02*
X73400000Y-50762500I0J-237500D01*
G01*
X73400000Y-51237500D01*
G75*
G02*
X73162500Y-51475000I-237500J0D01*
G01*
X72662500Y-51475000D01*
G75*
G02*
X72425000Y-51237500I0J237500D01*
G01*
G37*
G36*
G01*
X70600000Y-51237500D02*
X70600000Y-50762500D01*
G75*
G02*
X70837500Y-50525000I237500J0D01*
G01*
X71337500Y-50525000D01*
G75*
G02*
X71575000Y-50762500I0J-237500D01*
G01*
X71575000Y-51237500D01*
G75*
G02*
X71337500Y-51475000I-237500J0D01*
G01*
X70837500Y-51475000D01*
G75*
G02*
X70600000Y-51237500I0J237500D01*
G01*
G37*
%TD*%
%TO.C,R77*%
G36*
G01*
X92425000Y-51237500D02*
X92425000Y-50762500D01*
G75*
G02*
X92662500Y-50525000I237500J0D01*
G01*
X93162500Y-50525000D01*
G75*
G02*
X93400000Y-50762500I0J-237500D01*
G01*
X93400000Y-51237500D01*
G75*
G02*
X93162500Y-51475000I-237500J0D01*
G01*
X92662500Y-51475000D01*
G75*
G02*
X92425000Y-51237500I0J237500D01*
G01*
G37*
G36*
G01*
X90600000Y-51237500D02*
X90600000Y-50762500D01*
G75*
G02*
X90837500Y-50525000I237500J0D01*
G01*
X91337500Y-50525000D01*
G75*
G02*
X91575000Y-50762500I0J-237500D01*
G01*
X91575000Y-51237500D01*
G75*
G02*
X91337500Y-51475000I-237500J0D01*
G01*
X90837500Y-51475000D01*
G75*
G02*
X90600000Y-51237500I0J237500D01*
G01*
G37*
%TD*%
%TO.C,R76*%
G36*
G01*
X87762500Y-45425000D02*
X88237500Y-45425000D01*
G75*
G02*
X88475000Y-45662500I0J-237500D01*
G01*
X88475000Y-46162500D01*
G75*
G02*
X88237500Y-46400000I-237500J0D01*
G01*
X87762500Y-46400000D01*
G75*
G02*
X87525000Y-46162500I0J237500D01*
G01*
X87525000Y-45662500D01*
G75*
G02*
X87762500Y-45425000I237500J0D01*
G01*
G37*
G36*
G01*
X87762500Y-43600000D02*
X88237500Y-43600000D01*
G75*
G02*
X88475000Y-43837500I0J-237500D01*
G01*
X88475000Y-44337500D01*
G75*
G02*
X88237500Y-44575000I-237500J0D01*
G01*
X87762500Y-44575000D01*
G75*
G02*
X87525000Y-44337500I0J237500D01*
G01*
X87525000Y-43837500D01*
G75*
G02*
X87762500Y-43600000I237500J0D01*
G01*
G37*
%TD*%
%TO.C,R75*%
G36*
G01*
X89762500Y-45425000D02*
X90237500Y-45425000D01*
G75*
G02*
X90475000Y-45662500I0J-237500D01*
G01*
X90475000Y-46162500D01*
G75*
G02*
X90237500Y-46400000I-237500J0D01*
G01*
X89762500Y-46400000D01*
G75*
G02*
X89525000Y-46162500I0J237500D01*
G01*
X89525000Y-45662500D01*
G75*
G02*
X89762500Y-45425000I237500J0D01*
G01*
G37*
G36*
G01*
X89762500Y-43600000D02*
X90237500Y-43600000D01*
G75*
G02*
X90475000Y-43837500I0J-237500D01*
G01*
X90475000Y-44337500D01*
G75*
G02*
X90237500Y-44575000I-237500J0D01*
G01*
X89762500Y-44575000D01*
G75*
G02*
X89525000Y-44337500I0J237500D01*
G01*
X89525000Y-43837500D01*
G75*
G02*
X89762500Y-43600000I237500J0D01*
G01*
G37*
%TD*%
%TO.C,R54*%
G36*
G01*
X59237500Y-13575000D02*
X58762500Y-13575000D01*
G75*
G02*
X58525000Y-13337500I0J237500D01*
G01*
X58525000Y-12837500D01*
G75*
G02*
X58762500Y-12600000I237500J0D01*
G01*
X59237500Y-12600000D01*
G75*
G02*
X59475000Y-12837500I0J-237500D01*
G01*
X59475000Y-13337500D01*
G75*
G02*
X59237500Y-13575000I-237500J0D01*
G01*
G37*
G36*
G01*
X59237500Y-15400000D02*
X58762500Y-15400000D01*
G75*
G02*
X58525000Y-15162500I0J237500D01*
G01*
X58525000Y-14662500D01*
G75*
G02*
X58762500Y-14425000I237500J0D01*
G01*
X59237500Y-14425000D01*
G75*
G02*
X59475000Y-14662500I0J-237500D01*
G01*
X59475000Y-15162500D01*
G75*
G02*
X59237500Y-15400000I-237500J0D01*
G01*
G37*
%TD*%
%TO.C,R53*%
G36*
G01*
X57237500Y-13575000D02*
X56762500Y-13575000D01*
G75*
G02*
X56525000Y-13337500I0J237500D01*
G01*
X56525000Y-12837500D01*
G75*
G02*
X56762500Y-12600000I237500J0D01*
G01*
X57237500Y-12600000D01*
G75*
G02*
X57475000Y-12837500I0J-237500D01*
G01*
X57475000Y-13337500D01*
G75*
G02*
X57237500Y-13575000I-237500J0D01*
G01*
G37*
G36*
G01*
X57237500Y-15400000D02*
X56762500Y-15400000D01*
G75*
G02*
X56525000Y-15162500I0J237500D01*
G01*
X56525000Y-14662500D01*
G75*
G02*
X56762500Y-14425000I237500J0D01*
G01*
X57237500Y-14425000D01*
G75*
G02*
X57475000Y-14662500I0J-237500D01*
G01*
X57475000Y-15162500D01*
G75*
G02*
X57237500Y-15400000I-237500J0D01*
G01*
G37*
%TD*%
%TO.C,R52*%
G36*
G01*
X53600000Y-9549999D02*
X53600000Y-10450001D01*
G75*
G02*
X53350001Y-10700000I-249999J0D01*
G01*
X52649999Y-10700000D01*
G75*
G02*
X52400000Y-10450001I0J249999D01*
G01*
X52400000Y-9549999D01*
G75*
G02*
X52649999Y-9300000I249999J0D01*
G01*
X53350001Y-9300000D01*
G75*
G02*
X53600000Y-9549999I0J-249999D01*
G01*
G37*
G36*
G01*
X55600000Y-9549999D02*
X55600000Y-10450001D01*
G75*
G02*
X55350001Y-10700000I-249999J0D01*
G01*
X54649999Y-10700000D01*
G75*
G02*
X54400000Y-10450001I0J249999D01*
G01*
X54400000Y-9549999D01*
G75*
G02*
X54649999Y-9300000I249999J0D01*
G01*
X55350001Y-9300000D01*
G75*
G02*
X55600000Y-9549999I0J-249999D01*
G01*
G37*
%TD*%
%TO.C,R51*%
G36*
G01*
X58400000Y-5450001D02*
X58400000Y-4549999D01*
G75*
G02*
X58649999Y-4300000I249999J0D01*
G01*
X59350001Y-4300000D01*
G75*
G02*
X59600000Y-4549999I0J-249999D01*
G01*
X59600000Y-5450001D01*
G75*
G02*
X59350001Y-5700000I-249999J0D01*
G01*
X58649999Y-5700000D01*
G75*
G02*
X58400000Y-5450001I0J249999D01*
G01*
G37*
G36*
G01*
X56400000Y-5450001D02*
X56400000Y-4549999D01*
G75*
G02*
X56649999Y-4300000I249999J0D01*
G01*
X57350001Y-4300000D01*
G75*
G02*
X57600000Y-4549999I0J-249999D01*
G01*
X57600000Y-5450001D01*
G75*
G02*
X57350001Y-5700000I-249999J0D01*
G01*
X56649999Y-5700000D01*
G75*
G02*
X56400000Y-5450001I0J249999D01*
G01*
G37*
%TD*%
%TO.C,R50*%
G36*
G01*
X61425000Y-33237500D02*
X61425000Y-32762500D01*
G75*
G02*
X61662500Y-32525000I237500J0D01*
G01*
X62162500Y-32525000D01*
G75*
G02*
X62400000Y-32762500I0J-237500D01*
G01*
X62400000Y-33237500D01*
G75*
G02*
X62162500Y-33475000I-237500J0D01*
G01*
X61662500Y-33475000D01*
G75*
G02*
X61425000Y-33237500I0J237500D01*
G01*
G37*
G36*
G01*
X59600000Y-33237500D02*
X59600000Y-32762500D01*
G75*
G02*
X59837500Y-32525000I237500J0D01*
G01*
X60337500Y-32525000D01*
G75*
G02*
X60575000Y-32762500I0J-237500D01*
G01*
X60575000Y-33237500D01*
G75*
G02*
X60337500Y-33475000I-237500J0D01*
G01*
X59837500Y-33475000D01*
G75*
G02*
X59600000Y-33237500I0J237500D01*
G01*
G37*
%TD*%
%TO.C,R49*%
G36*
G01*
X10575000Y-3762500D02*
X10575000Y-4237500D01*
G75*
G02*
X10337500Y-4475000I-237500J0D01*
G01*
X9837500Y-4475000D01*
G75*
G02*
X9600000Y-4237500I0J237500D01*
G01*
X9600000Y-3762500D01*
G75*
G02*
X9837500Y-3525000I237500J0D01*
G01*
X10337500Y-3525000D01*
G75*
G02*
X10575000Y-3762500I0J-237500D01*
G01*
G37*
G36*
G01*
X12400000Y-3762500D02*
X12400000Y-4237500D01*
G75*
G02*
X12162500Y-4475000I-237500J0D01*
G01*
X11662500Y-4475000D01*
G75*
G02*
X11425000Y-4237500I0J237500D01*
G01*
X11425000Y-3762500D01*
G75*
G02*
X11662500Y-3525000I237500J0D01*
G01*
X12162500Y-3525000D01*
G75*
G02*
X12400000Y-3762500I0J-237500D01*
G01*
G37*
%TD*%
%TO.C,R48*%
G36*
G01*
X71762500Y-89512500D02*
X72237500Y-89512500D01*
G75*
G02*
X72475000Y-89750000I0J-237500D01*
G01*
X72475000Y-90250000D01*
G75*
G02*
X72237500Y-90487500I-237500J0D01*
G01*
X71762500Y-90487500D01*
G75*
G02*
X71525000Y-90250000I0J237500D01*
G01*
X71525000Y-89750000D01*
G75*
G02*
X71762500Y-89512500I237500J0D01*
G01*
G37*
G36*
G01*
X71762500Y-87687500D02*
X72237500Y-87687500D01*
G75*
G02*
X72475000Y-87925000I0J-237500D01*
G01*
X72475000Y-88425000D01*
G75*
G02*
X72237500Y-88662500I-237500J0D01*
G01*
X71762500Y-88662500D01*
G75*
G02*
X71525000Y-88425000I0J237500D01*
G01*
X71525000Y-87925000D01*
G75*
G02*
X71762500Y-87687500I237500J0D01*
G01*
G37*
%TD*%
%TO.C,R47*%
G36*
G01*
X71762500Y-85512500D02*
X72237500Y-85512500D01*
G75*
G02*
X72475000Y-85750000I0J-237500D01*
G01*
X72475000Y-86250000D01*
G75*
G02*
X72237500Y-86487500I-237500J0D01*
G01*
X71762500Y-86487500D01*
G75*
G02*
X71525000Y-86250000I0J237500D01*
G01*
X71525000Y-85750000D01*
G75*
G02*
X71762500Y-85512500I237500J0D01*
G01*
G37*
G36*
G01*
X71762500Y-83687500D02*
X72237500Y-83687500D01*
G75*
G02*
X72475000Y-83925000I0J-237500D01*
G01*
X72475000Y-84425000D01*
G75*
G02*
X72237500Y-84662500I-237500J0D01*
G01*
X71762500Y-84662500D01*
G75*
G02*
X71525000Y-84425000I0J237500D01*
G01*
X71525000Y-83925000D01*
G75*
G02*
X71762500Y-83687500I237500J0D01*
G01*
G37*
%TD*%
%TO.C,R46*%
G36*
G01*
X80487500Y-89762500D02*
X80487500Y-90237500D01*
G75*
G02*
X80250000Y-90475000I-237500J0D01*
G01*
X79750000Y-90475000D01*
G75*
G02*
X79512500Y-90237500I0J237500D01*
G01*
X79512500Y-89762500D01*
G75*
G02*
X79750000Y-89525000I237500J0D01*
G01*
X80250000Y-89525000D01*
G75*
G02*
X80487500Y-89762500I0J-237500D01*
G01*
G37*
G36*
G01*
X82312500Y-89762500D02*
X82312500Y-90237500D01*
G75*
G02*
X82075000Y-90475000I-237500J0D01*
G01*
X81575000Y-90475000D01*
G75*
G02*
X81337500Y-90237500I0J237500D01*
G01*
X81337500Y-89762500D01*
G75*
G02*
X81575000Y-89525000I237500J0D01*
G01*
X82075000Y-89525000D01*
G75*
G02*
X82312500Y-89762500I0J-237500D01*
G01*
G37*
%TD*%
%TO.C,R45*%
G36*
G01*
X76237500Y-80662500D02*
X75762500Y-80662500D01*
G75*
G02*
X75525000Y-80425000I0J237500D01*
G01*
X75525000Y-79925000D01*
G75*
G02*
X75762500Y-79687500I237500J0D01*
G01*
X76237500Y-79687500D01*
G75*
G02*
X76475000Y-79925000I0J-237500D01*
G01*
X76475000Y-80425000D01*
G75*
G02*
X76237500Y-80662500I-237500J0D01*
G01*
G37*
G36*
G01*
X76237500Y-82487500D02*
X75762500Y-82487500D01*
G75*
G02*
X75525000Y-82250000I0J237500D01*
G01*
X75525000Y-81750000D01*
G75*
G02*
X75762500Y-81512500I237500J0D01*
G01*
X76237500Y-81512500D01*
G75*
G02*
X76475000Y-81750000I0J-237500D01*
G01*
X76475000Y-82250000D01*
G75*
G02*
X76237500Y-82487500I-237500J0D01*
G01*
G37*
%TD*%
%TO.C,R44*%
G36*
G01*
X89450001Y-84600000D02*
X88549999Y-84600000D01*
G75*
G02*
X88300000Y-84350001I0J249999D01*
G01*
X88300000Y-83649999D01*
G75*
G02*
X88549999Y-83400000I249999J0D01*
G01*
X89450001Y-83400000D01*
G75*
G02*
X89700000Y-83649999I0J-249999D01*
G01*
X89700000Y-84350001D01*
G75*
G02*
X89450001Y-84600000I-249999J0D01*
G01*
G37*
G36*
G01*
X89450001Y-86600000D02*
X88549999Y-86600000D01*
G75*
G02*
X88300000Y-86350001I0J249999D01*
G01*
X88300000Y-85649999D01*
G75*
G02*
X88549999Y-85400000I249999J0D01*
G01*
X89450001Y-85400000D01*
G75*
G02*
X89700000Y-85649999I0J-249999D01*
G01*
X89700000Y-86350001D01*
G75*
G02*
X89450001Y-86600000I-249999J0D01*
G01*
G37*
%TD*%
%TO.C,R43*%
G36*
G01*
X88425000Y-4237500D02*
X88425000Y-3762500D01*
G75*
G02*
X88662500Y-3525000I237500J0D01*
G01*
X89162500Y-3525000D01*
G75*
G02*
X89400000Y-3762500I0J-237500D01*
G01*
X89400000Y-4237500D01*
G75*
G02*
X89162500Y-4475000I-237500J0D01*
G01*
X88662500Y-4475000D01*
G75*
G02*
X88425000Y-4237500I0J237500D01*
G01*
G37*
G36*
G01*
X86600000Y-4237500D02*
X86600000Y-3762500D01*
G75*
G02*
X86837500Y-3525000I237500J0D01*
G01*
X87337500Y-3525000D01*
G75*
G02*
X87575000Y-3762500I0J-237500D01*
G01*
X87575000Y-4237500D01*
G75*
G02*
X87337500Y-4475000I-237500J0D01*
G01*
X86837500Y-4475000D01*
G75*
G02*
X86600000Y-4237500I0J237500D01*
G01*
G37*
%TD*%
%TO.C,R42*%
G36*
G01*
X73425000Y-12237500D02*
X73425000Y-11762500D01*
G75*
G02*
X73662500Y-11525000I237500J0D01*
G01*
X74162500Y-11525000D01*
G75*
G02*
X74400000Y-11762500I0J-237500D01*
G01*
X74400000Y-12237500D01*
G75*
G02*
X74162500Y-12475000I-237500J0D01*
G01*
X73662500Y-12475000D01*
G75*
G02*
X73425000Y-12237500I0J237500D01*
G01*
G37*
G36*
G01*
X71600000Y-12237500D02*
X71600000Y-11762500D01*
G75*
G02*
X71837500Y-11525000I237500J0D01*
G01*
X72337500Y-11525000D01*
G75*
G02*
X72575000Y-11762500I0J-237500D01*
G01*
X72575000Y-12237500D01*
G75*
G02*
X72337500Y-12475000I-237500J0D01*
G01*
X71837500Y-12475000D01*
G75*
G02*
X71600000Y-12237500I0J237500D01*
G01*
G37*
%TD*%
%TO.C,R41*%
G36*
G01*
X73425000Y-10237500D02*
X73425000Y-9762500D01*
G75*
G02*
X73662500Y-9525000I237500J0D01*
G01*
X74162500Y-9525000D01*
G75*
G02*
X74400000Y-9762500I0J-237500D01*
G01*
X74400000Y-10237500D01*
G75*
G02*
X74162500Y-10475000I-237500J0D01*
G01*
X73662500Y-10475000D01*
G75*
G02*
X73425000Y-10237500I0J237500D01*
G01*
G37*
G36*
G01*
X71600000Y-10237500D02*
X71600000Y-9762500D01*
G75*
G02*
X71837500Y-9525000I237500J0D01*
G01*
X72337500Y-9525000D01*
G75*
G02*
X72575000Y-9762500I0J-237500D01*
G01*
X72575000Y-10237500D01*
G75*
G02*
X72337500Y-10475000I-237500J0D01*
G01*
X71837500Y-10475000D01*
G75*
G02*
X71600000Y-10237500I0J237500D01*
G01*
G37*
%TD*%
%TO.C,R40*%
G36*
G01*
X65575000Y-46762500D02*
X65575000Y-47237500D01*
G75*
G02*
X65337500Y-47475000I-237500J0D01*
G01*
X64837500Y-47475000D01*
G75*
G02*
X64600000Y-47237500I0J237500D01*
G01*
X64600000Y-46762500D01*
G75*
G02*
X64837500Y-46525000I237500J0D01*
G01*
X65337500Y-46525000D01*
G75*
G02*
X65575000Y-46762500I0J-237500D01*
G01*
G37*
G36*
G01*
X67400000Y-46762500D02*
X67400000Y-47237500D01*
G75*
G02*
X67162500Y-47475000I-237500J0D01*
G01*
X66662500Y-47475000D01*
G75*
G02*
X66425000Y-47237500I0J237500D01*
G01*
X66425000Y-46762500D01*
G75*
G02*
X66662500Y-46525000I237500J0D01*
G01*
X67162500Y-46525000D01*
G75*
G02*
X67400000Y-46762500I0J-237500D01*
G01*
G37*
%TD*%
%TO.C,R39*%
G36*
G01*
X66425000Y-49237500D02*
X66425000Y-48762500D01*
G75*
G02*
X66662500Y-48525000I237500J0D01*
G01*
X67162500Y-48525000D01*
G75*
G02*
X67400000Y-48762500I0J-237500D01*
G01*
X67400000Y-49237500D01*
G75*
G02*
X67162500Y-49475000I-237500J0D01*
G01*
X66662500Y-49475000D01*
G75*
G02*
X66425000Y-49237500I0J237500D01*
G01*
G37*
G36*
G01*
X64600000Y-49237500D02*
X64600000Y-48762500D01*
G75*
G02*
X64837500Y-48525000I237500J0D01*
G01*
X65337500Y-48525000D01*
G75*
G02*
X65575000Y-48762500I0J-237500D01*
G01*
X65575000Y-49237500D01*
G75*
G02*
X65337500Y-49475000I-237500J0D01*
G01*
X64837500Y-49475000D01*
G75*
G02*
X64600000Y-49237500I0J237500D01*
G01*
G37*
%TD*%
%TO.C,R38*%
G36*
G01*
X66425000Y-55237500D02*
X66425000Y-54762500D01*
G75*
G02*
X66662500Y-54525000I237500J0D01*
G01*
X67162500Y-54525000D01*
G75*
G02*
X67400000Y-54762500I0J-237500D01*
G01*
X67400000Y-55237500D01*
G75*
G02*
X67162500Y-55475000I-237500J0D01*
G01*
X66662500Y-55475000D01*
G75*
G02*
X66425000Y-55237500I0J237500D01*
G01*
G37*
G36*
G01*
X64600000Y-55237500D02*
X64600000Y-54762500D01*
G75*
G02*
X64837500Y-54525000I237500J0D01*
G01*
X65337500Y-54525000D01*
G75*
G02*
X65575000Y-54762500I0J-237500D01*
G01*
X65575000Y-55237500D01*
G75*
G02*
X65337500Y-55475000I-237500J0D01*
G01*
X64837500Y-55475000D01*
G75*
G02*
X64600000Y-55237500I0J237500D01*
G01*
G37*
%TD*%
%TO.C,R37*%
G36*
G01*
X65237500Y-57575000D02*
X64762500Y-57575000D01*
G75*
G02*
X64525000Y-57337500I0J237500D01*
G01*
X64525000Y-56837500D01*
G75*
G02*
X64762500Y-56600000I237500J0D01*
G01*
X65237500Y-56600000D01*
G75*
G02*
X65475000Y-56837500I0J-237500D01*
G01*
X65475000Y-57337500D01*
G75*
G02*
X65237500Y-57575000I-237500J0D01*
G01*
G37*
G36*
G01*
X65237500Y-59400000D02*
X64762500Y-59400000D01*
G75*
G02*
X64525000Y-59162500I0J237500D01*
G01*
X64525000Y-58662500D01*
G75*
G02*
X64762500Y-58425000I237500J0D01*
G01*
X65237500Y-58425000D01*
G75*
G02*
X65475000Y-58662500I0J-237500D01*
G01*
X65475000Y-59162500D01*
G75*
G02*
X65237500Y-59400000I-237500J0D01*
G01*
G37*
%TD*%
%TO.C,R36*%
G36*
G01*
X63237500Y-57575000D02*
X62762500Y-57575000D01*
G75*
G02*
X62525000Y-57337500I0J237500D01*
G01*
X62525000Y-56837500D01*
G75*
G02*
X62762500Y-56600000I237500J0D01*
G01*
X63237500Y-56600000D01*
G75*
G02*
X63475000Y-56837500I0J-237500D01*
G01*
X63475000Y-57337500D01*
G75*
G02*
X63237500Y-57575000I-237500J0D01*
G01*
G37*
G36*
G01*
X63237500Y-59400000D02*
X62762500Y-59400000D01*
G75*
G02*
X62525000Y-59162500I0J237500D01*
G01*
X62525000Y-58662500D01*
G75*
G02*
X62762500Y-58425000I237500J0D01*
G01*
X63237500Y-58425000D01*
G75*
G02*
X63475000Y-58662500I0J-237500D01*
G01*
X63475000Y-59162500D01*
G75*
G02*
X63237500Y-59400000I-237500J0D01*
G01*
G37*
%TD*%
%TO.C,R35*%
G36*
G01*
X29762500Y-10425000D02*
X30237500Y-10425000D01*
G75*
G02*
X30475000Y-10662500I0J-237500D01*
G01*
X30475000Y-11162500D01*
G75*
G02*
X30237500Y-11400000I-237500J0D01*
G01*
X29762500Y-11400000D01*
G75*
G02*
X29525000Y-11162500I0J237500D01*
G01*
X29525000Y-10662500D01*
G75*
G02*
X29762500Y-10425000I237500J0D01*
G01*
G37*
G36*
G01*
X29762500Y-8600000D02*
X30237500Y-8600000D01*
G75*
G02*
X30475000Y-8837500I0J-237500D01*
G01*
X30475000Y-9337500D01*
G75*
G02*
X30237500Y-9575000I-237500J0D01*
G01*
X29762500Y-9575000D01*
G75*
G02*
X29525000Y-9337500I0J237500D01*
G01*
X29525000Y-8837500D01*
G75*
G02*
X29762500Y-8600000I237500J0D01*
G01*
G37*
%TD*%
%TO.C,R34*%
G36*
G01*
X30237500Y-5662500D02*
X29762500Y-5662500D01*
G75*
G02*
X29525000Y-5425000I0J237500D01*
G01*
X29525000Y-4925000D01*
G75*
G02*
X29762500Y-4687500I237500J0D01*
G01*
X30237500Y-4687500D01*
G75*
G02*
X30475000Y-4925000I0J-237500D01*
G01*
X30475000Y-5425000D01*
G75*
G02*
X30237500Y-5662500I-237500J0D01*
G01*
G37*
G36*
G01*
X30237500Y-7487500D02*
X29762500Y-7487500D01*
G75*
G02*
X29525000Y-7250000I0J237500D01*
G01*
X29525000Y-6750000D01*
G75*
G02*
X29762500Y-6512500I237500J0D01*
G01*
X30237500Y-6512500D01*
G75*
G02*
X30475000Y-6750000I0J-237500D01*
G01*
X30475000Y-7250000D01*
G75*
G02*
X30237500Y-7487500I-237500J0D01*
G01*
G37*
%TD*%
%TO.C,R33*%
G36*
G01*
X32237500Y-4662500D02*
X31762500Y-4662500D01*
G75*
G02*
X31525000Y-4425000I0J237500D01*
G01*
X31525000Y-3925000D01*
G75*
G02*
X31762500Y-3687500I237500J0D01*
G01*
X32237500Y-3687500D01*
G75*
G02*
X32475000Y-3925000I0J-237500D01*
G01*
X32475000Y-4425000D01*
G75*
G02*
X32237500Y-4662500I-237500J0D01*
G01*
G37*
G36*
G01*
X32237500Y-6487500D02*
X31762500Y-6487500D01*
G75*
G02*
X31525000Y-6250000I0J237500D01*
G01*
X31525000Y-5750000D01*
G75*
G02*
X31762500Y-5512500I237500J0D01*
G01*
X32237500Y-5512500D01*
G75*
G02*
X32475000Y-5750000I0J-237500D01*
G01*
X32475000Y-6250000D01*
G75*
G02*
X32237500Y-6487500I-237500J0D01*
G01*
G37*
%TD*%
%TO.C,R32*%
G36*
G01*
X34575000Y-5762500D02*
X34575000Y-6237500D01*
G75*
G02*
X34337500Y-6475000I-237500J0D01*
G01*
X33837500Y-6475000D01*
G75*
G02*
X33600000Y-6237500I0J237500D01*
G01*
X33600000Y-5762500D01*
G75*
G02*
X33837500Y-5525000I237500J0D01*
G01*
X34337500Y-5525000D01*
G75*
G02*
X34575000Y-5762500I0J-237500D01*
G01*
G37*
G36*
G01*
X36400000Y-5762500D02*
X36400000Y-6237500D01*
G75*
G02*
X36162500Y-6475000I-237500J0D01*
G01*
X35662500Y-6475000D01*
G75*
G02*
X35425000Y-6237500I0J237500D01*
G01*
X35425000Y-5762500D01*
G75*
G02*
X35662500Y-5525000I237500J0D01*
G01*
X36162500Y-5525000D01*
G75*
G02*
X36400000Y-5762500I0J-237500D01*
G01*
G37*
%TD*%
%TO.C,R31*%
G36*
G01*
X36600000Y-14549999D02*
X36600000Y-15450001D01*
G75*
G02*
X36350001Y-15700000I-249999J0D01*
G01*
X35649999Y-15700000D01*
G75*
G02*
X35400000Y-15450001I0J249999D01*
G01*
X35400000Y-14549999D01*
G75*
G02*
X35649999Y-14300000I249999J0D01*
G01*
X36350001Y-14300000D01*
G75*
G02*
X36600000Y-14549999I0J-249999D01*
G01*
G37*
G36*
G01*
X38600000Y-14549999D02*
X38600000Y-15450001D01*
G75*
G02*
X38350001Y-15700000I-249999J0D01*
G01*
X37649999Y-15700000D01*
G75*
G02*
X37400000Y-15450001I0J249999D01*
G01*
X37400000Y-14549999D01*
G75*
G02*
X37649999Y-14300000I249999J0D01*
G01*
X38350001Y-14300000D01*
G75*
G02*
X38600000Y-14549999I0J-249999D01*
G01*
G37*
%TD*%
%TO.C,R30*%
G36*
G01*
X42237500Y-7662500D02*
X41762500Y-7662500D01*
G75*
G02*
X41525000Y-7425000I0J237500D01*
G01*
X41525000Y-6925000D01*
G75*
G02*
X41762500Y-6687500I237500J0D01*
G01*
X42237500Y-6687500D01*
G75*
G02*
X42475000Y-6925000I0J-237500D01*
G01*
X42475000Y-7425000D01*
G75*
G02*
X42237500Y-7662500I-237500J0D01*
G01*
G37*
G36*
G01*
X42237500Y-9487500D02*
X41762500Y-9487500D01*
G75*
G02*
X41525000Y-9250000I0J237500D01*
G01*
X41525000Y-8750000D01*
G75*
G02*
X41762500Y-8512500I237500J0D01*
G01*
X42237500Y-8512500D01*
G75*
G02*
X42475000Y-8750000I0J-237500D01*
G01*
X42475000Y-9250000D01*
G75*
G02*
X42237500Y-9487500I-237500J0D01*
G01*
G37*
%TD*%
%TO.C,R29*%
G36*
G01*
X42237500Y-11575000D02*
X41762500Y-11575000D01*
G75*
G02*
X41525000Y-11337500I0J237500D01*
G01*
X41525000Y-10837500D01*
G75*
G02*
X41762500Y-10600000I237500J0D01*
G01*
X42237500Y-10600000D01*
G75*
G02*
X42475000Y-10837500I0J-237500D01*
G01*
X42475000Y-11337500D01*
G75*
G02*
X42237500Y-11575000I-237500J0D01*
G01*
G37*
G36*
G01*
X42237500Y-13400000D02*
X41762500Y-13400000D01*
G75*
G02*
X41525000Y-13162500I0J237500D01*
G01*
X41525000Y-12662500D01*
G75*
G02*
X41762500Y-12425000I237500J0D01*
G01*
X42237500Y-12425000D01*
G75*
G02*
X42475000Y-12662500I0J-237500D01*
G01*
X42475000Y-13162500D01*
G75*
G02*
X42237500Y-13400000I-237500J0D01*
G01*
G37*
%TD*%
%TO.C,R28*%
G36*
G01*
X45762500Y-6512500D02*
X46237500Y-6512500D01*
G75*
G02*
X46475000Y-6750000I0J-237500D01*
G01*
X46475000Y-7250000D01*
G75*
G02*
X46237500Y-7487500I-237500J0D01*
G01*
X45762500Y-7487500D01*
G75*
G02*
X45525000Y-7250000I0J237500D01*
G01*
X45525000Y-6750000D01*
G75*
G02*
X45762500Y-6512500I237500J0D01*
G01*
G37*
G36*
G01*
X45762500Y-4687500D02*
X46237500Y-4687500D01*
G75*
G02*
X46475000Y-4925000I0J-237500D01*
G01*
X46475000Y-5425000D01*
G75*
G02*
X46237500Y-5662500I-237500J0D01*
G01*
X45762500Y-5662500D01*
G75*
G02*
X45525000Y-5425000I0J237500D01*
G01*
X45525000Y-4925000D01*
G75*
G02*
X45762500Y-4687500I237500J0D01*
G01*
G37*
%TD*%
%TO.C,R27*%
G36*
G01*
X43762500Y-6425000D02*
X44237500Y-6425000D01*
G75*
G02*
X44475000Y-6662500I0J-237500D01*
G01*
X44475000Y-7162500D01*
G75*
G02*
X44237500Y-7400000I-237500J0D01*
G01*
X43762500Y-7400000D01*
G75*
G02*
X43525000Y-7162500I0J237500D01*
G01*
X43525000Y-6662500D01*
G75*
G02*
X43762500Y-6425000I237500J0D01*
G01*
G37*
G36*
G01*
X43762500Y-4600000D02*
X44237500Y-4600000D01*
G75*
G02*
X44475000Y-4837500I0J-237500D01*
G01*
X44475000Y-5337500D01*
G75*
G02*
X44237500Y-5575000I-237500J0D01*
G01*
X43762500Y-5575000D01*
G75*
G02*
X43525000Y-5337500I0J237500D01*
G01*
X43525000Y-4837500D01*
G75*
G02*
X43762500Y-4600000I237500J0D01*
G01*
G37*
%TD*%
%TO.C,R26*%
G36*
G01*
X119575000Y-57762500D02*
X119575000Y-58237500D01*
G75*
G02*
X119337500Y-58475000I-237500J0D01*
G01*
X118837500Y-58475000D01*
G75*
G02*
X118600000Y-58237500I0J237500D01*
G01*
X118600000Y-57762500D01*
G75*
G02*
X118837500Y-57525000I237500J0D01*
G01*
X119337500Y-57525000D01*
G75*
G02*
X119575000Y-57762500I0J-237500D01*
G01*
G37*
G36*
G01*
X121400000Y-57762500D02*
X121400000Y-58237500D01*
G75*
G02*
X121162500Y-58475000I-237500J0D01*
G01*
X120662500Y-58475000D01*
G75*
G02*
X120425000Y-58237500I0J237500D01*
G01*
X120425000Y-57762500D01*
G75*
G02*
X120662500Y-57525000I237500J0D01*
G01*
X121162500Y-57525000D01*
G75*
G02*
X121400000Y-57762500I0J-237500D01*
G01*
G37*
%TD*%
%TO.C,R25*%
G36*
G01*
X60425000Y-42237500D02*
X60425000Y-41762500D01*
G75*
G02*
X60662500Y-41525000I237500J0D01*
G01*
X61162500Y-41525000D01*
G75*
G02*
X61400000Y-41762500I0J-237500D01*
G01*
X61400000Y-42237500D01*
G75*
G02*
X61162500Y-42475000I-237500J0D01*
G01*
X60662500Y-42475000D01*
G75*
G02*
X60425000Y-42237500I0J237500D01*
G01*
G37*
G36*
G01*
X58600000Y-42237500D02*
X58600000Y-41762500D01*
G75*
G02*
X58837500Y-41525000I237500J0D01*
G01*
X59337500Y-41525000D01*
G75*
G02*
X59575000Y-41762500I0J-237500D01*
G01*
X59575000Y-42237500D01*
G75*
G02*
X59337500Y-42475000I-237500J0D01*
G01*
X58837500Y-42475000D01*
G75*
G02*
X58600000Y-42237500I0J237500D01*
G01*
G37*
%TD*%
%TO.C,R24*%
G36*
G01*
X60425000Y-40237500D02*
X60425000Y-39762500D01*
G75*
G02*
X60662500Y-39525000I237500J0D01*
G01*
X61162500Y-39525000D01*
G75*
G02*
X61400000Y-39762500I0J-237500D01*
G01*
X61400000Y-40237500D01*
G75*
G02*
X61162500Y-40475000I-237500J0D01*
G01*
X60662500Y-40475000D01*
G75*
G02*
X60425000Y-40237500I0J237500D01*
G01*
G37*
G36*
G01*
X58600000Y-40237500D02*
X58600000Y-39762500D01*
G75*
G02*
X58837500Y-39525000I237500J0D01*
G01*
X59337500Y-39525000D01*
G75*
G02*
X59575000Y-39762500I0J-237500D01*
G01*
X59575000Y-40237500D01*
G75*
G02*
X59337500Y-40475000I-237500J0D01*
G01*
X58837500Y-40475000D01*
G75*
G02*
X58600000Y-40237500I0J237500D01*
G01*
G37*
%TD*%
%TO.C,R23*%
G36*
G01*
X60425000Y-38237500D02*
X60425000Y-37762500D01*
G75*
G02*
X60662500Y-37525000I237500J0D01*
G01*
X61162500Y-37525000D01*
G75*
G02*
X61400000Y-37762500I0J-237500D01*
G01*
X61400000Y-38237500D01*
G75*
G02*
X61162500Y-38475000I-237500J0D01*
G01*
X60662500Y-38475000D01*
G75*
G02*
X60425000Y-38237500I0J237500D01*
G01*
G37*
G36*
G01*
X58600000Y-38237500D02*
X58600000Y-37762500D01*
G75*
G02*
X58837500Y-37525000I237500J0D01*
G01*
X59337500Y-37525000D01*
G75*
G02*
X59575000Y-37762500I0J-237500D01*
G01*
X59575000Y-38237500D01*
G75*
G02*
X59337500Y-38475000I-237500J0D01*
G01*
X58837500Y-38475000D01*
G75*
G02*
X58600000Y-38237500I0J237500D01*
G01*
G37*
%TD*%
%TO.C,R22*%
G36*
G01*
X27337500Y-15237500D02*
X27337500Y-14762500D01*
G75*
G02*
X27575000Y-14525000I237500J0D01*
G01*
X28075000Y-14525000D01*
G75*
G02*
X28312500Y-14762500I0J-237500D01*
G01*
X28312500Y-15237500D01*
G75*
G02*
X28075000Y-15475000I-237500J0D01*
G01*
X27575000Y-15475000D01*
G75*
G02*
X27337500Y-15237500I0J237500D01*
G01*
G37*
G36*
G01*
X25512500Y-15237500D02*
X25512500Y-14762500D01*
G75*
G02*
X25750000Y-14525000I237500J0D01*
G01*
X26250000Y-14525000D01*
G75*
G02*
X26487500Y-14762500I0J-237500D01*
G01*
X26487500Y-15237500D01*
G75*
G02*
X26250000Y-15475000I-237500J0D01*
G01*
X25750000Y-15475000D01*
G75*
G02*
X25512500Y-15237500I0J237500D01*
G01*
G37*
%TD*%
%TO.C,R21*%
G36*
G01*
X24237500Y-15487500D02*
X23762500Y-15487500D01*
G75*
G02*
X23525000Y-15250000I0J237500D01*
G01*
X23525000Y-14750000D01*
G75*
G02*
X23762500Y-14512500I237500J0D01*
G01*
X24237500Y-14512500D01*
G75*
G02*
X24475000Y-14750000I0J-237500D01*
G01*
X24475000Y-15250000D01*
G75*
G02*
X24237500Y-15487500I-237500J0D01*
G01*
G37*
G36*
G01*
X24237500Y-17312500D02*
X23762500Y-17312500D01*
G75*
G02*
X23525000Y-17075000I0J237500D01*
G01*
X23525000Y-16575000D01*
G75*
G02*
X23762500Y-16337500I237500J0D01*
G01*
X24237500Y-16337500D01*
G75*
G02*
X24475000Y-16575000I0J-237500D01*
G01*
X24475000Y-17075000D01*
G75*
G02*
X24237500Y-17312500I-237500J0D01*
G01*
G37*
%TD*%
%TO.C,R20*%
G36*
G01*
X14762500Y-8925000D02*
X15237500Y-8925000D01*
G75*
G02*
X15475000Y-9162500I0J-237500D01*
G01*
X15475000Y-9662500D01*
G75*
G02*
X15237500Y-9900000I-237500J0D01*
G01*
X14762500Y-9900000D01*
G75*
G02*
X14525000Y-9662500I0J237500D01*
G01*
X14525000Y-9162500D01*
G75*
G02*
X14762500Y-8925000I237500J0D01*
G01*
G37*
G36*
G01*
X14762500Y-7100000D02*
X15237500Y-7100000D01*
G75*
G02*
X15475000Y-7337500I0J-237500D01*
G01*
X15475000Y-7837500D01*
G75*
G02*
X15237500Y-8075000I-237500J0D01*
G01*
X14762500Y-8075000D01*
G75*
G02*
X14525000Y-7837500I0J237500D01*
G01*
X14525000Y-7337500D01*
G75*
G02*
X14762500Y-7100000I237500J0D01*
G01*
G37*
%TD*%
%TO.C,R19*%
G36*
G01*
X21450001Y-17100000D02*
X20549999Y-17100000D01*
G75*
G02*
X20300000Y-16850001I0J249999D01*
G01*
X20300000Y-16149999D01*
G75*
G02*
X20549999Y-15900000I249999J0D01*
G01*
X21450001Y-15900000D01*
G75*
G02*
X21700000Y-16149999I0J-249999D01*
G01*
X21700000Y-16850001D01*
G75*
G02*
X21450001Y-17100000I-249999J0D01*
G01*
G37*
G36*
G01*
X21450001Y-19100000D02*
X20549999Y-19100000D01*
G75*
G02*
X20300000Y-18850001I0J249999D01*
G01*
X20300000Y-18149999D01*
G75*
G02*
X20549999Y-17900000I249999J0D01*
G01*
X21450001Y-17900000D01*
G75*
G02*
X21700000Y-18149999I0J-249999D01*
G01*
X21700000Y-18850001D01*
G75*
G02*
X21450001Y-19100000I-249999J0D01*
G01*
G37*
%TD*%
%TO.C,R18*%
G36*
G01*
X19487500Y-21762500D02*
X19487500Y-22237500D01*
G75*
G02*
X19250000Y-22475000I-237500J0D01*
G01*
X18750000Y-22475000D01*
G75*
G02*
X18512500Y-22237500I0J237500D01*
G01*
X18512500Y-21762500D01*
G75*
G02*
X18750000Y-21525000I237500J0D01*
G01*
X19250000Y-21525000D01*
G75*
G02*
X19487500Y-21762500I0J-237500D01*
G01*
G37*
G36*
G01*
X21312500Y-21762500D02*
X21312500Y-22237500D01*
G75*
G02*
X21075000Y-22475000I-237500J0D01*
G01*
X20575000Y-22475000D01*
G75*
G02*
X20337500Y-22237500I0J237500D01*
G01*
X20337500Y-21762500D01*
G75*
G02*
X20575000Y-21525000I237500J0D01*
G01*
X21075000Y-21525000D01*
G75*
G02*
X21312500Y-21762500I0J-237500D01*
G01*
G37*
%TD*%
%TO.C,R17*%
G36*
G01*
X19487500Y-23762500D02*
X19487500Y-24237500D01*
G75*
G02*
X19250000Y-24475000I-237500J0D01*
G01*
X18750000Y-24475000D01*
G75*
G02*
X18512500Y-24237500I0J237500D01*
G01*
X18512500Y-23762500D01*
G75*
G02*
X18750000Y-23525000I237500J0D01*
G01*
X19250000Y-23525000D01*
G75*
G02*
X19487500Y-23762500I0J-237500D01*
G01*
G37*
G36*
G01*
X21312500Y-23762500D02*
X21312500Y-24237500D01*
G75*
G02*
X21075000Y-24475000I-237500J0D01*
G01*
X20575000Y-24475000D01*
G75*
G02*
X20337500Y-24237500I0J237500D01*
G01*
X20337500Y-23762500D01*
G75*
G02*
X20575000Y-23525000I237500J0D01*
G01*
X21075000Y-23525000D01*
G75*
G02*
X21312500Y-23762500I0J-237500D01*
G01*
G37*
%TD*%
%TO.C,R16*%
G36*
G01*
X102237500Y-106662500D02*
X101762500Y-106662500D01*
G75*
G02*
X101525000Y-106425000I0J237500D01*
G01*
X101525000Y-105925000D01*
G75*
G02*
X101762500Y-105687500I237500J0D01*
G01*
X102237500Y-105687500D01*
G75*
G02*
X102475000Y-105925000I0J-237500D01*
G01*
X102475000Y-106425000D01*
G75*
G02*
X102237500Y-106662500I-237500J0D01*
G01*
G37*
G36*
G01*
X102237500Y-108487500D02*
X101762500Y-108487500D01*
G75*
G02*
X101525000Y-108250000I0J237500D01*
G01*
X101525000Y-107750000D01*
G75*
G02*
X101762500Y-107512500I237500J0D01*
G01*
X102237500Y-107512500D01*
G75*
G02*
X102475000Y-107750000I0J-237500D01*
G01*
X102475000Y-108250000D01*
G75*
G02*
X102237500Y-108487500I-237500J0D01*
G01*
G37*
%TD*%
%TO.C,R15*%
G36*
G01*
X103675000Y-107512500D02*
X104150000Y-107512500D01*
G75*
G02*
X104387500Y-107750000I0J-237500D01*
G01*
X104387500Y-108250000D01*
G75*
G02*
X104150000Y-108487500I-237500J0D01*
G01*
X103675000Y-108487500D01*
G75*
G02*
X103437500Y-108250000I0J237500D01*
G01*
X103437500Y-107750000D01*
G75*
G02*
X103675000Y-107512500I237500J0D01*
G01*
G37*
G36*
G01*
X103675000Y-105687500D02*
X104150000Y-105687500D01*
G75*
G02*
X104387500Y-105925000I0J-237500D01*
G01*
X104387500Y-106425000D01*
G75*
G02*
X104150000Y-106662500I-237500J0D01*
G01*
X103675000Y-106662500D01*
G75*
G02*
X103437500Y-106425000I0J237500D01*
G01*
X103437500Y-105925000D01*
G75*
G02*
X103675000Y-105687500I237500J0D01*
G01*
G37*
%TD*%
%TO.C,R14*%
G36*
G01*
X109412500Y-118662500D02*
X108937500Y-118662500D01*
G75*
G02*
X108700000Y-118425000I0J237500D01*
G01*
X108700000Y-117925000D01*
G75*
G02*
X108937500Y-117687500I237500J0D01*
G01*
X109412500Y-117687500D01*
G75*
G02*
X109650000Y-117925000I0J-237500D01*
G01*
X109650000Y-118425000D01*
G75*
G02*
X109412500Y-118662500I-237500J0D01*
G01*
G37*
G36*
G01*
X109412500Y-120487500D02*
X108937500Y-120487500D01*
G75*
G02*
X108700000Y-120250000I0J237500D01*
G01*
X108700000Y-119750000D01*
G75*
G02*
X108937500Y-119512500I237500J0D01*
G01*
X109412500Y-119512500D01*
G75*
G02*
X109650000Y-119750000I0J-237500D01*
G01*
X109650000Y-120250000D01*
G75*
G02*
X109412500Y-120487500I-237500J0D01*
G01*
G37*
%TD*%
%TO.C,R13*%
G36*
G01*
X102900000Y-117924999D02*
X102900000Y-120075001D01*
G75*
G02*
X102650001Y-120325000I-249999J0D01*
G01*
X101749999Y-120325000D01*
G75*
G02*
X101500000Y-120075001I0J249999D01*
G01*
X101500000Y-117924999D01*
G75*
G02*
X101749999Y-117675000I249999J0D01*
G01*
X102650001Y-117675000D01*
G75*
G02*
X102900000Y-117924999I0J-249999D01*
G01*
G37*
G36*
G01*
X107700000Y-117924999D02*
X107700000Y-120075001D01*
G75*
G02*
X107450001Y-120325000I-249999J0D01*
G01*
X106549999Y-120325000D01*
G75*
G02*
X106300000Y-120075001I0J249999D01*
G01*
X106300000Y-117924999D01*
G75*
G02*
X106549999Y-117675000I249999J0D01*
G01*
X107450001Y-117675000D01*
G75*
G02*
X107700000Y-117924999I0J-249999D01*
G01*
G37*
%TD*%
%TO.C,R12*%
G36*
G01*
X17237500Y-50662500D02*
X16762500Y-50662500D01*
G75*
G02*
X16525000Y-50425000I0J237500D01*
G01*
X16525000Y-49925000D01*
G75*
G02*
X16762500Y-49687500I237500J0D01*
G01*
X17237500Y-49687500D01*
G75*
G02*
X17475000Y-49925000I0J-237500D01*
G01*
X17475000Y-50425000D01*
G75*
G02*
X17237500Y-50662500I-237500J0D01*
G01*
G37*
G36*
G01*
X17237500Y-52487500D02*
X16762500Y-52487500D01*
G75*
G02*
X16525000Y-52250000I0J237500D01*
G01*
X16525000Y-51750000D01*
G75*
G02*
X16762500Y-51512500I237500J0D01*
G01*
X17237500Y-51512500D01*
G75*
G02*
X17475000Y-51750000I0J-237500D01*
G01*
X17475000Y-52250000D01*
G75*
G02*
X17237500Y-52487500I-237500J0D01*
G01*
G37*
%TD*%
%TO.C,R11*%
G36*
G01*
X18762500Y-51512500D02*
X19237500Y-51512500D01*
G75*
G02*
X19475000Y-51750000I0J-237500D01*
G01*
X19475000Y-52250000D01*
G75*
G02*
X19237500Y-52487500I-237500J0D01*
G01*
X18762500Y-52487500D01*
G75*
G02*
X18525000Y-52250000I0J237500D01*
G01*
X18525000Y-51750000D01*
G75*
G02*
X18762500Y-51512500I237500J0D01*
G01*
G37*
G36*
G01*
X18762500Y-49687500D02*
X19237500Y-49687500D01*
G75*
G02*
X19475000Y-49925000I0J-237500D01*
G01*
X19475000Y-50425000D01*
G75*
G02*
X19237500Y-50662500I-237500J0D01*
G01*
X18762500Y-50662500D01*
G75*
G02*
X18525000Y-50425000I0J237500D01*
G01*
X18525000Y-49925000D01*
G75*
G02*
X18762500Y-49687500I237500J0D01*
G01*
G37*
%TD*%
%TO.C,R10*%
G36*
G01*
X24237500Y-62575000D02*
X23762500Y-62575000D01*
G75*
G02*
X23525000Y-62337500I0J237500D01*
G01*
X23525000Y-61837500D01*
G75*
G02*
X23762500Y-61600000I237500J0D01*
G01*
X24237500Y-61600000D01*
G75*
G02*
X24475000Y-61837500I0J-237500D01*
G01*
X24475000Y-62337500D01*
G75*
G02*
X24237500Y-62575000I-237500J0D01*
G01*
G37*
G36*
G01*
X24237500Y-64400000D02*
X23762500Y-64400000D01*
G75*
G02*
X23525000Y-64162500I0J237500D01*
G01*
X23525000Y-63662500D01*
G75*
G02*
X23762500Y-63425000I237500J0D01*
G01*
X24237500Y-63425000D01*
G75*
G02*
X24475000Y-63662500I0J-237500D01*
G01*
X24475000Y-64162500D01*
G75*
G02*
X24237500Y-64400000I-237500J0D01*
G01*
G37*
%TD*%
%TO.C,R9*%
G36*
G01*
X17900000Y-61924999D02*
X17900000Y-64075001D01*
G75*
G02*
X17650001Y-64325000I-249999J0D01*
G01*
X16749999Y-64325000D01*
G75*
G02*
X16500000Y-64075001I0J249999D01*
G01*
X16500000Y-61924999D01*
G75*
G02*
X16749999Y-61675000I249999J0D01*
G01*
X17650001Y-61675000D01*
G75*
G02*
X17900000Y-61924999I0J-249999D01*
G01*
G37*
G36*
G01*
X22700000Y-61924999D02*
X22700000Y-64075001D01*
G75*
G02*
X22450001Y-64325000I-249999J0D01*
G01*
X21549999Y-64325000D01*
G75*
G02*
X21300000Y-64075001I0J249999D01*
G01*
X21300000Y-61924999D01*
G75*
G02*
X21549999Y-61675000I249999J0D01*
G01*
X22450001Y-61675000D01*
G75*
G02*
X22700000Y-61924999I0J-249999D01*
G01*
G37*
%TD*%
%TO.C,R8*%
G36*
G01*
X129425000Y-20237500D02*
X129425000Y-19762500D01*
G75*
G02*
X129662500Y-19525000I237500J0D01*
G01*
X130162500Y-19525000D01*
G75*
G02*
X130400000Y-19762500I0J-237500D01*
G01*
X130400000Y-20237500D01*
G75*
G02*
X130162500Y-20475000I-237500J0D01*
G01*
X129662500Y-20475000D01*
G75*
G02*
X129425000Y-20237500I0J237500D01*
G01*
G37*
G36*
G01*
X127600000Y-20237500D02*
X127600000Y-19762500D01*
G75*
G02*
X127837500Y-19525000I237500J0D01*
G01*
X128337500Y-19525000D01*
G75*
G02*
X128575000Y-19762500I0J-237500D01*
G01*
X128575000Y-20237500D01*
G75*
G02*
X128337500Y-20475000I-237500J0D01*
G01*
X127837500Y-20475000D01*
G75*
G02*
X127600000Y-20237500I0J237500D01*
G01*
G37*
%TD*%
%TO.C,R7*%
G36*
G01*
X125425000Y-18237500D02*
X125425000Y-17762500D01*
G75*
G02*
X125662500Y-17525000I237500J0D01*
G01*
X126162500Y-17525000D01*
G75*
G02*
X126400000Y-17762500I0J-237500D01*
G01*
X126400000Y-18237500D01*
G75*
G02*
X126162500Y-18475000I-237500J0D01*
G01*
X125662500Y-18475000D01*
G75*
G02*
X125425000Y-18237500I0J237500D01*
G01*
G37*
G36*
G01*
X123600000Y-18237500D02*
X123600000Y-17762500D01*
G75*
G02*
X123837500Y-17525000I237500J0D01*
G01*
X124337500Y-17525000D01*
G75*
G02*
X124575000Y-17762500I0J-237500D01*
G01*
X124575000Y-18237500D01*
G75*
G02*
X124337500Y-18475000I-237500J0D01*
G01*
X123837500Y-18475000D01*
G75*
G02*
X123600000Y-18237500I0J237500D01*
G01*
G37*
%TD*%
%TO.C,R6*%
G36*
G01*
X117237500Y-45575000D02*
X116762500Y-45575000D01*
G75*
G02*
X116525000Y-45337500I0J237500D01*
G01*
X116525000Y-44837500D01*
G75*
G02*
X116762500Y-44600000I237500J0D01*
G01*
X117237500Y-44600000D01*
G75*
G02*
X117475000Y-44837500I0J-237500D01*
G01*
X117475000Y-45337500D01*
G75*
G02*
X117237500Y-45575000I-237500J0D01*
G01*
G37*
G36*
G01*
X117237500Y-47400000D02*
X116762500Y-47400000D01*
G75*
G02*
X116525000Y-47162500I0J237500D01*
G01*
X116525000Y-46662500D01*
G75*
G02*
X116762500Y-46425000I237500J0D01*
G01*
X117237500Y-46425000D01*
G75*
G02*
X117475000Y-46662500I0J-237500D01*
G01*
X117475000Y-47162500D01*
G75*
G02*
X117237500Y-47400000I-237500J0D01*
G01*
G37*
%TD*%
%TO.C,R5*%
G36*
G01*
X106425000Y-33237500D02*
X106425000Y-32762500D01*
G75*
G02*
X106662500Y-32525000I237500J0D01*
G01*
X107162500Y-32525000D01*
G75*
G02*
X107400000Y-32762500I0J-237500D01*
G01*
X107400000Y-33237500D01*
G75*
G02*
X107162500Y-33475000I-237500J0D01*
G01*
X106662500Y-33475000D01*
G75*
G02*
X106425000Y-33237500I0J237500D01*
G01*
G37*
G36*
G01*
X104600000Y-33237500D02*
X104600000Y-32762500D01*
G75*
G02*
X104837500Y-32525000I237500J0D01*
G01*
X105337500Y-32525000D01*
G75*
G02*
X105575000Y-32762500I0J-237500D01*
G01*
X105575000Y-33237500D01*
G75*
G02*
X105337500Y-33475000I-237500J0D01*
G01*
X104837500Y-33475000D01*
G75*
G02*
X104600000Y-33237500I0J237500D01*
G01*
G37*
%TD*%
%TO.C,R4*%
G36*
G01*
X115237500Y-45575000D02*
X114762500Y-45575000D01*
G75*
G02*
X114525000Y-45337500I0J237500D01*
G01*
X114525000Y-44837500D01*
G75*
G02*
X114762500Y-44600000I237500J0D01*
G01*
X115237500Y-44600000D01*
G75*
G02*
X115475000Y-44837500I0J-237500D01*
G01*
X115475000Y-45337500D01*
G75*
G02*
X115237500Y-45575000I-237500J0D01*
G01*
G37*
G36*
G01*
X115237500Y-47400000D02*
X114762500Y-47400000D01*
G75*
G02*
X114525000Y-47162500I0J237500D01*
G01*
X114525000Y-46662500D01*
G75*
G02*
X114762500Y-46425000I237500J0D01*
G01*
X115237500Y-46425000D01*
G75*
G02*
X115475000Y-46662500I0J-237500D01*
G01*
X115475000Y-47162500D01*
G75*
G02*
X115237500Y-47400000I-237500J0D01*
G01*
G37*
%TD*%
%TO.C,R3*%
G36*
G01*
X113237500Y-45575000D02*
X112762500Y-45575000D01*
G75*
G02*
X112525000Y-45337500I0J237500D01*
G01*
X112525000Y-44837500D01*
G75*
G02*
X112762500Y-44600000I237500J0D01*
G01*
X113237500Y-44600000D01*
G75*
G02*
X113475000Y-44837500I0J-237500D01*
G01*
X113475000Y-45337500D01*
G75*
G02*
X113237500Y-45575000I-237500J0D01*
G01*
G37*
G36*
G01*
X113237500Y-47400000D02*
X112762500Y-47400000D01*
G75*
G02*
X112525000Y-47162500I0J237500D01*
G01*
X112525000Y-46662500D01*
G75*
G02*
X112762500Y-46425000I237500J0D01*
G01*
X113237500Y-46425000D01*
G75*
G02*
X113475000Y-46662500I0J-237500D01*
G01*
X113475000Y-47162500D01*
G75*
G02*
X113237500Y-47400000I-237500J0D01*
G01*
G37*
%TD*%
%TO.C,R2*%
G36*
G01*
X86575000Y-20762500D02*
X86575000Y-21237500D01*
G75*
G02*
X86337500Y-21475000I-237500J0D01*
G01*
X85837500Y-21475000D01*
G75*
G02*
X85600000Y-21237500I0J237500D01*
G01*
X85600000Y-20762500D01*
G75*
G02*
X85837500Y-20525000I237500J0D01*
G01*
X86337500Y-20525000D01*
G75*
G02*
X86575000Y-20762500I0J-237500D01*
G01*
G37*
G36*
G01*
X88400000Y-20762500D02*
X88400000Y-21237500D01*
G75*
G02*
X88162500Y-21475000I-237500J0D01*
G01*
X87662500Y-21475000D01*
G75*
G02*
X87425000Y-21237500I0J237500D01*
G01*
X87425000Y-20762500D01*
G75*
G02*
X87662500Y-20525000I237500J0D01*
G01*
X88162500Y-20525000D01*
G75*
G02*
X88400000Y-20762500I0J-237500D01*
G01*
G37*
%TD*%
%TO.C,R1*%
G36*
G01*
X70512500Y-29737500D02*
X70512500Y-29262500D01*
G75*
G02*
X70750000Y-29025000I237500J0D01*
G01*
X71250000Y-29025000D01*
G75*
G02*
X71487500Y-29262500I0J-237500D01*
G01*
X71487500Y-29737500D01*
G75*
G02*
X71250000Y-29975000I-237500J0D01*
G01*
X70750000Y-29975000D01*
G75*
G02*
X70512500Y-29737500I0J237500D01*
G01*
G37*
G36*
G01*
X68687500Y-29737500D02*
X68687500Y-29262500D01*
G75*
G02*
X68925000Y-29025000I237500J0D01*
G01*
X69425000Y-29025000D01*
G75*
G02*
X69662500Y-29262500I0J-237500D01*
G01*
X69662500Y-29737500D01*
G75*
G02*
X69425000Y-29975000I-237500J0D01*
G01*
X68925000Y-29975000D01*
G75*
G02*
X68687500Y-29737500I0J237500D01*
G01*
G37*
%TD*%
D30*
%TO.C,Q19*%
X40000000Y-88000000D03*
X38000000Y-88950000D03*
X38000000Y-87050000D03*
%TD*%
%TO.C,Q18*%
X44000000Y-88000000D03*
X42000000Y-88950000D03*
X42000000Y-87050000D03*
%TD*%
D31*
%TO.C,Q17*%
X39000000Y-83000000D03*
X38050000Y-81000000D03*
X39950000Y-81000000D03*
%TD*%
D30*
%TO.C,Q16*%
X30000000Y-87950000D03*
X28000000Y-88900000D03*
X28000000Y-87000000D03*
%TD*%
%TO.C,Q15*%
X34000000Y-87950000D03*
X32000000Y-88900000D03*
X32000000Y-87000000D03*
%TD*%
D31*
%TO.C,Q14*%
X29000000Y-83000000D03*
X28050000Y-81000000D03*
X29950000Y-81000000D03*
%TD*%
D30*
%TO.C,Q13*%
X60000000Y-88000000D03*
X58000000Y-88950000D03*
X58000000Y-87050000D03*
%TD*%
%TO.C,Q12*%
X64000000Y-88000000D03*
X62000000Y-88950000D03*
X62000000Y-87050000D03*
%TD*%
D31*
%TO.C,Q11*%
X59000000Y-83000000D03*
X58050000Y-81000000D03*
X59950000Y-81000000D03*
%TD*%
D30*
%TO.C,Q10*%
X50000000Y-88050000D03*
X48000000Y-89000000D03*
X48000000Y-87100000D03*
%TD*%
%TO.C,Q9*%
X54000000Y-88050000D03*
X52000000Y-89000000D03*
X52000000Y-87100000D03*
%TD*%
D31*
%TO.C,Q8*%
X49000000Y-83000000D03*
X48050000Y-81000000D03*
X49950000Y-81000000D03*
%TD*%
%TO.C,Q7*%
X24050000Y-90000000D03*
X23100000Y-88000000D03*
X25000000Y-88000000D03*
%TD*%
%TO.C,Q6*%
X24050000Y-84000000D03*
X23100000Y-82000000D03*
X25000000Y-82000000D03*
%TD*%
%TO.C,Q5*%
X107000000Y-90000000D03*
X106050000Y-88000000D03*
X107950000Y-88000000D03*
%TD*%
%TO.C,Q4*%
X107000000Y-84000000D03*
X106050000Y-82000000D03*
X107950000Y-82000000D03*
%TD*%
%TO.C,Q2*%
X66050000Y-52665001D03*
X65100000Y-50665001D03*
X67000000Y-50665001D03*
%TD*%
%TO.C,Q1*%
X129000000Y-16000000D03*
X129950000Y-18000000D03*
X128050000Y-18000000D03*
%TD*%
D32*
%TO.C,J10*%
X65000000Y-14080000D03*
X65000000Y-11540000D03*
D33*
X65000000Y-9000000D03*
%TD*%
D32*
%TO.C,J9*%
X68000000Y-14080000D03*
X68000000Y-11540000D03*
D33*
X68000000Y-9000000D03*
%TD*%
D32*
%TO.C,J8*%
X18780000Y-105800000D03*
X16240000Y-105800000D03*
D33*
X13700000Y-105800000D03*
%TD*%
D32*
%TO.C,J7*%
X49000000Y-7460000D03*
X49000000Y-10000000D03*
D33*
X49000000Y-12540000D03*
%TD*%
D32*
%TO.C,J5*%
X128160000Y-23000000D03*
X125620000Y-23000000D03*
X123080000Y-23000000D03*
X120540000Y-23000000D03*
D33*
X118000000Y-23000000D03*
%TD*%
D32*
%TO.C,J4*%
X59000000Y-24080000D03*
X59000000Y-21540000D03*
D33*
X59000000Y-19000000D03*
%TD*%
D32*
%TO.C,J3*%
X80840000Y-24000000D03*
X83380000Y-24000000D03*
X85920000Y-24000000D03*
X88460000Y-24000000D03*
D33*
X91000000Y-24000000D03*
%TD*%
D34*
%TO.C,J2*%
X2000000Y-19600000D03*
G36*
G01*
X1199999Y-13950000D02*
X2800001Y-13950000D01*
G75*
G02*
X3050000Y-14199999I0J-249999D01*
G01*
X3050000Y-15800001D01*
G75*
G02*
X2800001Y-16050000I-249999J0D01*
G01*
X1199999Y-16050000D01*
G75*
G02*
X950000Y-15800001I0J249999D01*
G01*
X950000Y-14199999D01*
G75*
G02*
X1199999Y-13950000I249999J0D01*
G01*
G37*
%TD*%
D35*
%TO.C,J1*%
X19710000Y-125000000D03*
X19710000Y-112960000D03*
D28*
X17000000Y-117730000D03*
X17000000Y-120230000D03*
X15000000Y-120230000D03*
D33*
X15000000Y-117730000D03*
%TD*%
D35*
%TO.C,H4*%
X135000000Y-5000000D03*
%TD*%
%TO.C,H3*%
X135000000Y-125000000D03*
%TD*%
%TO.C,H2*%
X5000000Y-5000000D03*
%TD*%
%TO.C,H1*%
X5000000Y-125000000D03*
%TD*%
%TO.C,FB4*%
G36*
G01*
X45649999Y-39775000D02*
X46350001Y-39775000D01*
G75*
G02*
X46600000Y-40024999I0J-249999D01*
G01*
X46600000Y-40575001D01*
G75*
G02*
X46350001Y-40825000I-249999J0D01*
G01*
X45649999Y-40825000D01*
G75*
G02*
X45400000Y-40575001I0J249999D01*
G01*
X45400000Y-40024999D01*
G75*
G02*
X45649999Y-39775000I249999J0D01*
G01*
G37*
G36*
G01*
X45649999Y-37475000D02*
X46350001Y-37475000D01*
G75*
G02*
X46600000Y-37724999I0J-249999D01*
G01*
X46600000Y-38275001D01*
G75*
G02*
X46350001Y-38525000I-249999J0D01*
G01*
X45649999Y-38525000D01*
G75*
G02*
X45400000Y-38275001I0J249999D01*
G01*
X45400000Y-37724999D01*
G75*
G02*
X45649999Y-37475000I249999J0D01*
G01*
G37*
%TD*%
%TO.C,FB3*%
G36*
G01*
X7475000Y-19350001D02*
X7475000Y-18649999D01*
G75*
G02*
X7724999Y-18400000I249999J0D01*
G01*
X8275001Y-18400000D01*
G75*
G02*
X8525000Y-18649999I0J-249999D01*
G01*
X8525000Y-19350001D01*
G75*
G02*
X8275001Y-19600000I-249999J0D01*
G01*
X7724999Y-19600000D01*
G75*
G02*
X7475000Y-19350001I0J249999D01*
G01*
G37*
G36*
G01*
X5175000Y-19350001D02*
X5175000Y-18649999D01*
G75*
G02*
X5424999Y-18400000I249999J0D01*
G01*
X5975001Y-18400000D01*
G75*
G02*
X6225000Y-18649999I0J-249999D01*
G01*
X6225000Y-19350001D01*
G75*
G02*
X5975001Y-19600000I-249999J0D01*
G01*
X5424999Y-19600000D01*
G75*
G02*
X5175000Y-19350001I0J249999D01*
G01*
G37*
%TD*%
%TO.C,FB2*%
G36*
G01*
X7475000Y-13350001D02*
X7475000Y-12649999D01*
G75*
G02*
X7724999Y-12400000I249999J0D01*
G01*
X8275001Y-12400000D01*
G75*
G02*
X8525000Y-12649999I0J-249999D01*
G01*
X8525000Y-13350001D01*
G75*
G02*
X8275001Y-13600000I-249999J0D01*
G01*
X7724999Y-13600000D01*
G75*
G02*
X7475000Y-13350001I0J249999D01*
G01*
G37*
G36*
G01*
X5175000Y-13350001D02*
X5175000Y-12649999D01*
G75*
G02*
X5424999Y-12400000I249999J0D01*
G01*
X5975001Y-12400000D01*
G75*
G02*
X6225000Y-12649999I0J-249999D01*
G01*
X6225000Y-13350001D01*
G75*
G02*
X5975001Y-13600000I-249999J0D01*
G01*
X5424999Y-13600000D01*
G75*
G02*
X5175000Y-13350001I0J249999D01*
G01*
G37*
%TD*%
%TO.C,FB1*%
G36*
G01*
X22649999Y-20275000D02*
X23350001Y-20275000D01*
G75*
G02*
X23600000Y-20524999I0J-249999D01*
G01*
X23600000Y-21075001D01*
G75*
G02*
X23350001Y-21325000I-249999J0D01*
G01*
X22649999Y-21325000D01*
G75*
G02*
X22400000Y-21075001I0J249999D01*
G01*
X22400000Y-20524999D01*
G75*
G02*
X22649999Y-20275000I249999J0D01*
G01*
G37*
G36*
G01*
X22649999Y-17975000D02*
X23350001Y-17975000D01*
G75*
G02*
X23600000Y-18224999I0J-249999D01*
G01*
X23600000Y-18775001D01*
G75*
G02*
X23350001Y-19025000I-249999J0D01*
G01*
X22649999Y-19025000D01*
G75*
G02*
X22400000Y-18775001I0J249999D01*
G01*
X22400000Y-18224999D01*
G75*
G02*
X22649999Y-17975000I249999J0D01*
G01*
G37*
%TD*%
%TO.C,F1*%
G36*
G01*
X7925000Y-114312500D02*
X9175000Y-114312500D01*
G75*
G02*
X9425000Y-114562500I0J-250000D01*
G01*
X9425000Y-115487500D01*
G75*
G02*
X9175000Y-115737500I-250000J0D01*
G01*
X7925000Y-115737500D01*
G75*
G02*
X7675000Y-115487500I0J250000D01*
G01*
X7675000Y-114562500D01*
G75*
G02*
X7925000Y-114312500I250000J0D01*
G01*
G37*
G36*
G01*
X7925000Y-117287500D02*
X9175000Y-117287500D01*
G75*
G02*
X9425000Y-117537500I0J-250000D01*
G01*
X9425000Y-118462500D01*
G75*
G02*
X9175000Y-118712500I-250000J0D01*
G01*
X7925000Y-118712500D01*
G75*
G02*
X7675000Y-118462500I0J250000D01*
G01*
X7675000Y-117537500D01*
G75*
G02*
X7925000Y-117287500I250000J0D01*
G01*
G37*
%TD*%
D36*
%TO.C,D2*%
X110000000Y-104000000D03*
X106700000Y-104000000D03*
%TD*%
%TO.C,D1*%
X25650000Y-47000000D03*
X22350000Y-47000000D03*
%TD*%
%TO.C,C63*%
G36*
G01*
X43100000Y-19349998D02*
X43100000Y-20650002D01*
G75*
G02*
X42850002Y-20900000I-249998J0D01*
G01*
X42024998Y-20900000D01*
G75*
G02*
X41775000Y-20650002I0J249998D01*
G01*
X41775000Y-19349998D01*
G75*
G02*
X42024998Y-19100000I249998J0D01*
G01*
X42850002Y-19100000D01*
G75*
G02*
X43100000Y-19349998I0J-249998D01*
G01*
G37*
G36*
G01*
X46225000Y-19349998D02*
X46225000Y-20650002D01*
G75*
G02*
X45975002Y-20900000I-249998J0D01*
G01*
X45149998Y-20900000D01*
G75*
G02*
X44900000Y-20650002I0J249998D01*
G01*
X44900000Y-19349998D01*
G75*
G02*
X45149998Y-19100000I249998J0D01*
G01*
X45975002Y-19100000D01*
G75*
G02*
X46225000Y-19349998I0J-249998D01*
G01*
G37*
%TD*%
%TO.C,C62*%
G36*
G01*
X43100000Y-22349998D02*
X43100000Y-23650002D01*
G75*
G02*
X42850002Y-23900000I-249998J0D01*
G01*
X42024998Y-23900000D01*
G75*
G02*
X41775000Y-23650002I0J249998D01*
G01*
X41775000Y-22349998D01*
G75*
G02*
X42024998Y-22100000I249998J0D01*
G01*
X42850002Y-22100000D01*
G75*
G02*
X43100000Y-22349998I0J-249998D01*
G01*
G37*
G36*
G01*
X46225000Y-22349998D02*
X46225000Y-23650002D01*
G75*
G02*
X45975002Y-23900000I-249998J0D01*
G01*
X45149998Y-23900000D01*
G75*
G02*
X44900000Y-23650002I0J249998D01*
G01*
X44900000Y-22349998D01*
G75*
G02*
X45149998Y-22100000I249998J0D01*
G01*
X45975002Y-22100000D01*
G75*
G02*
X46225000Y-22349998I0J-249998D01*
G01*
G37*
%TD*%
%TO.C,C61*%
G36*
G01*
X42762500Y-35462500D02*
X43237500Y-35462500D01*
G75*
G02*
X43475000Y-35700000I0J-237500D01*
G01*
X43475000Y-36300000D01*
G75*
G02*
X43237500Y-36537500I-237500J0D01*
G01*
X42762500Y-36537500D01*
G75*
G02*
X42525000Y-36300000I0J237500D01*
G01*
X42525000Y-35700000D01*
G75*
G02*
X42762500Y-35462500I237500J0D01*
G01*
G37*
G36*
G01*
X42762500Y-33737500D02*
X43237500Y-33737500D01*
G75*
G02*
X43475000Y-33975000I0J-237500D01*
G01*
X43475000Y-34575000D01*
G75*
G02*
X43237500Y-34812500I-237500J0D01*
G01*
X42762500Y-34812500D01*
G75*
G02*
X42525000Y-34575000I0J237500D01*
G01*
X42525000Y-33975000D01*
G75*
G02*
X42762500Y-33737500I237500J0D01*
G01*
G37*
%TD*%
%TO.C,C59*%
G36*
G01*
X53762500Y-57325000D02*
X54237500Y-57325000D01*
G75*
G02*
X54475000Y-57562500I0J-237500D01*
G01*
X54475000Y-58162500D01*
G75*
G02*
X54237500Y-58400000I-237500J0D01*
G01*
X53762500Y-58400000D01*
G75*
G02*
X53525000Y-58162500I0J237500D01*
G01*
X53525000Y-57562500D01*
G75*
G02*
X53762500Y-57325000I237500J0D01*
G01*
G37*
G36*
G01*
X53762500Y-55600000D02*
X54237500Y-55600000D01*
G75*
G02*
X54475000Y-55837500I0J-237500D01*
G01*
X54475000Y-56437500D01*
G75*
G02*
X54237500Y-56675000I-237500J0D01*
G01*
X53762500Y-56675000D01*
G75*
G02*
X53525000Y-56437500I0J237500D01*
G01*
X53525000Y-55837500D01*
G75*
G02*
X53762500Y-55600000I237500J0D01*
G01*
G37*
%TD*%
%TO.C,C67*%
G36*
G01*
X67762500Y-62325000D02*
X68237500Y-62325000D01*
G75*
G02*
X68475000Y-62562500I0J-237500D01*
G01*
X68475000Y-63162500D01*
G75*
G02*
X68237500Y-63400000I-237500J0D01*
G01*
X67762500Y-63400000D01*
G75*
G02*
X67525000Y-63162500I0J237500D01*
G01*
X67525000Y-62562500D01*
G75*
G02*
X67762500Y-62325000I237500J0D01*
G01*
G37*
G36*
G01*
X67762500Y-60600000D02*
X68237500Y-60600000D01*
G75*
G02*
X68475000Y-60837500I0J-237500D01*
G01*
X68475000Y-61437500D01*
G75*
G02*
X68237500Y-61675000I-237500J0D01*
G01*
X67762500Y-61675000D01*
G75*
G02*
X67525000Y-61437500I0J237500D01*
G01*
X67525000Y-60837500D01*
G75*
G02*
X67762500Y-60600000I237500J0D01*
G01*
G37*
%TD*%
%TO.C,C66*%
G36*
G01*
X85762500Y-62325000D02*
X86237500Y-62325000D01*
G75*
G02*
X86475000Y-62562500I0J-237500D01*
G01*
X86475000Y-63162500D01*
G75*
G02*
X86237500Y-63400000I-237500J0D01*
G01*
X85762500Y-63400000D01*
G75*
G02*
X85525000Y-63162500I0J237500D01*
G01*
X85525000Y-62562500D01*
G75*
G02*
X85762500Y-62325000I237500J0D01*
G01*
G37*
G36*
G01*
X85762500Y-60600000D02*
X86237500Y-60600000D01*
G75*
G02*
X86475000Y-60837500I0J-237500D01*
G01*
X86475000Y-61437500D01*
G75*
G02*
X86237500Y-61675000I-237500J0D01*
G01*
X85762500Y-61675000D01*
G75*
G02*
X85525000Y-61437500I0J237500D01*
G01*
X85525000Y-60837500D01*
G75*
G02*
X85762500Y-60600000I237500J0D01*
G01*
G37*
%TD*%
%TO.C,C65*%
G36*
G01*
X84175000Y-44762500D02*
X84175000Y-45237500D01*
G75*
G02*
X83937500Y-45475000I-237500J0D01*
G01*
X83337500Y-45475000D01*
G75*
G02*
X83100000Y-45237500I0J237500D01*
G01*
X83100000Y-44762500D01*
G75*
G02*
X83337500Y-44525000I237500J0D01*
G01*
X83937500Y-44525000D01*
G75*
G02*
X84175000Y-44762500I0J-237500D01*
G01*
G37*
G36*
G01*
X85900000Y-44762500D02*
X85900000Y-45237500D01*
G75*
G02*
X85662500Y-45475000I-237500J0D01*
G01*
X85062500Y-45475000D01*
G75*
G02*
X84825000Y-45237500I0J237500D01*
G01*
X84825000Y-44762500D01*
G75*
G02*
X85062500Y-44525000I237500J0D01*
G01*
X85662500Y-44525000D01*
G75*
G02*
X85900000Y-44762500I0J-237500D01*
G01*
G37*
%TD*%
%TO.C,C64*%
G36*
G01*
X103175000Y-44762500D02*
X103175000Y-45237500D01*
G75*
G02*
X102937500Y-45475000I-237500J0D01*
G01*
X102337500Y-45475000D01*
G75*
G02*
X102100000Y-45237500I0J237500D01*
G01*
X102100000Y-44762500D01*
G75*
G02*
X102337500Y-44525000I237500J0D01*
G01*
X102937500Y-44525000D01*
G75*
G02*
X103175000Y-44762500I0J-237500D01*
G01*
G37*
G36*
G01*
X104900000Y-44762500D02*
X104900000Y-45237500D01*
G75*
G02*
X104662500Y-45475000I-237500J0D01*
G01*
X104062500Y-45475000D01*
G75*
G02*
X103825000Y-45237500I0J237500D01*
G01*
X103825000Y-44762500D01*
G75*
G02*
X104062500Y-44525000I237500J0D01*
G01*
X104662500Y-44525000D01*
G75*
G02*
X104900000Y-44762500I0J-237500D01*
G01*
G37*
%TD*%
%TO.C,C57*%
G36*
G01*
X61237500Y-7675000D02*
X60762500Y-7675000D01*
G75*
G02*
X60525000Y-7437500I0J237500D01*
G01*
X60525000Y-6837500D01*
G75*
G02*
X60762500Y-6600000I237500J0D01*
G01*
X61237500Y-6600000D01*
G75*
G02*
X61475000Y-6837500I0J-237500D01*
G01*
X61475000Y-7437500D01*
G75*
G02*
X61237500Y-7675000I-237500J0D01*
G01*
G37*
G36*
G01*
X61237500Y-9400000D02*
X60762500Y-9400000D01*
G75*
G02*
X60525000Y-9162500I0J237500D01*
G01*
X60525000Y-8562500D01*
G75*
G02*
X60762500Y-8325000I237500J0D01*
G01*
X61237500Y-8325000D01*
G75*
G02*
X61475000Y-8562500I0J-237500D01*
G01*
X61475000Y-9162500D01*
G75*
G02*
X61237500Y-9400000I-237500J0D01*
G01*
G37*
%TD*%
%TO.C,C56*%
G36*
G01*
X55675000Y-6762500D02*
X55675000Y-7237500D01*
G75*
G02*
X55437500Y-7475000I-237500J0D01*
G01*
X54837500Y-7475000D01*
G75*
G02*
X54600000Y-7237500I0J237500D01*
G01*
X54600000Y-6762500D01*
G75*
G02*
X54837500Y-6525000I237500J0D01*
G01*
X55437500Y-6525000D01*
G75*
G02*
X55675000Y-6762500I0J-237500D01*
G01*
G37*
G36*
G01*
X57400000Y-6762500D02*
X57400000Y-7237500D01*
G75*
G02*
X57162500Y-7475000I-237500J0D01*
G01*
X56562500Y-7475000D01*
G75*
G02*
X56325000Y-7237500I0J237500D01*
G01*
X56325000Y-6762500D01*
G75*
G02*
X56562500Y-6525000I237500J0D01*
G01*
X57162500Y-6525000D01*
G75*
G02*
X57400000Y-6762500I0J-237500D01*
G01*
G37*
%TD*%
%TO.C,C55*%
G36*
G01*
X60675000Y-34762500D02*
X60675000Y-35237500D01*
G75*
G02*
X60437500Y-35475000I-237500J0D01*
G01*
X59837500Y-35475000D01*
G75*
G02*
X59600000Y-35237500I0J237500D01*
G01*
X59600000Y-34762500D01*
G75*
G02*
X59837500Y-34525000I237500J0D01*
G01*
X60437500Y-34525000D01*
G75*
G02*
X60675000Y-34762500I0J-237500D01*
G01*
G37*
G36*
G01*
X62400000Y-34762500D02*
X62400000Y-35237500D01*
G75*
G02*
X62162500Y-35475000I-237500J0D01*
G01*
X61562500Y-35475000D01*
G75*
G02*
X61325000Y-35237500I0J237500D01*
G01*
X61325000Y-34762500D01*
G75*
G02*
X61562500Y-34525000I237500J0D01*
G01*
X62162500Y-34525000D01*
G75*
G02*
X62400000Y-34762500I0J-237500D01*
G01*
G37*
%TD*%
%TO.C,C53*%
G36*
G01*
X74349998Y-86337500D02*
X75650002Y-86337500D01*
G75*
G02*
X75900000Y-86587498I0J-249998D01*
G01*
X75900000Y-87412502D01*
G75*
G02*
X75650002Y-87662500I-249998J0D01*
G01*
X74349998Y-87662500D01*
G75*
G02*
X74100000Y-87412502I0J249998D01*
G01*
X74100000Y-86587498D01*
G75*
G02*
X74349998Y-86337500I249998J0D01*
G01*
G37*
G36*
G01*
X74349998Y-83212500D02*
X75650002Y-83212500D01*
G75*
G02*
X75900000Y-83462498I0J-249998D01*
G01*
X75900000Y-84287502D01*
G75*
G02*
X75650002Y-84537500I-249998J0D01*
G01*
X74349998Y-84537500D01*
G75*
G02*
X74100000Y-84287502I0J249998D01*
G01*
X74100000Y-83462498D01*
G75*
G02*
X74349998Y-83212500I249998J0D01*
G01*
G37*
%TD*%
%TO.C,C52*%
G36*
G01*
X79325000Y-82237500D02*
X79325000Y-81762500D01*
G75*
G02*
X79562500Y-81525000I237500J0D01*
G01*
X80162500Y-81525000D01*
G75*
G02*
X80400000Y-81762500I0J-237500D01*
G01*
X80400000Y-82237500D01*
G75*
G02*
X80162500Y-82475000I-237500J0D01*
G01*
X79562500Y-82475000D01*
G75*
G02*
X79325000Y-82237500I0J237500D01*
G01*
G37*
G36*
G01*
X77600000Y-82237500D02*
X77600000Y-81762500D01*
G75*
G02*
X77837500Y-81525000I237500J0D01*
G01*
X78437500Y-81525000D01*
G75*
G02*
X78675000Y-81762500I0J-237500D01*
G01*
X78675000Y-82237500D01*
G75*
G02*
X78437500Y-82475000I-237500J0D01*
G01*
X77837500Y-82475000D01*
G75*
G02*
X77600000Y-82237500I0J237500D01*
G01*
G37*
%TD*%
%TO.C,C51*%
G36*
G01*
X85762500Y-85325000D02*
X86237500Y-85325000D01*
G75*
G02*
X86475000Y-85562500I0J-237500D01*
G01*
X86475000Y-86162500D01*
G75*
G02*
X86237500Y-86400000I-237500J0D01*
G01*
X85762500Y-86400000D01*
G75*
G02*
X85525000Y-86162500I0J237500D01*
G01*
X85525000Y-85562500D01*
G75*
G02*
X85762500Y-85325000I237500J0D01*
G01*
G37*
G36*
G01*
X85762500Y-83600000D02*
X86237500Y-83600000D01*
G75*
G02*
X86475000Y-83837500I0J-237500D01*
G01*
X86475000Y-84437500D01*
G75*
G02*
X86237500Y-84675000I-237500J0D01*
G01*
X85762500Y-84675000D01*
G75*
G02*
X85525000Y-84437500I0J237500D01*
G01*
X85525000Y-83837500D01*
G75*
G02*
X85762500Y-83600000I237500J0D01*
G01*
G37*
%TD*%
%TO.C,C50*%
G36*
G01*
X90187500Y-10237500D02*
X90187500Y-9762500D01*
G75*
G02*
X90425000Y-9525000I237500J0D01*
G01*
X91025000Y-9525000D01*
G75*
G02*
X91262500Y-9762500I0J-237500D01*
G01*
X91262500Y-10237500D01*
G75*
G02*
X91025000Y-10475000I-237500J0D01*
G01*
X90425000Y-10475000D01*
G75*
G02*
X90187500Y-10237500I0J237500D01*
G01*
G37*
G36*
G01*
X88462500Y-10237500D02*
X88462500Y-9762500D01*
G75*
G02*
X88700000Y-9525000I237500J0D01*
G01*
X89300000Y-9525000D01*
G75*
G02*
X89537500Y-9762500I0J-237500D01*
G01*
X89537500Y-10237500D01*
G75*
G02*
X89300000Y-10475000I-237500J0D01*
G01*
X88700000Y-10475000D01*
G75*
G02*
X88462500Y-10237500I0J237500D01*
G01*
G37*
%TD*%
%TO.C,C49*%
G36*
G01*
X88762500Y-13187500D02*
X89237500Y-13187500D01*
G75*
G02*
X89475000Y-13425000I0J-237500D01*
G01*
X89475000Y-14025000D01*
G75*
G02*
X89237500Y-14262500I-237500J0D01*
G01*
X88762500Y-14262500D01*
G75*
G02*
X88525000Y-14025000I0J237500D01*
G01*
X88525000Y-13425000D01*
G75*
G02*
X88762500Y-13187500I237500J0D01*
G01*
G37*
G36*
G01*
X88762500Y-11462500D02*
X89237500Y-11462500D01*
G75*
G02*
X89475000Y-11700000I0J-237500D01*
G01*
X89475000Y-12300000D01*
G75*
G02*
X89237500Y-12537500I-237500J0D01*
G01*
X88762500Y-12537500D01*
G75*
G02*
X88525000Y-12300000I0J237500D01*
G01*
X88525000Y-11700000D01*
G75*
G02*
X88762500Y-11462500I237500J0D01*
G01*
G37*
%TD*%
%TO.C,C48*%
G36*
G01*
X89237500Y-6812500D02*
X88762500Y-6812500D01*
G75*
G02*
X88525000Y-6575000I0J237500D01*
G01*
X88525000Y-5975000D01*
G75*
G02*
X88762500Y-5737500I237500J0D01*
G01*
X89237500Y-5737500D01*
G75*
G02*
X89475000Y-5975000I0J-237500D01*
G01*
X89475000Y-6575000D01*
G75*
G02*
X89237500Y-6812500I-237500J0D01*
G01*
G37*
G36*
G01*
X89237500Y-8537500D02*
X88762500Y-8537500D01*
G75*
G02*
X88525000Y-8300000I0J237500D01*
G01*
X88525000Y-7700000D01*
G75*
G02*
X88762500Y-7462500I237500J0D01*
G01*
X89237500Y-7462500D01*
G75*
G02*
X89475000Y-7700000I0J-237500D01*
G01*
X89475000Y-8300000D01*
G75*
G02*
X89237500Y-8537500I-237500J0D01*
G01*
G37*
%TD*%
%TO.C,C47*%
G36*
G01*
X93900000Y-4650002D02*
X93900000Y-3349998D01*
G75*
G02*
X94149998Y-3100000I249998J0D01*
G01*
X94975002Y-3100000D01*
G75*
G02*
X95225000Y-3349998I0J-249998D01*
G01*
X95225000Y-4650002D01*
G75*
G02*
X94975002Y-4900000I-249998J0D01*
G01*
X94149998Y-4900000D01*
G75*
G02*
X93900000Y-4650002I0J249998D01*
G01*
G37*
G36*
G01*
X90775000Y-4650002D02*
X90775000Y-3349998D01*
G75*
G02*
X91024998Y-3100000I249998J0D01*
G01*
X91850002Y-3100000D01*
G75*
G02*
X92100000Y-3349998I0J-249998D01*
G01*
X92100000Y-4650002D01*
G75*
G02*
X91850002Y-4900000I-249998J0D01*
G01*
X91024998Y-4900000D01*
G75*
G02*
X90775000Y-4650002I0J249998D01*
G01*
G37*
%TD*%
%TO.C,C46*%
G36*
G01*
X9537500Y-103762500D02*
X9537500Y-104237500D01*
G75*
G02*
X9300000Y-104475000I-237500J0D01*
G01*
X8700000Y-104475000D01*
G75*
G02*
X8462500Y-104237500I0J237500D01*
G01*
X8462500Y-103762500D01*
G75*
G02*
X8700000Y-103525000I237500J0D01*
G01*
X9300000Y-103525000D01*
G75*
G02*
X9537500Y-103762500I0J-237500D01*
G01*
G37*
G36*
G01*
X7812500Y-103762500D02*
X7812500Y-104237500D01*
G75*
G02*
X7575000Y-104475000I-237500J0D01*
G01*
X6975000Y-104475000D01*
G75*
G02*
X6737500Y-104237500I0J237500D01*
G01*
X6737500Y-103762500D01*
G75*
G02*
X6975000Y-103525000I237500J0D01*
G01*
X7575000Y-103525000D01*
G75*
G02*
X7812500Y-103762500I0J-237500D01*
G01*
G37*
%TD*%
%TO.C,C44*%
G36*
G01*
X40237500Y-7812500D02*
X39762500Y-7812500D01*
G75*
G02*
X39525000Y-7575000I0J237500D01*
G01*
X39525000Y-6975000D01*
G75*
G02*
X39762500Y-6737500I237500J0D01*
G01*
X40237500Y-6737500D01*
G75*
G02*
X40475000Y-6975000I0J-237500D01*
G01*
X40475000Y-7575000D01*
G75*
G02*
X40237500Y-7812500I-237500J0D01*
G01*
G37*
G36*
G01*
X40237500Y-9537500D02*
X39762500Y-9537500D01*
G75*
G02*
X39525000Y-9300000I0J237500D01*
G01*
X39525000Y-8700000D01*
G75*
G02*
X39762500Y-8462500I237500J0D01*
G01*
X40237500Y-8462500D01*
G75*
G02*
X40475000Y-8700000I0J-237500D01*
G01*
X40475000Y-9300000D01*
G75*
G02*
X40237500Y-9537500I-237500J0D01*
G01*
G37*
%TD*%
%TO.C,C43*%
G36*
G01*
X40237500Y-11675000D02*
X39762500Y-11675000D01*
G75*
G02*
X39525000Y-11437500I0J237500D01*
G01*
X39525000Y-10837500D01*
G75*
G02*
X39762500Y-10600000I237500J0D01*
G01*
X40237500Y-10600000D01*
G75*
G02*
X40475000Y-10837500I0J-237500D01*
G01*
X40475000Y-11437500D01*
G75*
G02*
X40237500Y-11675000I-237500J0D01*
G01*
G37*
G36*
G01*
X40237500Y-13400000D02*
X39762500Y-13400000D01*
G75*
G02*
X39525000Y-13162500I0J237500D01*
G01*
X39525000Y-12562500D01*
G75*
G02*
X39762500Y-12325000I237500J0D01*
G01*
X40237500Y-12325000D01*
G75*
G02*
X40475000Y-12562500I0J-237500D01*
G01*
X40475000Y-13162500D01*
G75*
G02*
X40237500Y-13400000I-237500J0D01*
G01*
G37*
%TD*%
%TO.C,C42*%
G36*
G01*
X33325000Y-14237500D02*
X33325000Y-13762500D01*
G75*
G02*
X33562500Y-13525000I237500J0D01*
G01*
X34162500Y-13525000D01*
G75*
G02*
X34400000Y-13762500I0J-237500D01*
G01*
X34400000Y-14237500D01*
G75*
G02*
X34162500Y-14475000I-237500J0D01*
G01*
X33562500Y-14475000D01*
G75*
G02*
X33325000Y-14237500I0J237500D01*
G01*
G37*
G36*
G01*
X31600000Y-14237500D02*
X31600000Y-13762500D01*
G75*
G02*
X31837500Y-13525000I237500J0D01*
G01*
X32437500Y-13525000D01*
G75*
G02*
X32675000Y-13762500I0J-237500D01*
G01*
X32675000Y-14237500D01*
G75*
G02*
X32437500Y-14475000I-237500J0D01*
G01*
X31837500Y-14475000D01*
G75*
G02*
X31600000Y-14237500I0J237500D01*
G01*
G37*
%TD*%
%TO.C,C41*%
G36*
G01*
X44812500Y-13762500D02*
X44812500Y-14237500D01*
G75*
G02*
X44575000Y-14475000I-237500J0D01*
G01*
X43975000Y-14475000D01*
G75*
G02*
X43737500Y-14237500I0J237500D01*
G01*
X43737500Y-13762500D01*
G75*
G02*
X43975000Y-13525000I237500J0D01*
G01*
X44575000Y-13525000D01*
G75*
G02*
X44812500Y-13762500I0J-237500D01*
G01*
G37*
G36*
G01*
X46537500Y-13762500D02*
X46537500Y-14237500D01*
G75*
G02*
X46300000Y-14475000I-237500J0D01*
G01*
X45700000Y-14475000D01*
G75*
G02*
X45462500Y-14237500I0J237500D01*
G01*
X45462500Y-13762500D01*
G75*
G02*
X45700000Y-13525000I237500J0D01*
G01*
X46300000Y-13525000D01*
G75*
G02*
X46537500Y-13762500I0J-237500D01*
G01*
G37*
%TD*%
%TO.C,C40*%
G36*
G01*
X43100000Y-15349998D02*
X43100000Y-16650002D01*
G75*
G02*
X42850002Y-16900000I-249998J0D01*
G01*
X42024998Y-16900000D01*
G75*
G02*
X41775000Y-16650002I0J249998D01*
G01*
X41775000Y-15349998D01*
G75*
G02*
X42024998Y-15100000I249998J0D01*
G01*
X42850002Y-15100000D01*
G75*
G02*
X43100000Y-15349998I0J-249998D01*
G01*
G37*
G36*
G01*
X46225000Y-15349998D02*
X46225000Y-16650002D01*
G75*
G02*
X45975002Y-16900000I-249998J0D01*
G01*
X45149998Y-16900000D01*
G75*
G02*
X44900000Y-16650002I0J249998D01*
G01*
X44900000Y-15349998D01*
G75*
G02*
X45149998Y-15100000I249998J0D01*
G01*
X45975002Y-15100000D01*
G75*
G02*
X46225000Y-15349998I0J-249998D01*
G01*
G37*
%TD*%
%TO.C,C39*%
G36*
G01*
X7462500Y-21237500D02*
X7462500Y-20762500D01*
G75*
G02*
X7700000Y-20525000I237500J0D01*
G01*
X8300000Y-20525000D01*
G75*
G02*
X8537500Y-20762500I0J-237500D01*
G01*
X8537500Y-21237500D01*
G75*
G02*
X8300000Y-21475000I-237500J0D01*
G01*
X7700000Y-21475000D01*
G75*
G02*
X7462500Y-21237500I0J237500D01*
G01*
G37*
G36*
G01*
X5737500Y-21237500D02*
X5737500Y-20762500D01*
G75*
G02*
X5975000Y-20525000I237500J0D01*
G01*
X6575000Y-20525000D01*
G75*
G02*
X6812500Y-20762500I0J-237500D01*
G01*
X6812500Y-21237500D01*
G75*
G02*
X6575000Y-21475000I-237500J0D01*
G01*
X5975000Y-21475000D01*
G75*
G02*
X5737500Y-21237500I0J237500D01*
G01*
G37*
%TD*%
%TO.C,C38*%
G36*
G01*
X7462500Y-11237500D02*
X7462500Y-10762500D01*
G75*
G02*
X7700000Y-10525000I237500J0D01*
G01*
X8300000Y-10525000D01*
G75*
G02*
X8537500Y-10762500I0J-237500D01*
G01*
X8537500Y-11237500D01*
G75*
G02*
X8300000Y-11475000I-237500J0D01*
G01*
X7700000Y-11475000D01*
G75*
G02*
X7462500Y-11237500I0J237500D01*
G01*
G37*
G36*
G01*
X5737500Y-11237500D02*
X5737500Y-10762500D01*
G75*
G02*
X5975000Y-10525000I237500J0D01*
G01*
X6575000Y-10525000D01*
G75*
G02*
X6812500Y-10762500I0J-237500D01*
G01*
X6812500Y-11237500D01*
G75*
G02*
X6575000Y-11475000I-237500J0D01*
G01*
X5975000Y-11475000D01*
G75*
G02*
X5737500Y-11237500I0J237500D01*
G01*
G37*
%TD*%
%TO.C,C37*%
G36*
G01*
X7462500Y-17237500D02*
X7462500Y-16762500D01*
G75*
G02*
X7700000Y-16525000I237500J0D01*
G01*
X8300000Y-16525000D01*
G75*
G02*
X8537500Y-16762500I0J-237500D01*
G01*
X8537500Y-17237500D01*
G75*
G02*
X8300000Y-17475000I-237500J0D01*
G01*
X7700000Y-17475000D01*
G75*
G02*
X7462500Y-17237500I0J237500D01*
G01*
G37*
G36*
G01*
X5737500Y-17237500D02*
X5737500Y-16762500D01*
G75*
G02*
X5975000Y-16525000I237500J0D01*
G01*
X6575000Y-16525000D01*
G75*
G02*
X6812500Y-16762500I0J-237500D01*
G01*
X6812500Y-17237500D01*
G75*
G02*
X6575000Y-17475000I-237500J0D01*
G01*
X5975000Y-17475000D01*
G75*
G02*
X5737500Y-17237500I0J237500D01*
G01*
G37*
%TD*%
%TO.C,C36*%
G36*
G01*
X7462500Y-15237500D02*
X7462500Y-14762500D01*
G75*
G02*
X7700000Y-14525000I237500J0D01*
G01*
X8300000Y-14525000D01*
G75*
G02*
X8537500Y-14762500I0J-237500D01*
G01*
X8537500Y-15237500D01*
G75*
G02*
X8300000Y-15475000I-237500J0D01*
G01*
X7700000Y-15475000D01*
G75*
G02*
X7462500Y-15237500I0J237500D01*
G01*
G37*
G36*
G01*
X5737500Y-15237500D02*
X5737500Y-14762500D01*
G75*
G02*
X5975000Y-14525000I237500J0D01*
G01*
X6575000Y-14525000D01*
G75*
G02*
X6812500Y-14762500I0J-237500D01*
G01*
X6812500Y-15237500D01*
G75*
G02*
X6575000Y-15475000I-237500J0D01*
G01*
X5975000Y-15475000D01*
G75*
G02*
X5737500Y-15237500I0J237500D01*
G01*
G37*
%TD*%
%TO.C,C35*%
G36*
G01*
X12325000Y-22737500D02*
X12325000Y-22262500D01*
G75*
G02*
X12562500Y-22025000I237500J0D01*
G01*
X13162500Y-22025000D01*
G75*
G02*
X13400000Y-22262500I0J-237500D01*
G01*
X13400000Y-22737500D01*
G75*
G02*
X13162500Y-22975000I-237500J0D01*
G01*
X12562500Y-22975000D01*
G75*
G02*
X12325000Y-22737500I0J237500D01*
G01*
G37*
G36*
G01*
X10600000Y-22737500D02*
X10600000Y-22262500D01*
G75*
G02*
X10837500Y-22025000I237500J0D01*
G01*
X11437500Y-22025000D01*
G75*
G02*
X11675000Y-22262500I0J-237500D01*
G01*
X11675000Y-22737500D01*
G75*
G02*
X11437500Y-22975000I-237500J0D01*
G01*
X10837500Y-22975000D01*
G75*
G02*
X10600000Y-22737500I0J237500D01*
G01*
G37*
%TD*%
%TO.C,C34*%
G36*
G01*
X12325000Y-24237500D02*
X12325000Y-23762500D01*
G75*
G02*
X12562500Y-23525000I237500J0D01*
G01*
X13162500Y-23525000D01*
G75*
G02*
X13400000Y-23762500I0J-237500D01*
G01*
X13400000Y-24237500D01*
G75*
G02*
X13162500Y-24475000I-237500J0D01*
G01*
X12562500Y-24475000D01*
G75*
G02*
X12325000Y-24237500I0J237500D01*
G01*
G37*
G36*
G01*
X10600000Y-24237500D02*
X10600000Y-23762500D01*
G75*
G02*
X10837500Y-23525000I237500J0D01*
G01*
X11437500Y-23525000D01*
G75*
G02*
X11675000Y-23762500I0J-237500D01*
G01*
X11675000Y-24237500D01*
G75*
G02*
X11437500Y-24475000I-237500J0D01*
G01*
X10837500Y-24475000D01*
G75*
G02*
X10600000Y-24237500I0J237500D01*
G01*
G37*
%TD*%
%TO.C,C32*%
G36*
G01*
X27187500Y-17237500D02*
X27187500Y-16762500D01*
G75*
G02*
X27425000Y-16525000I237500J0D01*
G01*
X28025000Y-16525000D01*
G75*
G02*
X28262500Y-16762500I0J-237500D01*
G01*
X28262500Y-17237500D01*
G75*
G02*
X28025000Y-17475000I-237500J0D01*
G01*
X27425000Y-17475000D01*
G75*
G02*
X27187500Y-17237500I0J237500D01*
G01*
G37*
G36*
G01*
X25462500Y-17237500D02*
X25462500Y-16762500D01*
G75*
G02*
X25700000Y-16525000I237500J0D01*
G01*
X26300000Y-16525000D01*
G75*
G02*
X26537500Y-16762500I0J-237500D01*
G01*
X26537500Y-17237500D01*
G75*
G02*
X26300000Y-17475000I-237500J0D01*
G01*
X25700000Y-17475000D01*
G75*
G02*
X25462500Y-17237500I0J237500D01*
G01*
G37*
%TD*%
%TO.C,C31*%
G36*
G01*
X20187500Y-13737500D02*
X20187500Y-13262500D01*
G75*
G02*
X20425000Y-13025000I237500J0D01*
G01*
X21025000Y-13025000D01*
G75*
G02*
X21262500Y-13262500I0J-237500D01*
G01*
X21262500Y-13737500D01*
G75*
G02*
X21025000Y-13975000I-237500J0D01*
G01*
X20425000Y-13975000D01*
G75*
G02*
X20187500Y-13737500I0J237500D01*
G01*
G37*
G36*
G01*
X18462500Y-13737500D02*
X18462500Y-13262500D01*
G75*
G02*
X18700000Y-13025000I237500J0D01*
G01*
X19300000Y-13025000D01*
G75*
G02*
X19537500Y-13262500I0J-237500D01*
G01*
X19537500Y-13737500D01*
G75*
G02*
X19300000Y-13975000I-237500J0D01*
G01*
X18700000Y-13975000D01*
G75*
G02*
X18462500Y-13737500I0J237500D01*
G01*
G37*
%TD*%
%TO.C,C30*%
G36*
G01*
X12325000Y-9737500D02*
X12325000Y-9262500D01*
G75*
G02*
X12562500Y-9025000I237500J0D01*
G01*
X13162500Y-9025000D01*
G75*
G02*
X13400000Y-9262500I0J-237500D01*
G01*
X13400000Y-9737500D01*
G75*
G02*
X13162500Y-9975000I-237500J0D01*
G01*
X12562500Y-9975000D01*
G75*
G02*
X12325000Y-9737500I0J237500D01*
G01*
G37*
G36*
G01*
X10600000Y-9737500D02*
X10600000Y-9262500D01*
G75*
G02*
X10837500Y-9025000I237500J0D01*
G01*
X11437500Y-9025000D01*
G75*
G02*
X11675000Y-9262500I0J-237500D01*
G01*
X11675000Y-9737500D01*
G75*
G02*
X11437500Y-9975000I-237500J0D01*
G01*
X10837500Y-9975000D01*
G75*
G02*
X10600000Y-9737500I0J237500D01*
G01*
G37*
%TD*%
%TO.C,C29*%
G36*
G01*
X12325000Y-7737500D02*
X12325000Y-7262500D01*
G75*
G02*
X12562500Y-7025000I237500J0D01*
G01*
X13162500Y-7025000D01*
G75*
G02*
X13400000Y-7262500I0J-237500D01*
G01*
X13400000Y-7737500D01*
G75*
G02*
X13162500Y-7975000I-237500J0D01*
G01*
X12562500Y-7975000D01*
G75*
G02*
X12325000Y-7737500I0J237500D01*
G01*
G37*
G36*
G01*
X10600000Y-7737500D02*
X10600000Y-7262500D01*
G75*
G02*
X10837500Y-7025000I237500J0D01*
G01*
X11437500Y-7025000D01*
G75*
G02*
X11675000Y-7262500I0J-237500D01*
G01*
X11675000Y-7737500D01*
G75*
G02*
X11437500Y-7975000I-237500J0D01*
G01*
X10837500Y-7975000D01*
G75*
G02*
X10600000Y-7737500I0J237500D01*
G01*
G37*
%TD*%
%TO.C,C28*%
G36*
G01*
X20187500Y-12237500D02*
X20187500Y-11762500D01*
G75*
G02*
X20425000Y-11525000I237500J0D01*
G01*
X21025000Y-11525000D01*
G75*
G02*
X21262500Y-11762500I0J-237500D01*
G01*
X21262500Y-12237500D01*
G75*
G02*
X21025000Y-12475000I-237500J0D01*
G01*
X20425000Y-12475000D01*
G75*
G02*
X20187500Y-12237500I0J237500D01*
G01*
G37*
G36*
G01*
X18462500Y-12237500D02*
X18462500Y-11762500D01*
G75*
G02*
X18700000Y-11525000I237500J0D01*
G01*
X19300000Y-11525000D01*
G75*
G02*
X19537500Y-11762500I0J-237500D01*
G01*
X19537500Y-12237500D01*
G75*
G02*
X19300000Y-12475000I-237500J0D01*
G01*
X18700000Y-12475000D01*
G75*
G02*
X18462500Y-12237500I0J237500D01*
G01*
G37*
%TD*%
%TO.C,C26*%
G36*
G01*
X18900000Y-17687500D02*
X19375000Y-17687500D01*
G75*
G02*
X19612500Y-17925000I0J-237500D01*
G01*
X19612500Y-18525000D01*
G75*
G02*
X19375000Y-18762500I-237500J0D01*
G01*
X18900000Y-18762500D01*
G75*
G02*
X18662500Y-18525000I0J237500D01*
G01*
X18662500Y-17925000D01*
G75*
G02*
X18900000Y-17687500I237500J0D01*
G01*
G37*
G36*
G01*
X18900000Y-15962500D02*
X19375000Y-15962500D01*
G75*
G02*
X19612500Y-16200000I0J-237500D01*
G01*
X19612500Y-16800000D01*
G75*
G02*
X19375000Y-17037500I-237500J0D01*
G01*
X18900000Y-17037500D01*
G75*
G02*
X18662500Y-16800000I0J237500D01*
G01*
X18662500Y-16200000D01*
G75*
G02*
X18900000Y-15962500I237500J0D01*
G01*
G37*
%TD*%
%TO.C,C24*%
G36*
G01*
X107325000Y-108237500D02*
X107325000Y-107762500D01*
G75*
G02*
X107562500Y-107525000I237500J0D01*
G01*
X108162500Y-107525000D01*
G75*
G02*
X108400000Y-107762500I0J-237500D01*
G01*
X108400000Y-108237500D01*
G75*
G02*
X108162500Y-108475000I-237500J0D01*
G01*
X107562500Y-108475000D01*
G75*
G02*
X107325000Y-108237500I0J237500D01*
G01*
G37*
G36*
G01*
X105600000Y-108237500D02*
X105600000Y-107762500D01*
G75*
G02*
X105837500Y-107525000I237500J0D01*
G01*
X106437500Y-107525000D01*
G75*
G02*
X106675000Y-107762500I0J-237500D01*
G01*
X106675000Y-108237500D01*
G75*
G02*
X106437500Y-108475000I-237500J0D01*
G01*
X105837500Y-108475000D01*
G75*
G02*
X105600000Y-108237500I0J237500D01*
G01*
G37*
%TD*%
%TO.C,C23*%
G36*
G01*
X103237500Y-113812500D02*
X102762500Y-113812500D01*
G75*
G02*
X102525000Y-113575000I0J237500D01*
G01*
X102525000Y-112975000D01*
G75*
G02*
X102762500Y-112737500I237500J0D01*
G01*
X103237500Y-112737500D01*
G75*
G02*
X103475000Y-112975000I0J-237500D01*
G01*
X103475000Y-113575000D01*
G75*
G02*
X103237500Y-113812500I-237500J0D01*
G01*
G37*
G36*
G01*
X103237500Y-115537500D02*
X102762500Y-115537500D01*
G75*
G02*
X102525000Y-115300000I0J237500D01*
G01*
X102525000Y-114700000D01*
G75*
G02*
X102762500Y-114462500I237500J0D01*
G01*
X103237500Y-114462500D01*
G75*
G02*
X103475000Y-114700000I0J-237500D01*
G01*
X103475000Y-115300000D01*
G75*
G02*
X103237500Y-115537500I-237500J0D01*
G01*
G37*
%TD*%
%TO.C,C20*%
G36*
G01*
X19762500Y-30325000D02*
X20237500Y-30325000D01*
G75*
G02*
X20475000Y-30562500I0J-237500D01*
G01*
X20475000Y-31162500D01*
G75*
G02*
X20237500Y-31400000I-237500J0D01*
G01*
X19762500Y-31400000D01*
G75*
G02*
X19525000Y-31162500I0J237500D01*
G01*
X19525000Y-30562500D01*
G75*
G02*
X19762500Y-30325000I237500J0D01*
G01*
G37*
G36*
G01*
X19762500Y-28600000D02*
X20237500Y-28600000D01*
G75*
G02*
X20475000Y-28837500I0J-237500D01*
G01*
X20475000Y-29437500D01*
G75*
G02*
X20237500Y-29675000I-237500J0D01*
G01*
X19762500Y-29675000D01*
G75*
G02*
X19525000Y-29437500I0J237500D01*
G01*
X19525000Y-28837500D01*
G75*
G02*
X19762500Y-28600000I237500J0D01*
G01*
G37*
%TD*%
%TO.C,C18*%
G36*
G01*
X22325000Y-52237500D02*
X22325000Y-51762500D01*
G75*
G02*
X22562500Y-51525000I237500J0D01*
G01*
X23162500Y-51525000D01*
G75*
G02*
X23400000Y-51762500I0J-237500D01*
G01*
X23400000Y-52237500D01*
G75*
G02*
X23162500Y-52475000I-237500J0D01*
G01*
X22562500Y-52475000D01*
G75*
G02*
X22325000Y-52237500I0J237500D01*
G01*
G37*
G36*
G01*
X20600000Y-52237500D02*
X20600000Y-51762500D01*
G75*
G02*
X20837500Y-51525000I237500J0D01*
G01*
X21437500Y-51525000D01*
G75*
G02*
X21675000Y-51762500I0J-237500D01*
G01*
X21675000Y-52237500D01*
G75*
G02*
X21437500Y-52475000I-237500J0D01*
G01*
X20837500Y-52475000D01*
G75*
G02*
X20600000Y-52237500I0J237500D01*
G01*
G37*
%TD*%
%TO.C,C17*%
G36*
G01*
X18237500Y-57812500D02*
X17762500Y-57812500D01*
G75*
G02*
X17525000Y-57575000I0J237500D01*
G01*
X17525000Y-56975000D01*
G75*
G02*
X17762500Y-56737500I237500J0D01*
G01*
X18237500Y-56737500D01*
G75*
G02*
X18475000Y-56975000I0J-237500D01*
G01*
X18475000Y-57575000D01*
G75*
G02*
X18237500Y-57812500I-237500J0D01*
G01*
G37*
G36*
G01*
X18237500Y-59537500D02*
X17762500Y-59537500D01*
G75*
G02*
X17525000Y-59300000I0J237500D01*
G01*
X17525000Y-58700000D01*
G75*
G02*
X17762500Y-58462500I237500J0D01*
G01*
X18237500Y-58462500D01*
G75*
G02*
X18475000Y-58700000I0J-237500D01*
G01*
X18475000Y-59300000D01*
G75*
G02*
X18237500Y-59537500I-237500J0D01*
G01*
G37*
%TD*%
%TO.C,C15*%
G36*
G01*
X132537500Y-86349998D02*
X132537500Y-87650002D01*
G75*
G02*
X132287502Y-87900000I-249998J0D01*
G01*
X131462498Y-87900000D01*
G75*
G02*
X131212500Y-87650002I0J249998D01*
G01*
X131212500Y-86349998D01*
G75*
G02*
X131462498Y-86100000I249998J0D01*
G01*
X132287502Y-86100000D01*
G75*
G02*
X132537500Y-86349998I0J-249998D01*
G01*
G37*
G36*
G01*
X135662500Y-86349998D02*
X135662500Y-87650002D01*
G75*
G02*
X135412502Y-87900000I-249998J0D01*
G01*
X134587498Y-87900000D01*
G75*
G02*
X134337500Y-87650002I0J249998D01*
G01*
X134337500Y-86349998D01*
G75*
G02*
X134587498Y-86100000I249998J0D01*
G01*
X135412502Y-86100000D01*
G75*
G02*
X135662500Y-86349998I0J-249998D01*
G01*
G37*
%TD*%
%TO.C,C14*%
G36*
G01*
X132537500Y-89349998D02*
X132537500Y-90650002D01*
G75*
G02*
X132287502Y-90900000I-249998J0D01*
G01*
X131462498Y-90900000D01*
G75*
G02*
X131212500Y-90650002I0J249998D01*
G01*
X131212500Y-89349998D01*
G75*
G02*
X131462498Y-89100000I249998J0D01*
G01*
X132287502Y-89100000D01*
G75*
G02*
X132537500Y-89349998I0J-249998D01*
G01*
G37*
G36*
G01*
X135662500Y-89349998D02*
X135662500Y-90650002D01*
G75*
G02*
X135412502Y-90900000I-249998J0D01*
G01*
X134587498Y-90900000D01*
G75*
G02*
X134337500Y-90650002I0J249998D01*
G01*
X134337500Y-89349998D01*
G75*
G02*
X134587498Y-89100000I249998J0D01*
G01*
X135412502Y-89100000D01*
G75*
G02*
X135662500Y-89349998I0J-249998D01*
G01*
G37*
%TD*%
%TO.C,C13*%
G36*
G01*
X129762500Y-96187500D02*
X130237500Y-96187500D01*
G75*
G02*
X130475000Y-96425000I0J-237500D01*
G01*
X130475000Y-97025000D01*
G75*
G02*
X130237500Y-97262500I-237500J0D01*
G01*
X129762500Y-97262500D01*
G75*
G02*
X129525000Y-97025000I0J237500D01*
G01*
X129525000Y-96425000D01*
G75*
G02*
X129762500Y-96187500I237500J0D01*
G01*
G37*
G36*
G01*
X129762500Y-94462500D02*
X130237500Y-94462500D01*
G75*
G02*
X130475000Y-94700000I0J-237500D01*
G01*
X130475000Y-95300000D01*
G75*
G02*
X130237500Y-95537500I-237500J0D01*
G01*
X129762500Y-95537500D01*
G75*
G02*
X129525000Y-95300000I0J237500D01*
G01*
X129525000Y-94700000D01*
G75*
G02*
X129762500Y-94462500I237500J0D01*
G01*
G37*
%TD*%
%TO.C,C11*%
G36*
G01*
X103349998Y-37900000D02*
X104650002Y-37900000D01*
G75*
G02*
X104900000Y-38149998I0J-249998D01*
G01*
X104900000Y-38975002D01*
G75*
G02*
X104650002Y-39225000I-249998J0D01*
G01*
X103349998Y-39225000D01*
G75*
G02*
X103100000Y-38975002I0J249998D01*
G01*
X103100000Y-38149998D01*
G75*
G02*
X103349998Y-37900000I249998J0D01*
G01*
G37*
G36*
G01*
X103349998Y-34775000D02*
X104650002Y-34775000D01*
G75*
G02*
X104900000Y-35024998I0J-249998D01*
G01*
X104900000Y-35850002D01*
G75*
G02*
X104650002Y-36100000I-249998J0D01*
G01*
X103349998Y-36100000D01*
G75*
G02*
X103100000Y-35850002I0J249998D01*
G01*
X103100000Y-35024998D01*
G75*
G02*
X103349998Y-34775000I249998J0D01*
G01*
G37*
%TD*%
%TO.C,C10*%
G36*
G01*
X106262500Y-38325000D02*
X106737500Y-38325000D01*
G75*
G02*
X106975000Y-38562500I0J-237500D01*
G01*
X106975000Y-39162500D01*
G75*
G02*
X106737500Y-39400000I-237500J0D01*
G01*
X106262500Y-39400000D01*
G75*
G02*
X106025000Y-39162500I0J237500D01*
G01*
X106025000Y-38562500D01*
G75*
G02*
X106262500Y-38325000I237500J0D01*
G01*
G37*
G36*
G01*
X106262500Y-36600000D02*
X106737500Y-36600000D01*
G75*
G02*
X106975000Y-36837500I0J-237500D01*
G01*
X106975000Y-37437500D01*
G75*
G02*
X106737500Y-37675000I-237500J0D01*
G01*
X106262500Y-37675000D01*
G75*
G02*
X106025000Y-37437500I0J237500D01*
G01*
X106025000Y-36837500D01*
G75*
G02*
X106262500Y-36600000I237500J0D01*
G01*
G37*
%TD*%
%TO.C,C9*%
G36*
G01*
X64675000Y-29262500D02*
X64675000Y-29737500D01*
G75*
G02*
X64437500Y-29975000I-237500J0D01*
G01*
X63837500Y-29975000D01*
G75*
G02*
X63600000Y-29737500I0J237500D01*
G01*
X63600000Y-29262500D01*
G75*
G02*
X63837500Y-29025000I237500J0D01*
G01*
X64437500Y-29025000D01*
G75*
G02*
X64675000Y-29262500I0J-237500D01*
G01*
G37*
G36*
G01*
X66400000Y-29262500D02*
X66400000Y-29737500D01*
G75*
G02*
X66162500Y-29975000I-237500J0D01*
G01*
X65562500Y-29975000D01*
G75*
G02*
X65325000Y-29737500I0J237500D01*
G01*
X65325000Y-29262500D01*
G75*
G02*
X65562500Y-29025000I237500J0D01*
G01*
X66162500Y-29025000D01*
G75*
G02*
X66400000Y-29262500I0J-237500D01*
G01*
G37*
%TD*%
%TO.C,C8*%
G36*
G01*
X61175000Y-29262500D02*
X61175000Y-29737500D01*
G75*
G02*
X60937500Y-29975000I-237500J0D01*
G01*
X60337500Y-29975000D01*
G75*
G02*
X60100000Y-29737500I0J237500D01*
G01*
X60100000Y-29262500D01*
G75*
G02*
X60337500Y-29025000I237500J0D01*
G01*
X60937500Y-29025000D01*
G75*
G02*
X61175000Y-29262500I0J-237500D01*
G01*
G37*
G36*
G01*
X62900000Y-29262500D02*
X62900000Y-29737500D01*
G75*
G02*
X62662500Y-29975000I-237500J0D01*
G01*
X62062500Y-29975000D01*
G75*
G02*
X61825000Y-29737500I0J237500D01*
G01*
X61825000Y-29262500D01*
G75*
G02*
X62062500Y-29025000I237500J0D01*
G01*
X62662500Y-29025000D01*
G75*
G02*
X62900000Y-29262500I0J-237500D01*
G01*
G37*
%TD*%
%TO.C,C7*%
G36*
G01*
X82675000Y-20762500D02*
X82675000Y-21237500D01*
G75*
G02*
X82437500Y-21475000I-237500J0D01*
G01*
X81837500Y-21475000D01*
G75*
G02*
X81600000Y-21237500I0J237500D01*
G01*
X81600000Y-20762500D01*
G75*
G02*
X81837500Y-20525000I237500J0D01*
G01*
X82437500Y-20525000D01*
G75*
G02*
X82675000Y-20762500I0J-237500D01*
G01*
G37*
G36*
G01*
X84400000Y-20762500D02*
X84400000Y-21237500D01*
G75*
G02*
X84162500Y-21475000I-237500J0D01*
G01*
X83562500Y-21475000D01*
G75*
G02*
X83325000Y-21237500I0J237500D01*
G01*
X83325000Y-20762500D01*
G75*
G02*
X83562500Y-20525000I237500J0D01*
G01*
X84162500Y-20525000D01*
G75*
G02*
X84400000Y-20762500I0J-237500D01*
G01*
G37*
%TD*%
%TO.C,C6*%
G36*
G01*
X76325000Y-32237500D02*
X76325000Y-31762500D01*
G75*
G02*
X76562500Y-31525000I237500J0D01*
G01*
X77162500Y-31525000D01*
G75*
G02*
X77400000Y-31762500I0J-237500D01*
G01*
X77400000Y-32237500D01*
G75*
G02*
X77162500Y-32475000I-237500J0D01*
G01*
X76562500Y-32475000D01*
G75*
G02*
X76325000Y-32237500I0J237500D01*
G01*
G37*
G36*
G01*
X74600000Y-32237500D02*
X74600000Y-31762500D01*
G75*
G02*
X74837500Y-31525000I237500J0D01*
G01*
X75437500Y-31525000D01*
G75*
G02*
X75675000Y-31762500I0J-237500D01*
G01*
X75675000Y-32237500D01*
G75*
G02*
X75437500Y-32475000I-237500J0D01*
G01*
X74837500Y-32475000D01*
G75*
G02*
X74600000Y-32237500I0J237500D01*
G01*
G37*
%TD*%
%TO.C,C5*%
G36*
G01*
X73762500Y-43825000D02*
X74237500Y-43825000D01*
G75*
G02*
X74475000Y-44062500I0J-237500D01*
G01*
X74475000Y-44662500D01*
G75*
G02*
X74237500Y-44900000I-237500J0D01*
G01*
X73762500Y-44900000D01*
G75*
G02*
X73525000Y-44662500I0J237500D01*
G01*
X73525000Y-44062500D01*
G75*
G02*
X73762500Y-43825000I237500J0D01*
G01*
G37*
G36*
G01*
X73762500Y-42100000D02*
X74237500Y-42100000D01*
G75*
G02*
X74475000Y-42337500I0J-237500D01*
G01*
X74475000Y-42937500D01*
G75*
G02*
X74237500Y-43175000I-237500J0D01*
G01*
X73762500Y-43175000D01*
G75*
G02*
X73525000Y-42937500I0J237500D01*
G01*
X73525000Y-42337500D01*
G75*
G02*
X73762500Y-42100000I237500J0D01*
G01*
G37*
%TD*%
%TO.C,C4*%
G36*
G01*
X68325000Y-20737500D02*
X68325000Y-20262500D01*
G75*
G02*
X68562500Y-20025000I237500J0D01*
G01*
X69162500Y-20025000D01*
G75*
G02*
X69400000Y-20262500I0J-237500D01*
G01*
X69400000Y-20737500D01*
G75*
G02*
X69162500Y-20975000I-237500J0D01*
G01*
X68562500Y-20975000D01*
G75*
G02*
X68325000Y-20737500I0J237500D01*
G01*
G37*
G36*
G01*
X66600000Y-20737500D02*
X66600000Y-20262500D01*
G75*
G02*
X66837500Y-20025000I237500J0D01*
G01*
X67437500Y-20025000D01*
G75*
G02*
X67675000Y-20262500I0J-237500D01*
G01*
X67675000Y-20737500D01*
G75*
G02*
X67437500Y-20975000I-237500J0D01*
G01*
X66837500Y-20975000D01*
G75*
G02*
X66600000Y-20737500I0J237500D01*
G01*
G37*
%TD*%
%TO.C,C3*%
G36*
G01*
X63762500Y-42325000D02*
X64237500Y-42325000D01*
G75*
G02*
X64475000Y-42562500I0J-237500D01*
G01*
X64475000Y-43162500D01*
G75*
G02*
X64237500Y-43400000I-237500J0D01*
G01*
X63762500Y-43400000D01*
G75*
G02*
X63525000Y-43162500I0J237500D01*
G01*
X63525000Y-42562500D01*
G75*
G02*
X63762500Y-42325000I237500J0D01*
G01*
G37*
G36*
G01*
X63762500Y-40600000D02*
X64237500Y-40600000D01*
G75*
G02*
X64475000Y-40837500I0J-237500D01*
G01*
X64475000Y-41437500D01*
G75*
G02*
X64237500Y-41675000I-237500J0D01*
G01*
X63762500Y-41675000D01*
G75*
G02*
X63525000Y-41437500I0J237500D01*
G01*
X63525000Y-40837500D01*
G75*
G02*
X63762500Y-40600000I237500J0D01*
G01*
G37*
%TD*%
%TO.C,C2*%
G36*
G01*
X80349998Y-42900000D02*
X81650002Y-42900000D01*
G75*
G02*
X81900000Y-43149998I0J-249998D01*
G01*
X81900000Y-43975002D01*
G75*
G02*
X81650002Y-44225000I-249998J0D01*
G01*
X80349998Y-44225000D01*
G75*
G02*
X80100000Y-43975002I0J249998D01*
G01*
X80100000Y-43149998D01*
G75*
G02*
X80349998Y-42900000I249998J0D01*
G01*
G37*
G36*
G01*
X80349998Y-39775000D02*
X81650002Y-39775000D01*
G75*
G02*
X81900000Y-40024998I0J-249998D01*
G01*
X81900000Y-40850002D01*
G75*
G02*
X81650002Y-41100000I-249998J0D01*
G01*
X80349998Y-41100000D01*
G75*
G02*
X80100000Y-40850002I0J249998D01*
G01*
X80100000Y-40024998D01*
G75*
G02*
X80349998Y-39775000I249998J0D01*
G01*
G37*
%TD*%
%TO.C,C1*%
G36*
G01*
X71675000Y-20262500D02*
X71675000Y-20737500D01*
G75*
G02*
X71437500Y-20975000I-237500J0D01*
G01*
X70837500Y-20975000D01*
G75*
G02*
X70600000Y-20737500I0J237500D01*
G01*
X70600000Y-20262500D01*
G75*
G02*
X70837500Y-20025000I237500J0D01*
G01*
X71437500Y-20025000D01*
G75*
G02*
X71675000Y-20262500I0J-237500D01*
G01*
G37*
G36*
G01*
X73400000Y-20262500D02*
X73400000Y-20737500D01*
G75*
G02*
X73162500Y-20975000I-237500J0D01*
G01*
X72562500Y-20975000D01*
G75*
G02*
X72325000Y-20737500I0J237500D01*
G01*
X72325000Y-20262500D01*
G75*
G02*
X72562500Y-20025000I237500J0D01*
G01*
X73162500Y-20025000D01*
G75*
G02*
X73400000Y-20262500I0J-237500D01*
G01*
G37*
%TD*%
D27*
%TO.C,BZ1*%
X125400000Y-14000000D03*
D29*
X133000000Y-14000000D03*
%TD*%
%TO.C,BT1*%
X95000000Y-14000000D03*
D27*
X115000000Y-14000000D03*
%TD*%
M02*
