M48
; DRILL file {KiCad 5.1.12-84ad8e8a86~92~ubuntu20.04.1} date Вс 17 апр 2022 17:37:14
; FORMAT={-:-/ absolute / metric / decimal}
; #@! TF.CreationDate,2022-04-17T17:37:14+03:00
; #@! TF.GenerationSoftware,Kicad,Pcbnew,5.1.12-84ad8e8a86~92~ubuntu20.04.1
FMAT,2
METRIC
T1C0.300
T2C0.400
T3C0.900
T4C0.920
T5C1.000
T6C1.100
T7C1.200
T8C2.330
T9C1.200
T10C3.500
%
G90
G05
T1
X12.7Y-11.55
X12.7Y-13.33
X12.7Y-15.11
X12.7Y-16.89
X12.7Y-18.67
X12.7Y-20.45
X14.0Y-11.55
X14.0Y-13.33
X14.0Y-15.11
X14.0Y-16.89
X14.0Y-18.67
X14.0Y-20.45
X15.3Y-11.55
X15.3Y-13.33
X15.3Y-15.11
X15.3Y-16.89
X15.3Y-18.67
X15.3Y-20.45
T2
X4.87Y-116.0
X5.0Y-10.0
X5.0Y-15.0
X5.0Y-25.0
X5.0Y-30.0
X5.0Y-35.0
X5.0Y-40.0
X5.0Y-45.0
X5.0Y-50.0
X5.0Y-55.0
X5.0Y-60.0
X5.0Y-105.0
X6.0Y-114.5
X6.0Y-118.0
X9.0Y-14.525
X9.0Y-17.475
X9.5Y-12.925
X9.5Y-19.075
X10.0Y-30.0
X10.0Y-35.0
X10.0Y-40.0
X10.0Y-45.0
X10.0Y-50.0
X10.0Y-65.0
X10.0Y-70.0
X10.0Y-125.0
X11.0Y-26.0
X12.0Y-11.0
X12.0Y-21.0
X14.0Y-10.637
X15.0Y-5.0
X15.0Y-25.0
X15.0Y-30.0
X15.0Y-40.0
X15.0Y-50.0
X15.0Y-55.0
X15.0Y-75.0
X15.0Y-95.0
X15.0Y-100.0
X15.0Y-115.0
X15.0Y-125.0
X16.0Y-3.0
X16.0Y-22.0
X16.0Y-93.0
X16.5Y-6.0
X17.0Y-94.0
X18.0Y-17.125
X20.0Y-5.0
X20.0Y-10.0
X20.0Y-20.0
X20.0Y-27.5
X20.0Y-40.0
X20.0Y-45.0
X20.0Y-70.0
X20.0Y-120.0
X20.5Y-88.237
X20.5Y-90.5
X21.0Y-76.5
X22.2Y-24.0
X23.0Y-22.5
X23.087Y-88.5
X24.0Y-47.5
X25.0Y-5.0
X25.0Y-10.0
X25.0Y-20.0
X25.0Y-25.0
X25.0Y-35.0
X25.0Y-40.0
X25.0Y-55.0
X25.0Y-60.0
X25.0Y-115.0
X25.0Y-120.0
X25.0Y-125.0
X28.5Y-76.5
X29.0Y-90.5
X30.0Y-15.0
X30.0Y-25.0
X30.0Y-30.0
X30.0Y-35.0
X30.0Y-40.0
X30.0Y-50.0
X30.0Y-55.0
X30.0Y-74.0
X30.5Y-87.0
X31.5Y-74.0
X33.0Y-78.0
X35.0Y-10.0
X35.0Y-25.0
X35.0Y-35.0
X35.0Y-40.0
X35.0Y-50.0
X35.0Y-55.0
X36.0Y-76.5
X36.5Y-89.0
X40.0Y-5.0
X40.0Y-20.0
X40.0Y-25.0
X40.0Y-30.0
X40.0Y-35.0
X40.0Y-40.0
X40.0Y-50.0
X40.0Y-55.0
X40.0Y-60.0
X40.0Y-87.0
X40.0Y-90.0
X41.0Y-78.0
X42.5Y-14.0
X43.0Y-10.0
X43.5Y-8.5
X43.5Y-76.5
X44.0Y-17.0
X45.0Y-45.0
X45.0Y-50.0
X45.0Y-55.0
X45.0Y-65.0
X45.0Y-90.0
X48.0Y-17.0
X48.5Y-3.0
X50.0Y-5.0
X50.0Y-15.0
X50.0Y-25.0
X50.0Y-35.0
X50.0Y-40.0
X50.0Y-50.0
X50.0Y-60.0
X50.0Y-65.0
X50.0Y-90.0
X51.0Y-76.5
X51.4Y-3.9
X53.0Y-16.54
X53.5Y-89.5
X54.0Y-78.0
X54.013Y-15.268
X54.5Y-3.0
X55.0Y-5.0
X55.0Y-12.5
X55.0Y-35.0
X55.0Y-40.0
X55.0Y-45.0
X55.0Y-50.0
X55.0Y-55.0
X55.0Y-60.0
X55.0Y-70.0
X55.0Y-80.0
X55.0Y-85.0
X55.5Y-8.5
X57.5Y-29.0
X58.25Y-6.5
X58.5Y-12.0
X58.5Y-76.5
X59.5Y-11.5
X60.0Y-15.0
X60.5Y-87.0
X61.0Y-37.0
X62.0Y-39.0
X62.0Y-41.0
X62.0Y-48.5
X62.0Y-52.0
X62.5Y-14.0
X63.0Y-78.0
X63.5Y-34.0
X63.8Y-39.0
X63.855Y-37.805
X64.574Y-40.0
X64.8Y-44.8
X65.0Y-5.0
X65.0Y-20.0
X65.0Y-70.0
X65.3Y-43.2
X65.47Y-40.97
X65.9Y-44.0
X66.0Y-76.5
X66.4Y-42.4
X66.5Y-41.0
X67.5Y-39.5
X68.0Y-37.0
X68.1Y-35.0
X69.0Y-37.0
X69.3Y-35.1
X69.5Y-31.5
X69.5Y-86.0
X70.0Y-5.0
X70.0Y-25.0
X70.5Y-10.0
X70.5Y-12.0
X70.5Y-16.5
X70.6Y-39.5
X70.9Y-34.9
X71.0Y-38.5
X71.0Y-47.0
X71.5Y-58.5
X72.0Y-39.2
X72.3Y-34.2
X72.5Y-37.5
X72.5Y-43.5
X73.5Y-76.5
X75.0Y-5.0
X75.0Y-14.0
X75.0Y-15.0
X75.0Y-20.0
X75.0Y-45.0
X75.4Y-40.4
X75.5Y-10.5
X75.5Y-30.5
X77.0Y-29.0
X77.0Y-86.0
X78.0Y-27.1
X78.1Y-33.8
X79.5Y-35.5
X79.5Y-40.5
X80.0Y-5.0
X80.0Y-10.0
X80.0Y-14.0
X80.0Y-20.0
X80.0Y-28.0
X80.0Y-45.0
X80.0Y-50.0
X80.0Y-55.0
X80.0Y-75.0
X80.5Y-30.5
X81.0Y-76.5
X84.0Y-89.5
X84.0Y-91.0
X84.5Y-4.0
X85.0Y-10.0
X85.0Y-15.0
X85.0Y-20.0
X85.0Y-60.0
X85.0Y-70.0
X85.0Y-75.0
X85.0Y-80.0
X87.0Y-33.0
X88.5Y-76.5
X89.0Y-15.5
X89.0Y-30.5
X90.0Y-50.0
X91.0Y-44.325
X91.0Y-47.0
X91.0Y-103.5
X91.062Y-40.438
X94.0Y-28.0
X94.025Y-45.075
X95.0Y-10.0
X95.0Y-20.0
X95.0Y-25.0
X95.0Y-105.0
X95.0Y-115.0
X95.0Y-125.0
X96.0Y-29.2
X96.0Y-45.9
X96.0Y-76.5
X96.75Y-35.0
X99.3Y-39.5
X99.31Y-36.5
X100.0Y-5.0
X100.0Y-10.0
X100.0Y-15.0
X100.0Y-20.0
X100.0Y-25.0
X100.0Y-30.0
X100.0Y-50.0
X100.0Y-80.0
X100.0Y-85.0
X100.0Y-105.0
X100.0Y-110.0
X100.3Y-36.7
X100.4Y-41.4
X100.47Y-42.53
X101.193Y-38.5
X101.3Y-40.6
X101.5Y-44.6
X102.5Y-39.0
X102.5Y-89.5
X103.5Y-76.5
X104.0Y-33.0
X104.0Y-37.0
X104.0Y-89.0
X105.0Y-5.0
X105.0Y-10.0
X105.0Y-15.0
X105.0Y-20.0
X105.0Y-25.0
X105.0Y-30.0
X105.0Y-60.0
X105.0Y-65.0
X105.0Y-70.0
X105.438Y-38.562
X107.5Y-38.0
X108.5Y-71.5
X110.0Y-5.0
X110.0Y-10.0
X110.0Y-15.0
X110.0Y-20.0
X110.0Y-25.0
X110.0Y-46.5
X110.0Y-55.0
X110.0Y-60.0
X110.0Y-65.0
X110.0Y-70.0
X110.0Y-90.0
X110.0Y-95.0
X110.0Y-100.0
X110.0Y-110.0
X110.0Y-115.0
X111.0Y-76.5
X111.5Y-38.0
X111.5Y-45.0
X114.0Y-38.0
X114.5Y-33.0
X115.0Y-5.0
X115.0Y-10.0
X115.0Y-20.0
X115.0Y-25.0
X115.0Y-65.0
X115.0Y-70.0
X115.0Y-80.0
X115.0Y-85.0
X115.0Y-90.0
X115.0Y-95.0
X115.0Y-110.0
X118.5Y-76.5
X119.5Y-26.0
X120.0Y-5.0
X120.0Y-10.0
X120.0Y-15.0
X120.0Y-20.0
X120.0Y-45.0
X120.0Y-50.0
X120.0Y-60.0
X120.0Y-65.0
X120.0Y-70.0
X120.0Y-75.0
X120.0Y-90.0
X120.0Y-95.0
X120.0Y-110.0
X120.0Y-120.0
X122.0Y-26.0
X125.0Y-5.0
X125.0Y-20.0
X125.0Y-35.0
X125.0Y-40.0
X125.0Y-45.0
X125.0Y-50.0
X125.0Y-60.0
X125.0Y-65.0
X125.0Y-70.0
X125.0Y-75.0
X125.0Y-95.0
X125.0Y-100.0
X125.0Y-105.0
X125.0Y-110.0
X125.0Y-115.0
X125.0Y-125.0
X130.0Y-5.0
X130.0Y-10.0
X130.0Y-15.0
X130.0Y-25.0
X130.0Y-30.0
X130.0Y-35.0
X130.0Y-40.0
X130.0Y-45.0
X130.0Y-55.0
X130.0Y-65.0
X130.0Y-70.0
X130.0Y-75.0
X130.0Y-80.0
X130.0Y-85.0
X130.0Y-90.0
X130.0Y-105.0
X130.0Y-115.0
X130.0Y-120.0
X130.0Y-125.0
X133.0Y-97.0
X135.0Y-10.0
X135.0Y-20.0
X135.0Y-25.0
X135.0Y-30.0
X135.0Y-35.0
X135.0Y-40.0
X135.0Y-45.0
X135.0Y-50.0
X135.0Y-55.0
X135.0Y-60.0
X135.0Y-110.0
X135.0Y-115.0
X135.0Y-120.0
T3
X10.46Y-2.0
X13.0Y-2.0
T4
X15.0Y-117.73
X15.0Y-120.23
X17.0Y-117.73
X17.0Y-120.23
T5
X4.0Y-11.5
X4.0Y-22.5
X6.0Y-33.0
X6.0Y-37.0
X8.0Y-25.5
X8.0Y-74.5
X11.0Y-113.0
X13.0Y-90.0
X13.5Y-64.5
X13.5Y-67.5
X13.7Y-105.8
X16.24Y-105.8
X17.5Y-10.0
X18.78Y-105.8
X23.0Y-50.0
X27.0Y-12.0
X32.0Y-91.0
X34.0Y-17.0
X40.0Y-17.0
X40.0Y-33.0
X42.0Y-91.0
X49.0Y-7.46
X49.0Y-10.0
X49.0Y-12.54
X49.0Y-20.0
X52.0Y-91.0
X53.0Y-31.0
X55.5Y-31.0
X59.0Y-19.0
X59.0Y-21.54
X59.0Y-24.08
X59.0Y-31.0
X62.0Y-91.0
X65.0Y-9.0
X65.0Y-11.54
X65.0Y-14.08
X68.0Y-9.0
X68.0Y-11.54
X68.0Y-14.08
X78.0Y-79.0
X80.84Y-24.0
X83.38Y-24.0
X85.92Y-24.0
X88.46Y-24.0
X91.0Y-24.0
X92.0Y-83.0
X92.0Y-87.0
X100.0Y-119.0
X112.0Y-121.0
X113.0Y-91.0
X118.0Y-23.0
X120.54Y-23.0
X123.08Y-23.0
X125.4Y-14.0
X125.62Y-23.0
X126.0Y-90.0
X128.16Y-23.0
X129.0Y-100.0
X129.0Y-103.0
X132.0Y-25.5
X132.0Y-74.5
X133.0Y-14.0
X138.0Y-102.0
T6
X2.0Y-15.0
X2.0Y-19.6
X19.0Y-95.5
X19.0Y-100.0
X25.5Y-95.5
X25.5Y-100.0
X29.0Y-95.5
X29.0Y-100.0
X35.5Y-95.5
X35.5Y-100.0
X39.0Y-95.5
X39.0Y-100.0
X45.5Y-95.5
X45.5Y-100.0
X49.0Y-95.5
X49.0Y-100.0
X55.5Y-95.5
X55.5Y-100.0
X59.0Y-95.5
X59.0Y-100.0
X65.5Y-95.5
X65.5Y-100.0
X69.0Y-95.5
X69.0Y-100.0
X75.5Y-95.5
X75.5Y-100.0
X79.0Y-95.5
X79.0Y-100.0
X85.5Y-95.5
X85.5Y-100.0
X89.0Y-95.5
X89.0Y-100.0
X95.5Y-95.5
X95.5Y-100.0
X99.0Y-95.5
X99.0Y-100.0
X105.5Y-95.5
X105.5Y-100.0
T7
X95.0Y-14.0
X111.5Y-62.5
X111.5Y-67.5
X115.0Y-14.0
X115.25Y-62.5
X115.25Y-67.5
X119.0Y-62.5
X119.0Y-67.5
T8
X19.71Y-112.96
X19.71Y-125.0
T9
X119.9Y-40.95
X120.0Y-32.95
T10
X5.0Y-5.0
X5.0Y-125.0
X135.0Y-5.0
X135.0Y-125.0
T0
M30
